<?xml version="1.0" standalone="no"?>
<!DOCTYPE svg PUBLIC "-//W3C//DTD SVG 20010904//EN"
 "http://www.w3.org/TR/2001/REC-SVG-20010904/DTD/svg10.dtd">
<svg version="1.0" xmlns="http://www.w3.org/2000/svg"
 width="1920.000000pt" height="1100.000000pt" viewBox="0 0 1920.000000 1100.000000"
 preserveAspectRatio="xMidYMid meet">

<g transform="translate(0.000000,1100.000000) scale(0.100000,-0.100000)"
fill="#fff" stroke="none">
<path d="M4349 9814 c-9 -11 -51 -73 -94 -138 -170 -264 -362 -526 -519 -710
l-51 -59 0 -120 0 -119 29 -25 c29 -25 32 -25 140 -19 61 3 197 7 301 8 l190
3 -1 -60 c0 -33 -4 -103 -8 -156 -10 -116 -22 -109 176 -109 155 0 172 7 164
63 -3 18 -8 80 -11 138 -8 131 -6 132 102 127 l78 -3 3 129 3 129 -96 -7 -95
-7 0 238 c0 131 5 325 12 432 12 187 11 194 -7 207 -31 23 -174 65 -240 71
-50 4 -63 2 -76 -13z m32 -410 c-5 -55 -13 -197 -17 -316 l-6 -218 -209 0
c-128 0 -209 4 -209 10 0 5 90 131 199 279 110 148 209 288 221 311 12 23 24
40 26 37 3 -3 1 -49 -5 -103z"/>
<path d="M7049 9814 c-9 -11 -58 -82 -109 -159 -166 -250 -316 -457 -430 -595
-61 -74 -115 -145 -121 -158 -5 -13 -9 -66 -9 -118 0 -105 14 -148 52 -157 13
-3 154 -2 313 3 170 5 294 5 299 -1 6 -5 3 -63 -7 -151 -11 -96 -13 -146 -6
-153 11 -11 278 -20 317 -10 l25 6 -8 154 -7 154 24 6 c12 3 55 5 93 3 l70 -3
3 129 3 129 -96 -7 -95 -7 0 275 c0 152 5 344 11 427 10 142 10 152 -7 170
-25 24 -165 69 -239 76 -51 4 -63 2 -76 -13z m31 -386 c-6 -40 -14 -182 -17
-315 l-6 -243 -214 0 c-117 0 -213 2 -213 5 0 2 96 134 213 293 117 159 219
304 227 322 19 47 24 23 10 -62z"/>
<path d="M5473 9795 c-164 -37 -311 -152 -412 -323 -105 -177 -134 -427 -77
-648 59 -227 230 -424 429 -494 78 -28 258 -38 350 -20 235 46 436 254 508
525 30 114 30 326 0 440 -63 239 -238 442 -438 506 -87 28 -269 35 -360 14z
m304 -315 c98 -48 175 -151 208 -275 19 -76 19 -214 0 -290 -33 -124 -124
-243 -223 -292 -49 -24 -69 -28 -142 -28 -69 1 -93 5 -130 24 -69 37 -105 67
-145 125 -132 191 -122 478 21 653 97 119 268 153 411 83z"/>
<path d="M10369 9026 c-87 -64 -133 -139 -150 -243 -6 -37 -13 -82 -16 -100
-11 -66 56 -190 133 -246 24 -18 43 -34 44 -37 1 -14 -483 -268 -610 -320 -30
-13 -66 -34 -79 -48 -22 -22 -23 -29 -18 -101 4 -42 9 -96 12 -121 6 -44 5
-45 -34 -69 -68 -41 -101 -77 -101 -108 0 -16 16 -91 35 -168 28 -110 38 -172
45 -290 5 -82 16 -179 24 -215 9 -36 18 -75 21 -87 3 -12 27 -37 53 -54 98
-66 102 -73 102 -163 0 -45 7 -155 15 -246 8 -91 15 -226 15 -301 l0 -137 51
-21 c68 -30 353 -136 407 -152 23 -7 40 -15 37 -18 -3 -2 -47 -4 -98 -2 -188
5 -475 -35 -742 -103 -242 -63 -419 -140 -580 -254 -116 -83 -320 -290 -380
-385 -51 -83 -110 -240 -121 -320 -4 -26 -8 -46 -10 -44 -2 2 -9 30 -15 63
-15 78 -32 110 -70 123 -61 21 -118 -22 -166 -124 -23 -51 -27 -73 -28 -145 0
-72 4 -93 25 -135 38 -75 130 -129 250 -149 27 -5 38 -13 49 -37 17 -39 127
-176 151 -189 17 -9 17 -13 3 -57 -20 -67 -28 -252 -14 -343 34 -214 203 -390
418 -435 54 -11 98 -12 214 -5 80 5 152 12 161 15 10 4 18 -5 26 -33 29 -95
129 -182 210 -182 53 0 190 52 215 81 18 22 22 109 8 174 -6 29 -9 30 -66 35
-52 4 -61 8 -75 33 -14 27 -14 29 16 56 54 49 170 62 201 23 10 -11 9 -22 -2
-50 -16 -36 -19 -89 -9 -117 4 -8 20 -23 36 -31 69 -36 204 32 237 119 21 54
13 127 -20 197 -63 134 -137 189 -237 177 -26 -3 -54 -8 -63 -12 -10 -4 -22 2
-32 18 -14 22 -14 30 -2 71 54 179 7 373 -124 505 -125 128 -293 182 -497 159
l-86 -9 -45 45 -44 45 24 38 c37 56 50 109 44 168 -6 61 -24 100 -69 151 l-33
37 50 44 c196 172 635 303 1020 303 l122 0 6 -57 c18 -166 39 -617 29 -621 -6
-2 -36 -21 -67 -44 -42 -30 -55 -45 -53 -61 5 -34 34 -31 85 8 l48 37 3 -39
c1 -21 9 -90 17 -153 8 -63 19 -203 25 -310 5 -107 17 -235 26 -285 11 -63 17
-158 18 -315 2 -222 2 -225 -21 -256 -13 -17 -29 -54 -36 -83 -11 -48 -14 -52
-57 -68 -101 -36 -242 -94 -360 -146 -129 -58 -246 -106 -505 -207 -162 -64
-165 -64 -165 3 0 21 -9 55 -20 77 -11 22 -20 47 -20 58 0 25 -19 42 -47 42
-13 0 -49 13 -81 29 -77 38 -173 72 -317 111 -66 17 -136 38 -155 45 -19 7
-60 18 -90 24 -68 14 -127 -1 -205 -53 -30 -19 -66 -38 -82 -42 -15 -4 -34
-11 -40 -17 -19 -14 -16 -70 6 -130 11 -28 57 -156 104 -283 91 -247 121 -342
132 -414 4 -25 16 -74 27 -110 27 -87 65 -122 158 -150 40 -12 89 -30 109 -40
20 -11 70 -24 111 -30 41 -7 153 -34 248 -60 104 -30 180 -46 191 -42 28 11
131 111 131 128 0 8 10 18 23 23 12 5 72 27 132 49 61 22 117 43 126 47 12 4
19 -4 28 -36 7 -22 10 -43 8 -45 -3 -3 -34 0 -71 7 -77 13 -99 8 -94 -23 3
-20 14 -24 93 -38 100 -18 115 -24 115 -46 0 -8 -3 -13 -8 -10 -4 2 -55 10
-112 16 -58 6 -129 18 -159 26 -46 13 -56 13 -68 1 -21 -20 -5 -45 35 -57 21
-6 87 -17 147 -25 196 -25 193 -24 204 -58 6 -16 11 -33 11 -37 0 -10 -61 2
-223 45 -160 42 -191 43 -195 2 -3 -23 0 -27 23 -27 29 0 150 -29 254 -61 35
-10 85 -19 112 -19 40 0 49 -3 49 -17 0 -10 3 -29 7 -42 6 -23 5 -23 -38 -16
-48 8 -264 62 -371 94 -37 10 -98 22 -135 26 -37 4 -101 13 -142 22 -84 16
-104 13 -99 -19 3 -20 14 -25 83 -40 44 -9 96 -17 116 -17 34 -1 89 -14 329
-78 52 -14 135 -33 184 -42 72 -13 90 -21 96 -37 8 -19 6 -20 -49 -12 -31 5
-112 20 -181 33 -163 32 -366 59 -386 51 -9 -3 -14 -15 -12 -28 3 -21 13 -24
153 -44 83 -12 182 -29 221 -37 39 -9 118 -24 175 -32 73 -12 110 -23 126 -37
14 -13 44 -23 92 -29 39 -4 92 -19 118 -32 51 -26 322 -114 435 -143 60 -14
66 -18 58 -34 -13 -25 -3 -49 24 -55 157 -37 283 -45 293 -19 10 27 -11 35
-133 51 -65 9 -114 17 -109 19 6 1 21 5 35 8 14 3 35 15 48 26 22 20 24 21
130 6 59 -9 131 -20 161 -26 61 -11 71 -8 71 25 0 21 -7 24 -87 38 -49 9 -114
19 -145 23 -51 6 -56 8 -46 24 14 22 74 33 100 19 11 -6 77 -17 146 -25 70 -8
162 -24 205 -34 43 -11 82 -18 88 -15 16 10 10 44 -10 54 -22 12 -209 48 -296
57 l-60 6 60 24 c33 14 66 22 75 19 8 -4 63 -10 122 -15 59 -5 125 -14 147
-21 47 -14 71 -7 71 20 0 16 -12 24 -52 36 -28 8 -70 16 -92 16 -23 1 -54 4
-71 8 -26 5 -18 9 62 34 75 22 97 25 120 16 15 -6 71 -19 123 -29 99 -19 120
-15 120 21 0 14 -13 20 -57 29 -32 6 -74 15 -93 19 l-35 8 44 20 c40 17 50 18
104 7 33 -7 89 -16 123 -20 64 -6 64 -6 64 20 0 28 -7 31 -95 45 l-50 7 38 19
c36 18 41 18 166 0 71 -10 136 -15 145 -12 22 8 20 44 -1 51 -10 2 -43 7 -73
11 -93 11 -99 15 -59 35 32 17 42 17 157 3 128 -15 152 -14 152 11 0 23 -33
36 -107 43 l-67 6 41 18 c31 13 50 15 80 8 21 -4 80 -12 131 -15 l92 -7 0 25
c0 29 -15 38 -68 39 -20 0 -46 4 -56 8 -16 6 -13 10 23 25 37 14 54 15 123 6
44 -6 91 -16 106 -21 34 -13 52 -5 52 25 0 20 -7 27 -37 35 -21 6 -48 11 -60
11 -42 0 -33 18 14 28 30 7 65 7 93 2 76 -15 150 -12 157 6 9 24 -9 34 -82 45
-75 10 -84 14 -68 30 7 7 44 4 119 -10 75 -15 140 -20 209 -19 55 2 126 -1
158 -6 57 -9 57 -9 57 17 0 22 -6 28 -37 36 -21 6 -45 11 -53 11 -11 0 -10 5
5 19 19 18 24 18 85 5 36 -7 86 -14 113 -14 43 0 47 2 47 24 0 26 -7 29 -105
41 -69 9 -79 16 -65 46 l11 25 86 -18 c48 -9 111 -20 140 -24 l55 -7 -4 29
c-3 32 -4 32 -160 59 l-98 17 0 35 c0 33 2 35 28 30 15 -4 87 -20 160 -37 152
-34 180 -36 189 -14 10 27 -19 40 -167 72 -215 47 -217 48 -223 80 -3 15 -3
29 -1 31 2 2 96 -20 208 -48 113 -29 210 -50 216 -46 5 3 10 16 10 29 0 20
-16 26 -232 80 -128 32 -240 60 -248 63 -8 2 23 20 69 38 138 55 126 4 129
513 3 416 -4 641 -29 976 -12 163 -6 256 16 256 7 0 20 7 29 15 14 14 21 13
76 -15 91 -46 252 -96 368 -116 142 -23 445 -15 621 16 348 61 619 174 792
328 143 127 256 345 305 585 24 118 30 434 9 513 -22 83 -20 100 13 113 15 6
47 29 72 50 l44 38 38 -15 c37 -15 40 -14 69 7 23 18 40 22 65 18 47 -8 96 8
129 43 16 16 35 30 42 30 8 0 112 -36 231 -81 278 -104 869 -319 1035 -376 93
-33 151 -47 207 -50 74 -5 79 -4 104 20 71 71 2 164 -196 262 -156 79 -243
113 -463 185 -104 34 -302 109 -440 165 -137 57 -277 114 -310 127 -59 24 -60
25 -57 60 6 62 -19 102 -80 131 -32 15 -60 37 -68 53 -9 15 -37 37 -70 53 -61
29 -61 29 -78 159 -18 127 -68 197 -161 222 -59 15 -266 40 -425 50 -175 11
-180 9 -190 -72 -4 -29 -9 -55 -11 -59 -5 -7 -319 92 -365 116 -16 8 -60 26
-98 40 -57 21 -77 23 -115 16 -104 -19 -183 -97 -227 -226 -44 -125 -36 -242
22 -340 27 -46 35 -52 112 -82 45 -17 111 -37 147 -43 100 -18 251 -57 289
-74 34 -16 31 -16 -78 -11 -97 5 -119 3 -156 -14 -50 -22 -120 -107 -131 -159
-17 -81 108 -233 250 -303 107 -53 205 -73 318 -65 l87 7 0 -35 c0 -21 -6 -36
-15 -40 -20 -7 -19 -31 1 -51 14 -14 16 -30 11 -98 -36 -453 -397 -726 -932
-705 -209 9 -330 61 -657 285 l-168 114 0 88 c0 100 -11 144 -49 185 -39 43
-75 54 -217 66 -71 6 -133 15 -138 21 -6 5 -25 9 -43 9 -42 0 -183 31 -183 40
0 4 73 60 163 124 90 63 232 173 315 242 l152 127 -5 51 c-2 28 -7 135 -10
237 l-6 186 31 13 c46 19 108 95 125 154 11 34 19 128 25 281 6 127 14 286 20
355 16 202 -11 306 -93 359 l-37 24 0 91 c0 49 5 140 11 202 7 61 9 123 5 138
-8 33 -49 54 -144 72 -42 8 -130 30 -195 50 -64 19 -159 44 -210 55 -50 11
-122 29 -159 40 -66 19 -68 21 -68 52 0 41 33 114 68 150 35 37 89 65 144 73
l43 7 -28 -23 c-97 -78 -61 -200 60 -200 21 0 56 9 79 19 75 34 107 100 80
164 l-14 36 30 6 c17 4 78 5 137 4 l106 -4 0 24 c0 36 -46 45 -185 36 -63 -4
-162 -6 -220 -5 -86 1 -116 -2 -162 -20 -98 -36 -182 -140 -195 -241 -5 -35
-9 -40 -27 -35 -12 3 -113 26 -226 51 -209 47 -462 111 -830 210 -112 30 -267
67 -343 82 l-139 28 -57 -32 c-31 -17 -106 -50 -166 -73 -61 -22 -138 -56
-173 -76 -44 -24 -71 -33 -85 -28 -32 10 -126 104 -148 146 l-19 38 32 -20
c88 -54 214 4 225 103 5 38 1 48 -24 77 -24 26 -39 33 -79 37 -30 3 -66 -1
-94 -11 -24 -8 -45 -14 -47 -13 -1 1 6 21 17 44 22 49 79 115 126 144 23 14
34 28 34 45 0 35 -35 31 -91 -10z m79 -272 c28 -19 28 -45 0 -72 -49 -45 -118
-41 -144 9 -19 38 -9 52 46 67 51 15 73 14 98 -4z m677 -228 c83 -19 281 -70
441 -115 160 -45 410 -108 555 -140 400 -90 354 -72 380 -150 33 -99 56 -141
80 -141 32 0 32 22 -1 104 -16 42 -30 78 -30 80 0 4 223 -53 522 -132 l107
-29 -157 -82 c-219 -115 -294 -161 -440 -270 -70 -52 -164 -118 -209 -147
l-82 -51 -118 42 c-98 36 -833 247 -1038 299 -205 51 -705 144 -1010 186 -121
17 -230 33 -243 36 -18 4 16 24 150 93 95 48 245 128 333 178 204 115 265 146
384 192 53 21 114 47 136 59 53 28 65 27 240 -12z m1797 -57 c16 -22 17 -29 7
-52 -13 -29 -63 -57 -102 -57 -24 0 -57 23 -57 39 0 29 98 105 124 97 6 -1 18
-14 28 -27z m-2999 -544 c89 -13 241 -36 337 -50 295 -44 849 -159 1075 -223
116 -33 318 -90 450 -127 132 -37 290 -86 351 -108 l111 -40 6 -426 c4 -234
11 -453 16 -486 26 -162 40 -1076 17 -1127 -7 -16 -11 -16 -59 4 -144 58 -337
119 -448 143 -68 14 -164 39 -214 54 -103 33 -485 140 -720 201 -332 87 -576
164 -821 259 l-81 31 -7 193 c-9 286 -32 584 -50 655 -18 73 -47 299 -76 597
-11 116 -26 255 -34 310 -20 134 -23 165 -18 165 2 0 77 -11 165 -25z m3306
-32 c-4 -27 -8 -80 -8 -119 -1 -39 -4 -92 -7 -116 l-6 -46 -39 5 c-32 5 -49
-1 -106 -35 -102 -60 -299 -166 -375 -200 -36 -16 -73 -41 -82 -54 -14 -22
-17 -85 -20 -514 -2 -303 0 -505 7 -532 14 -63 46 -84 123 -80 34 2 61 1 59
-2 -5 -7 -65 -38 -97 -49 -30 -11 -38 -45 -14 -54 23 -9 55 3 191 74 143 75
284 134 294 123 3 -4 -1 -9 -9 -12 -8 -3 -108 -53 -222 -111 -175 -88 -208
-109 -208 -127 0 -12 7 -25 16 -28 9 -3 99 37 220 100 133 69 204 101 204 91
0 -8 -79 -53 -196 -111 -173 -85 -195 -99 -192 -119 2 -12 10 -23 20 -25 9 -2
93 36 188 83 95 47 175 83 178 80 4 -3 8 -37 10 -74 l4 -68 -113 -98 c-63 -53
-159 -129 -214 -168 -55 -39 -138 -97 -185 -130 -47 -33 -124 -93 -171 -134
-47 -40 -90 -73 -94 -73 -4 0 -5 33 -2 73 8 116 -11 848 -27 1007 -21 201 -31
915 -14 930 7 5 61 41 120 79 59 39 155 107 215 152 109 82 137 99 408 245 82
45 150 82 151 83 0 0 -3 -20 -7 -46z m-3519 -238 c0 -44 34 -387 55 -553 30
-234 30 -231 9 -211 -29 29 -55 158 -64 319 -7 121 -16 179 -39 265 -38 136
-38 148 -3 174 32 24 42 26 42 6z m3569 -151 c17 -10 31 -21 31 -24 0 -3 -56
-31 -123 -62 -67 -31 -180 -84 -251 -117 -71 -34 -133 -61 -138 -61 -4 0 -27
13 -49 30 l-41 30 28 10 c16 5 43 17 59 26 17 9 88 48 159 85 70 38 140 78
155 89 21 17 37 20 83 16 31 -2 70 -12 87 -22z m72 -141 c4 -27 3 -93 -2 -148
-6 -55 -16 -213 -23 -350 -18 -338 -18 -338 -237 -429 -57 -23 -141 -62 -186
-84 -45 -23 -100 -46 -122 -51 l-41 -9 0 71 c0 70 20 367 40 588 9 98 31 215
42 223 23 18 193 102 259 130 47 19 123 53 169 75 46 23 86 39 88 36 3 -3 9
-26 13 -52z m-621 -156 c18 -13 27 -28 24 -37 -16 -42 -34 -184 -44 -336 -6
-93 -15 -218 -20 -279 -6 -60 -10 -144 -11 -185 -1 -54 -3 -65 -8 -40 -3 19
-5 232 -3 473 3 482 -1 454 62 404z m1740 -439 c85 -43 121 -181 72 -274 -68
-132 -236 -218 -290 -149 -85 108 -33 348 93 426 39 25 71 24 125 -3z m935
-48 c77 -11 145 -20 152 -20 24 0 80 -60 91 -98 20 -65 35 -242 29 -347 -9
-186 -99 -385 -214 -477 -45 -35 -50 -35 -58 1 -5 23 -13 30 -39 35 -75 14
-226 -23 -323 -80 -38 -22 -43 -29 -43 -60 l0 -36 -122 4 c-95 3 -136 9 -179
26 -103 41 -101 47 13 47 96 0 109 3 183 35 256 113 438 326 490 575 32 152 1
280 -89 369 -25 26 -42 46 -38 46 4 0 70 -9 147 -20z m-262 -22 c193 -97 223
-313 78 -557 -80 -135 -184 -226 -348 -303 -77 -37 -97 -42 -158 -43 -82 0
-113 13 -204 86 l-63 51 32 33 c37 38 51 36 81 -11 11 -19 33 -37 47 -42 15
-4 88 -7 162 -7 133 0 137 1 203 33 78 38 128 94 175 195 45 94 62 162 62 244
0 112 -21 153 -117 225 -56 41 -66 68 -41 108 14 22 28 20 91 -12z m-371 -38
c84 -27 169 -60 189 -72 59 -37 139 -99 139 -108 0 -5 -24 1 -52 14 -50 22
-89 35 -256 86 -69 22 -74 22 -90 6 -16 -16 -16 -18 5 -35 11 -10 65 -30 120
-46 165 -46 303 -108 303 -136 0 -27 -20 -112 -29 -128 -7 -11 -34 -6 -147 32
-77 25 -168 53 -203 61 -36 9 -70 21 -78 27 -19 17 -43 3 -43 -25 0 -28 37
-49 115 -66 64 -14 307 -91 319 -101 8 -7 -29 -79 -40 -79 -3 0 -21 8 -42 19
-20 10 -53 22 -72 26 -19 4 -73 22 -120 40 -74 29 -230 68 -355 90 l-40 7 37
19 c53 27 131 109 159 166 27 55 38 173 21 223 -6 16 -7 30 -2 30 5 0 78 -22
162 -50z m1038 -355 c19 -23 7 -177 -18 -243 -24 -62 -91 -168 -127 -202 -31
-30 -31 -22 0 40 54 106 89 229 101 348 7 73 18 88 44 57z m454 -366 c285
-120 341 -141 591 -223 105 -35 250 -91 323 -126 121 -58 131 -65 117 -80 -8
-9 -15 -26 -15 -38 l0 -21 -67 23 c-38 13 -104 38 -148 56 -44 18 -138 52
-210 76 -168 57 -867 315 -878 325 -10 8 24 109 36 109 5 0 118 -46 251 -101z
m-5848 -240 c-62 -57 -76 -99 -32 -99 13 0 30 7 37 17 30 36 131 113 141 107
5 -4 -16 -32 -48 -65 -48 -49 -57 -62 -48 -76 19 -31 33 -25 99 38 71 69 90
82 108 76 7 -2 -16 -31 -51 -66 -46 -45 -62 -68 -60 -84 6 -42 35 -30 111 47
68 70 101 89 121 69 3 -4 -17 -30 -45 -59 -33 -33 -50 -58 -47 -70 7 -38 39
-27 108 40 68 66 78 71 114 57 15 -6 6 -17 -58 -66 -58 -44 -76 -64 -74 -79 2
-12 11 -22 21 -24 17 -3 119 71 166 122 18 20 30 24 50 20 46 -11 44 -20 -18
-74 -64 -55 -71 -69 -46 -90 19 -15 39 -3 124 75 47 44 65 55 81 50 19 -6 14
-13 -44 -67 -46 -42 -66 -67 -66 -84 0 -43 37 -28 118 47 70 65 77 69 89 53
12 -17 9 -21 -31 -41 -49 -25 -77 -58 -69 -79 6 -16 49 -19 58 -4 4 6 24 19
46 31 39 20 40 20 64 1 22 -17 23 -21 10 -32 -20 -16 -19 -59 1 -67 9 -3 26 5
43 21 30 29 38 31 78 15 l28 -10 -24 -18 c-27 -21 -25 -55 4 -59 12 -2 38 12
62 33 23 19 47 33 55 31 7 -2 26 -7 42 -11 l29 -6 -28 -29 c-51 -53 -5 -93 48
-43 39 37 68 53 98 53 21 0 20 -3 -14 -34 -40 -36 -40 -37 -31 -60 10 -26 31
-19 96 34 111 90 134 103 165 95 l28 -7 -62 -59 c-60 -56 -78 -92 -50 -102 20
-7 48 12 113 75 51 49 66 59 84 53 21 -7 19 -10 -29 -52 -42 -36 -51 -51 -49
-72 4 -36 40 -40 58 -6 15 29 95 85 120 85 9 0 31 -5 47 -10 23 -8 40 -7 72 3
22 8 41 13 41 12 0 -6 -131 -86 -156 -95 -19 -7 -25 -16 -22 -33 5 -36 45 -33
113 9 221 137 320 194 337 194 11 0 17 -4 14 -9 -3 -5 -65 -50 -138 -100 -164
-112 -178 -124 -178 -149 0 -33 30 -35 69 -4 20 16 79 57 131 92 52 35 121 83
153 108 l58 44 70 -7 c38 -4 71 -10 74 -14 2 -4 -15 -18 -38 -31 -46 -26 -221
-140 -250 -164 -22 -17 -19 -49 5 -54 10 -2 69 31 133 73 64 42 143 91 175
108 38 21 60 38 60 50 0 16 6 17 53 11 97 -13 98 -15 28 -70 -101 -78 -484
-324 -506 -324 -67 0 -413 113 -495 161 -82 49 -155 73 -289 99 -127 24 -217
53 -411 131 -113 45 -180 65 -305 89 -222 43 -256 53 -455 126 -223 83 -301
115 -298 124 4 12 152 130 161 130 5 0 -17 -23 -47 -51z m4923 -6 c17 -63 33
-144 29 -147 -1 -2 -65 -9 -140 -17 l-138 -15 0 51 c0 27 -3 60 -6 72 -5 17 1
25 28 39 51 27 139 53 180 53 35 1 38 -2 47 -36z m-5199 -7 c0 -2 -9 -24 -20
-49 -21 -48 -29 -163 -15 -220 6 -24 4 -27 -16 -27 -13 0 -47 -3 -75 -6 l-52
-7 -12 38 c-15 46 -10 229 8 247 17 17 182 39 182 24z m-251 -46 c-10 -27 -9
-216 2 -250 3 -11 -10 -16 -56 -22 -58 -7 -61 -6 -87 22 -33 36 -58 116 -58
187 0 60 -10 53 125 77 44 8 81 15 82 15 1 1 -3 -12 -8 -29z m-227 -229 c12
-25 22 -50 22 -55 1 -5 -43 -19 -98 -32 -94 -23 -99 -23 -112 -7 -24 32 -56
127 -61 185 l-6 57 44 12 c24 6 73 19 109 29 l65 16 8 -79 c4 -46 16 -99 29
-126z m783 79 c44 -15 106 -39 138 -54 98 -43 210 -75 417 -116 153 -31 221
-49 305 -85 158 -66 327 -121 430 -140 138 -25 192 -43 290 -95 86 -46 266
-108 445 -155 l85 -22 12 -64 c7 -35 12 -109 13 -164 0 -54 5 -147 10 -205 27
-281 40 -435 45 -540 4 -63 18 -171 33 -240 21 -102 26 -155 28 -285 4 -412
26 -783 53 -897 5 -21 6 -38 2 -38 -3 0 -58 18 -121 39 -63 22 -169 56 -234
76 -66 20 -194 68 -285 107 -91 38 -256 105 -366 149 -110 44 -240 102 -290
129 -184 103 -248 129 -421 174 -94 25 -245 74 -335 110 -91 36 -189 71 -217
77 l-52 12 0 196 c0 147 -5 227 -20 321 -11 69 -25 213 -30 320 -5 107 -16
245 -25 305 -8 61 -15 127 -15 148 0 40 7 43 67 31 l30 -6 -19 -36 c-27 -53
-24 -107 8 -139 22 -22 32 -25 70 -20 91 10 124 91 70 170 l-25 36 54 12 c79
18 103 8 109 -44 27 -217 41 -446 38 -650 l-2 -228 -49 -48 c-27 -26 -61 -71
-75 -99 -65 -128 -7 -296 109 -318 46 -8 67 1 63 28 -2 15 -13 24 -38 31 -78
20 -124 101 -101 179 13 43 57 114 84 136 12 11 17 8 25 -16 12 -35 51 -55
152 -78 41 -9 124 -38 185 -64 134 -57 288 -114 590 -218 127 -44 271 -95 320
-113 103 -37 125 -35 125 13 0 18 9 112 20 208 11 96 20 209 20 251 l0 76 40
7 c23 3 49 2 60 -4 17 -9 60 -61 60 -72 0 -3 -18 -10 -39 -17 -22 -6 -49 -23
-60 -38 -27 -34 -28 -94 -1 -118 42 -38 136 8 156 76 l9 30 45 -24 c61 -32 98
-102 84 -156 -13 -47 -8 -61 21 -61 17 0 26 8 34 31 23 65 5 138 -47 192 -29
31 -92 67 -115 67 -8 0 -27 25 -41 54 -35 72 -80 100 -154 99 -51 -1 -54 0
-48 20 3 12 8 112 11 222 3 110 10 278 17 372 12 189 9 209 -38 239 -14 10
-50 26 -78 36 -38 13 -44 17 -24 18 55 0 90 97 53 146 -8 10 -15 22 -15 26 0
9 59 28 90 28 32 0 126 -46 134 -65 3 -8 17 -15 31 -15 78 0 0 96 -102 126
-49 14 -67 15 -113 6 -30 -7 -67 -21 -82 -32 -15 -11 -37 -20 -50 -20 -51 0
-125 -69 -149 -139 -11 -31 -13 -32 -53 -26 -106 18 -356 88 -496 140 -344
127 -604 216 -618 210 -12 -4 -13 -24 -8 -118 4 -61 9 -137 12 -167 l5 -55
-68 0 c-49 0 -79 -6 -108 -21 -30 -16 -46 -19 -64 -12 -14 5 -47 12 -75 16
l-51 7 -7 115 c-18 292 -31 487 -42 631 l-11 156 45 -19 c25 -11 81 -33 125
-48z m-1050 -153 c13 -29 21 -55 17 -58 -8 -7 -105 -40 -107 -36 -1 1 -16 29
-35 62 -18 33 -48 82 -67 108 -20 26 -33 50 -31 53 3 2 43 20 89 38 l84 34 12
-75 c7 -41 24 -98 38 -126z m5994 2 l1 -66 -43 -17 c-54 -20 -110 -20 -192 0
l-65 16 0 89 0 88 33 6 c17 3 82 12 142 18 l110 12 7 -40 c3 -22 7 -70 7 -106z
m-6219 11 c20 -30 47 -73 58 -96 l21 -41 -43 -21 -43 -21 -12 27 c-24 51 -72
101 -122 126 l-51 25 62 41 c72 46 71 46 130 -40z m-154 -91 c20 -12 50 -43
66 -68 l29 -46 -27 -20 c-15 -11 -44 -35 -64 -52 -37 -33 -37 -33 -55 -13 -22
25 -151 90 -176 90 -11 0 -19 3 -19 8 0 4 30 35 67 70 63 58 71 62 105 58 21
-2 54 -14 74 -27z m4154 -129 l0 -55 -71 -39 c-85 -46 -126 -81 -183 -155 -51
-67 -72 -105 -96 -180 -17 -50 -17 -59 -4 -78 7 -12 24 -28 36 -35 22 -12 22
-13 -12 -18 -29 -4 -35 -9 -35 -30 0 -24 2 -25 63 -22 42 2 69 -2 83 -12 20
-13 17 -15 -37 -21 -33 -3 -66 -7 -74 -8 -9 -1 -15 -13 -15 -27 0 -24 3 -25
55 -24 30 0 80 4 110 8 81 10 27 -11 -70 -28 -65 -11 -75 -15 -78 -34 -6 -39
2 -39 217 -2 54 9 67 9 79 -4 18 -17 14 -19 -113 -37 -125 -17 -171 -45 -132
-77 9 -8 28 -7 68 3 69 18 189 34 189 25 0 -4 -39 -17 -87 -29 -135 -35 -138
-36 -141 -59 -2 -13 3 -25 12 -28 12 -5 160 27 204 43 8 3 12 -4 12 -21 0 -22
-7 -27 -52 -40 -29 -8 -68 -18 -85 -21 -26 -5 -33 -11 -33 -31 0 -21 4 -24 38
-24 22 0 60 6 85 14 l47 14 0 -38 0 -39 -60 -7 c-69 -8 -96 -23 -86 -49 5 -15
15 -17 79 -10 l73 6 14 -173 c9 -112 14 -351 14 -676 1 -434 -1 -504 -14 -512
-8 -5 -50 -21 -93 -36 -61 -20 -90 -37 -135 -78 -81 -74 -121 -101 -126 -84
-6 17 -23 103 -31 151 -8 47 -27 563 -30 787 -2 136 -7 186 -29 289 -16 74
-31 183 -36 270 -5 80 -17 236 -25 346 -9 110 -20 274 -25 365 -4 91 -11 181
-14 200 -7 34 -5 36 56 74 115 73 342 225 408 274 42 31 68 45 72 38 4 -6 8
-36 8 -66z m1980 65 c63 -17 167 -20 204 -5 23 8 26 7 26 -13 0 -40 -38 -208
-51 -223 -7 -8 -30 -14 -56 -14 -47 0 -229 44 -249 61 -8 7 -3 31 17 90 16 44
29 89 29 100 0 23 8 23 80 4z m-1892 -274 l24 -17 -40 -26 c-71 -48 -164 -170
-197 -259 l-21 -59 -63 51 c-55 45 -62 54 -56 78 18 74 125 208 202 254 l58
34 35 -19 c19 -10 45 -27 58 -37z m-4393 18 c87 -32 142 -90 166 -173 12 -43
-5 -90 -57 -159 -24 -31 -44 -63 -44 -70 0 -17 25 -39 66 -60 17 -9 56 -46 88
-84 32 -37 92 -97 134 -133 42 -36 91 -86 109 -110 19 -25 53 -70 77 -101 38
-48 43 -60 38 -88 l-7 -32 -95 106 c-52 59 -137 163 -187 231 -51 67 -109 134
-130 148 -82 56 -160 18 -150 -71 7 -64 58 -139 201 -296 70 -78 194 -217 274
-309 80 -92 154 -170 164 -174 30 -9 98 6 119 27 34 34 25 80 -32 156 -29 37
-72 90 -98 117 -40 41 -42 47 -21 41 92 -27 161 -74 265 -182 87 -90 102 -96
186 -73 24 7 46 7 62 1 79 -30 159 -196 125 -261 -16 -29 -73 -70 -99 -70 -17
0 -17 3 -4 41 22 62 19 103 -11 138 -49 58 -173 66 -280 17 -71 -33 -96 -73
-91 -144 5 -65 41 -108 105 -125 31 -8 44 -18 48 -34 8 -31 3 -36 -77 -68
l-71 -29 -36 19 c-39 21 -102 113 -102 148 0 11 16 37 34 58 36 39 61 105 51
132 -4 8 -16 19 -28 25 -33 15 -177 123 -177 132 0 5 -28 39 -63 77 -34 37
-73 84 -86 103 -14 19 -74 87 -135 150 -74 77 -129 145 -165 205 -30 49 -75
110 -101 136 -64 64 -114 79 -260 79 -259 0 -376 91 -336 263 15 62 63 144 76
131 5 -5 14 -40 20 -78 14 -86 29 -122 70 -170 43 -49 92 -73 176 -86 117 -19
213 4 288 70 101 90 111 226 23 326 -42 48 -80 70 -167 100 -54 18 -54 18 -25
25 41 10 109 1 170 -22z m6230 -26 c44 -14 110 -28 147 -31 l66 -7 -29 -65
c-48 -103 -101 -180 -125 -180 -34 0 -196 85 -244 128 -65 57 -54 71 57 74
l88 2 -78 3 -77 4 42 55 c30 40 45 53 57 48 9 -4 52 -18 96 -31z m-4269 -7
c38 -13 185 -67 326 -120 273 -102 395 -139 576 -176 l112 -23 0 -70 c0 -67
-1 -69 -22 -64 -13 3 -85 17 -162 32 -145 27 -194 43 -366 118 -58 25 -141 55
-185 68 -44 12 -131 39 -193 60 -62 22 -122 39 -133 39 -11 0 -21 6 -23 13
-10 29 -16 147 -8 147 5 0 40 -11 78 -24z m2591 -92 l64 -46 -53 -57 c-29 -31
-68 -84 -85 -118 -35 -65 -68 -176 -59 -199 3 -8 3 -14 0 -14 -10 0 -84 53
-84 61 0 4 -10 11 -22 14 -13 4 -38 18 -55 32 -26 19 -33 31 -33 57 0 74 107
229 199 288 25 15 49 28 54 28 5 0 38 -21 74 -46z m-4697 -54 c63 -17 70 -28
57 -86 l-10 -51 -111 -6 c-61 -3 -122 -9 -135 -13 -23 -7 -23 -6 -16 37 14 91
24 117 48 122 43 8 132 7 167 -3z m6253 -121 c32 -17 81 -39 108 -49 l50 -17
-68 -55 c-147 -118 -167 -123 -260 -54 -75 55 -118 107 -131 158 -10 38 -9 41
20 56 16 10 50 31 75 49 l46 32 50 -44 c28 -24 77 -58 110 -76z m-1354 48 l80
-43 -44 -60 c-57 -75 -75 -134 -75 -247 l0 -89 -27 7 c-16 3 -65 22 -110 42
-78 33 -83 38 -93 74 -13 47 -1 97 41 182 27 52 124 174 140 176 4 1 43 -18
88 -42z m1029 -159 c23 -37 96 -103 152 -137 l34 -20 -50 -21 c-100 -44 -188
-69 -201 -59 -35 30 -126 209 -135 267 -3 21 5 26 77 50 l80 27 11 -37 c6 -20
21 -52 32 -70z m-813 61 c36 -11 65 -24 65 -29 0 -4 -7 -27 -15 -50 -17 -47
-20 -220 -6 -282 8 -32 6 -38 -8 -38 -40 0 -206 32 -218 42 -17 14 -17 180 1
228 14 41 92 150 107 150 5 0 39 -9 74 -21z m-3021 -126 c3 -54 13 -186 22
-293 9 -107 19 -255 21 -327 5 -116 4 -133 -10 -133 -8 0 -23 -3 -33 -7 -16
-6 -17 5 -11 162 4 123 1 232 -14 409 -24 309 -24 310 0 297 16 -9 20 -26 25
-108z m1286 64 c43 -21 45 -24 48 -71 4 -68 -4 -96 -28 -96 -11 0 -62 14 -114
30 -105 34 -106 35 -106 131 l0 56 78 -14 c42 -8 97 -24 122 -36z m2309 -44
c27 -79 68 -160 99 -196 8 -9 13 -19 10 -22 -5 -6 -161 -40 -221 -48 l-37 -6
-37 72 c-28 57 -37 87 -41 144 -2 39 -2 83 2 97 6 23 12 26 49 27 23 0 60 4
82 9 22 4 46 7 53 6 7 0 25 -38 41 -83z m-351 67 l67 0 -3 -70 c-4 -82 10
-156 42 -226 l24 -51 -52 -7 c-28 -3 -81 -6 -118 -6 l-66 0 -11 48 c-19 78
-17 210 5 270 13 35 23 51 32 47 8 -3 44 -5 80 -5z m-4617 -166 c133 -39 255
-139 306 -251 29 -62 41 -167 29 -247 l-7 -45 -81 54 c-44 30 -96 59 -115 66
-26 8 -33 15 -27 28 24 59 32 102 23 134 -16 61 -88 107 -165 107 -19 0 -34 4
-34 9 0 5 -37 39 -81 76 -60 50 -78 70 -68 76 23 14 162 10 220 -7z m-429 -47
c24 -23 82 -94 130 -157 48 -63 143 -176 212 -250 157 -170 240 -275 232 -295
-3 -8 -16 -15 -29 -15 -18 0 -55 37 -159 158 -75 86 -182 207 -238 267 -120
130 -179 204 -209 263 -41 80 -6 97 61 29z m2080 -2 c17 -22 27 -25 71 -23 29
1 67 -5 85 -13 29 -12 36 -12 62 3 24 14 31 14 40 3 9 -11 7 -16 -9 -25 -25
-13 -27 -49 -7 -88 7 -15 17 -43 21 -62 4 -19 17 -43 28 -52 27 -21 17 -32
-21 -24 -28 7 -29 9 -28 64 1 100 -52 162 -148 170 -52 4 -58 2 -84 -26 -16
-17 -33 -46 -39 -64 -7 -22 -11 -26 -12 -13 0 11 8 35 19 53 24 39 25 58 5 78
-15 15 -21 44 -9 44 3 0 15 -11 26 -25z m-2240 -207 c18 -29 49 -77 69 -107
l36 -54 -19 -56 c-49 -137 16 -341 125 -398 47 -24 134 -12 195 25 l49 30 91
-67 c50 -36 91 -71 92 -77 0 -19 -55 -63 -100 -79 -33 -12 -87 -17 -205 -18
l-160 -2 -68 32 c-71 34 -164 114 -203 175 -13 20 -33 65 -45 100 -38 110 -29
327 18 423 22 44 77 125 86 125 4 0 22 -24 39 -52z m2785 -40 c10 -35 10 -35
110 -27 22 1 41 -6 63 -24 38 -32 44 -33 80 -7 36 26 48 10 15 -18 -29 -26
-32 -53 -8 -89 10 -14 17 -46 18 -72 0 -39 4 -47 26 -58 21 -10 25 -18 21 -38
-3 -18 -9 -24 -19 -21 -53 21 -62 18 -99 -23 -26 -28 -45 -41 -64 -41 -32 0
-50 -17 -50 -48 0 -20 -4 -23 -22 -18 -13 3 -29 6 -35 6 -8 0 -13 14 -13 38
l0 38 59 -1 c50 0 64 4 86 25 39 36 55 73 55 125 0 88 -55 145 -139 145 -59 0
-104 -30 -132 -86 -25 -53 -22 -122 7 -158 11 -12 4 -7 -13 11 -26 26 -33 41
-33 72 0 36 -3 41 -35 52 -51 19 -48 49 5 49 32 0 40 4 40 18 0 10 16 33 35
52 39 38 43 55 19 88 -8 12 -12 27 -9 32 11 18 22 10 32 -22z m-681 -483 c20
-8 84 -29 142 -45 59 -17 161 -55 227 -85 161 -72 415 -160 506 -175 41 -7
100 -23 131 -36 32 -13 69 -24 82 -24 33 0 39 -13 31 -60 l-7 -39 -111 41
c-62 22 -229 80 -372 130 -143 49 -330 119 -415 155 -85 35 -191 74 -237 85
-46 11 -83 23 -83 27 0 7 51 40 63 41 4 0 24 -7 43 -15z m-290 -510 c93 -37
218 -80 278 -95 59 -16 110 -31 112 -33 2 -1 -8 -37 -23 -78 -21 -62 -25 -85
-20 -144 3 -38 8 -78 12 -87 6 -14 2 -18 -18 -18 -26 0 -37 20 -37 71 0 47
-66 163 -123 217 -95 89 -248 152 -372 152 -105 0 -125 16 -89 69 15 21 23 23
64 18 26 -3 123 -36 216 -72z m-2031 -140 c88 -25 164 -45 169 -45 4 0 58 -21
119 -47 l110 -46 -29 -15 c-16 -8 -44 -27 -63 -43 -32 -26 -35 -27 -74 -13
-22 8 -81 34 -131 58 -89 44 -144 60 -353 106 -56 13 -100 27 -97 32 3 5 29
22 57 38 65 37 79 36 292 -25z m2031 -10 c95 -46 156 -102 193 -177 49 -96 39
-193 -20 -209 -26 -6 -27 -5 -33 40 -13 102 -156 328 -233 371 -36 20 -37 21
-8 15 17 -3 62 -21 101 -40z m-176 -5 c70 -35 86 -49 134 -112 64 -87 101
-158 121 -235 8 -31 14 -57 12 -59 -10 -8 -149 -74 -157 -74 -7 0 -8 17 -4 49
8 61 -27 232 -64 311 -14 30 -49 79 -78 108 -29 28 -51 52 -48 52 2 0 40 -18
84 -40z m-189 4 c112 -31 175 -111 215 -272 27 -108 29 -144 13 -206 -10 -41
-14 -45 -76 -69 l-65 -26 7 27 c4 15 9 66 12 114 6 103 -18 201 -69 280 -31
50 -131 147 -151 149 -15 1 23 17 42 18 8 1 41 -6 72 -15z m867 -5 l31 -11
-26 -40 c-19 -28 -28 -57 -31 -98 -4 -54 -2 -61 23 -84 65 -60 157 -13 190 96
10 34 13 37 29 25 43 -31 -34 -160 -119 -198 -71 -33 -147 -23 -171 22 -33 64
-29 168 11 263 17 40 19 41 63 25z m-1019 -53 c65 -34 142 -120 170 -192 37
-93 41 -253 8 -298 -10 -13 -18 -14 -52 -5 -22 6 -43 14 -47 17 -4 4 -14 43
-23 87 -36 174 -96 283 -187 334 l-49 28 58 26 c32 14 62 26 66 26 4 1 29 -10
56 -23z m-1690 -55 c96 -22 164 -45 245 -82 61 -29 128 -57 150 -64 l38 -11
69 -205 c52 -156 73 -235 89 -337 11 -73 31 -166 46 -205 14 -40 28 -80 31
-89 6 -19 17 -21 -177 36 -30 8 -87 20 -127 26 -40 5 -96 21 -125 35 -29 13
-79 31 -110 40 -40 11 -59 21 -63 35 -4 11 -10 20 -14 20 -10 0 -38 95 -55
190 -13 71 -68 234 -177 527 -27 72 -49 134 -49 137 0 3 21 -1 48 -9 26 -8
107 -28 181 -44z m1504 -43 c39 -21 71 -48 93 -78 30 -41 82 -176 98 -256 l7
-31 -94 25 -95 24 -12 42 c-22 75 -71 158 -122 209 -28 28 -47 52 -42 54 5 2
27 12 49 22 53 25 48 26 118 -11z m-855 -70 c6 -24 15 -74 22 -113 6 -38 26
-115 45 -170 19 -55 43 -153 54 -217 11 -65 29 -151 39 -190 36 -134 37 -129
-18 -183 l-49 -48 -6 29 c-4 16 -18 58 -32 93 -28 72 -47 159 -62 278 -10 80
-70 282 -117 395 -34 80 -31 100 14 131 40 28 83 47 93 41 3 -2 11 -23 17 -46z
m2427 32 l40 -19 -47 6 c-46 6 -48 5 -48 -20 0 -32 26 -41 170 -62 58 -8 129
-20 158 -26 46 -11 51 -15 46 -33 -4 -12 -8 -23 -9 -24 -3 -3 -56 7 -308 58
-27 6 -62 10 -78 10 -27 0 -30 -3 -27 -27 3 -24 9 -27 73 -40 350 -65 339 -62
300 -79 -36 -16 -95 -17 -155 -3 -24 5 -94 17 -155 25 -60 8 -125 19 -143 25
l-33 11 39 29 c53 39 93 98 116 172 7 21 10 21 61 -3z m-1778 -39 c23 -16 52
-45 66 -63 24 -32 77 -131 77 -144 0 -3 -20 -3 -44 0 -39 6 -63 2 -136 -27
-11 -4 -23 10 -43 53 -15 33 -47 81 -71 107 l-43 48 61 27 c33 15 68 28 77 28
9 0 34 -13 56 -29z m-218 -96 c21 -19 55 -67 76 -107 l38 -71 -24 -18 c-13
-10 -35 -19 -49 -19 -15 0 -31 -5 -38 -12 -6 -6 -13 -10 -14 -7 -2 2 -16 30
-32 62 -18 36 -50 77 -84 107 -31 28 -54 51 -51 54 8 6 114 45 126 45 7 1 30
-15 52 -34z m-215 -74 c48 -33 99 -88 120 -129 63 -122 81 -342 33 -406 -7 -8
-29 -22 -49 -31 l-38 -15 10 26 c39 102 -31 363 -134 497 -41 54 -43 62 -18
76 25 15 29 14 76 -18z m1742 3 c50 -11 106 -15 156 -12 75 5 78 4 78 -17 0
-28 37 -40 195 -60 66 -9 121 -18 124 -20 2 -3 -22 -17 -54 -31 l-58 -27 -141
12 c-194 16 -551 76 -511 85 50 12 76 29 91 58 17 33 18 33 120 12z m1139
-146 c184 -72 305 -219 292 -355 -6 -53 -29 -88 -64 -95 -15 -3 -20 7 -30 57
-17 81 -60 164 -136 266 -73 95 -86 108 -142 137 l-40 21 35 -6 c19 -3 58 -15
85 -25z m-2274 2 c35 -10 135 -39 221 -64 87 -25 193 -61 235 -81 l78 -36 -30
-16 c-16 -9 -43 -27 -58 -39 -35 -29 -53 -26 -162 28 -123 61 -195 86 -349
119 -77 17 -147 34 -154 38 -10 6 0 17 34 39 56 38 95 40 185 12z m1019 -15
c118 -19 267 -41 330 -48 l115 -13 -67 -28 c-63 -27 -71 -28 -125 -17 -32 6
-130 20 -218 31 -198 24 -355 51 -355 60 0 5 81 45 100 49 3 1 102 -15 220
-34z m1111 -16 c82 -41 119 -77 195 -191 57 -85 83 -146 91 -207 l6 -49 -59
-30 c-33 -16 -75 -36 -95 -45 l-35 -14 8 61 c8 59 -7 161 -44 286 -25 82 -106
187 -173 224 l-30 16 30 -6 c17 -4 64 -24 106 -45z m402 26 c51 -14 115 -35
143 -46 l51 -20 -14 -42 c-15 -43 -14 -193 2 -230 7 -16 3 -18 -26 -15 -33 3
-34 4 -40 59 -11 104 -75 209 -171 281 -27 21 -47 38 -43 38 3 0 47 -11 98
-25z m557 -39 c29 -66 34 -128 16 -183 -35 -105 -118 -165 -228 -164 -52 0
-66 4 -80 21 -37 45 -50 164 -26 241 11 38 12 39 47 33 20 -4 37 -8 39 -9 2
-2 -4 -17 -12 -34 -16 -30 -21 -105 -10 -136 16 -42 101 -57 161 -29 84 41
102 144 39 236 l-24 36 21 20 c25 26 34 21 57 -32z m-1175 20 c95 -25 143 -63
199 -159 34 -57 80 -258 71 -312 -13 -91 -20 -101 -98 -132 l-73 -30 18 66
c21 83 22 113 3 209 -23 111 -72 207 -142 273 -32 31 -67 61 -78 67 -17 10
-18 13 -5 22 20 13 45 12 105 -4z m-1225 -72 c44 -10 464 -71 518 -74 4 -1
-22 -14 -56 -30 l-64 -30 -161 20 c-89 11 -172 25 -185 30 -13 6 -31 10 -41
10 -10 0 -23 11 -29 25 -8 17 -20 25 -37 25 -14 0 -40 7 -58 17 l-32 16 30 13
c20 8 34 9 42 2 6 -5 39 -16 73 -24z m1109 -14 c135 -86 214 -291 177 -454
-22 -91 -48 -131 -105 -160 l-46 -24 -1 122 c0 104 -4 133 -28 206 -16 47 -39
105 -51 130 -27 53 -106 130 -153 149 l-34 14 69 32 c78 36 96 35 172 -15z
m-1849 -45 c95 -21 155 -41 250 -85 69 -32 143 -63 166 -69 36 -10 42 -15 52
-53 6 -24 40 -126 75 -228 51 -146 67 -207 76 -289 14 -117 41 -230 71 -298
11 -25 20 -47 20 -49 0 -11 -279 79 -512 165 -32 11 -75 21 -97 21 -38 0 -41
2 -64 53 -14 28 -28 68 -31 87 -24 127 -49 238 -58 255 -6 10 -52 132 -103
270 -51 137 -96 258 -100 267 -6 16 -2 16 62 -1 37 -11 124 -31 193 -46z
m3054 15 c15 -37 15 -44 1 -70 -25 -48 -88 -67 -115 -35 -16 19 2 74 37 115
35 42 57 39 77 -10z m-1456 -49 c76 -38 118 -82 153 -158 68 -148 90 -304 56
-395 -17 -44 -22 -48 -103 -83 -47 -20 -88 -34 -90 -32 -3 2 0 24 5 48 14 58
14 195 0 261 -19 93 -91 229 -150 282 -28 25 -56 46 -63 46 -8 1 114 56 132
59 1 1 29 -12 60 -28z m-935 -64 c8 -18 20 -70 26 -116 7 -47 31 -139 52 -205
22 -67 47 -166 56 -221 8 -55 28 -147 44 -205 34 -126 35 -137 9 -145 -12 -4
-23 -18 -27 -35 -3 -16 -14 -37 -24 -46 -17 -16 -19 -16 -25 2 -4 11 -17 44
-29 74 -26 64 -49 163 -70 308 -15 104 -60 256 -121 414 -19 48 -34 96 -34
107 0 27 85 94 127 101 2 0 9 -15 16 -33z m262 -10 l100 -12 -128 -51 -127
-51 0 36 c0 20 -4 52 -9 72 l-8 36 36 -9 c20 -5 81 -14 136 -21z m461 -16
c109 -79 184 -239 184 -394 0 -73 -24 -194 -43 -221 -7 -9 -47 -27 -90 -40
l-79 -24 7 21 c4 12 9 59 12 104 10 159 -66 382 -164 480 l-43 44 52 23 c103
45 112 45 164 7z m-222 -115 c84 -87 156 -277 156 -414 0 -112 -34 -174 -115
-207 -20 -9 -39 -15 -40 -13 -2 2 1 26 7 53 5 28 7 86 3 130 -13 172 -67 299
-166 389 -34 31 -60 57 -58 59 2 2 29 13 59 25 84 32 104 29 154 -22z m-250
-66 c75 -51 131 -123 160 -202 47 -132 58 -245 32 -333 -17 -54 -37 -76 -85
-93 -30 -11 -32 -10 -25 6 4 9 9 46 12 82 4 72 -29 234 -67 322 -25 58 -84
154 -118 190 l-25 26 28 16 c39 20 39 20 88 -14z"/>
<path d="M11675 8104 c-82 -8 -183 -17 -222 -20 -69 -5 -73 -7 -73 -30 0 -24
2 -24 88 -24 111 0 393 27 405 39 5 5 7 17 5 27 -4 24 -20 25 -203 8z"/>
<path d="M11667 8000 c-131 -8 -155 -15 -143 -46 6 -16 22 -17 183 -11 180 6
197 10 190 47 -3 18 -50 20 -230 10z"/>
<path d="M10269 7751 c-35 -5 -56 -16 -90 -49 -25 -23 -71 -60 -103 -82 -32
-23 -89 -66 -127 -97 -77 -62 -83 -79 -46 -134 35 -53 69 -51 170 10 46 28
113 64 149 80 36 16 69 34 72 40 4 5 32 18 64 27 31 10 61 21 66 26 10 8 -29
151 -47 176 -10 13 -33 13 -108 3z m-49 -123 c0 -7 7 -25 15 -41 l14 -27 -82
-41 c-45 -23 -110 -57 -144 -76 -55 -30 -64 -33 -69 -18 -8 20 25 50 148 135
48 33 90 65 93 70 9 14 25 12 25 -2z"/>
<path d="M11343 7523 c-7 -2 -13 -13 -13 -23 0 -10 -7 -31 -15 -46 -30 -59
-20 -71 137 -164 74 -44 122 -84 236 -197 162 -161 159 -160 259 -116 58 25
65 32 95 90 45 89 40 99 -104 198 -64 44 -162 122 -217 173 l-101 92 -132 -1
c-73 0 -139 -3 -145 -6z m125 -110 c31 -21 105 -76 164 -123 59 -47 129 -100
155 -118 99 -68 91 -56 69 -97 l-19 -35 -106 103 c-112 110 -188 170 -295 233
-62 36 -75 51 -59 67 13 14 36 6 91 -30z"/>
<path d="M10140 7280 c-51 -17 -84 -45 -149 -125 -8 -10 -14 -44 -15 -84 -2
-93 27 -137 121 -183 55 -27 82 -34 143 -36 134 -5 184 42 184 177 -1 188
-131 304 -284 251z m223 -207 c13 -85 -23 -163 -74 -163 -19 0 -19 1 -3 25 14
21 15 31 5 51 -9 21 -17 25 -49 22 -34 -3 -37 -6 -40 -38 -3 -24 2 -38 15 -48
16 -13 15 -14 -17 -8 -94 17 -162 77 -164 145 -1 34 1 36 34 42 19 4 92 7 161
8 l126 1 6 -37z"/>
<path d="M11409 6960 c-103 -54 -152 -173 -119 -290 27 -99 197 -173 318 -141
113 31 185 168 152 291 -15 57 -88 130 -146 148 -62 18 -162 15 -205 -8z m196
-58 c53 -26 105 -86 105 -122 0 -6 -48 14 -107 44 -60 30 -120 58 -135 62 -37
8 -35 21 5 33 38 11 90 4 132 -17z m-65 -118 c165 -79 163 -78 145 -113 -19
-38 -68 -78 -105 -86 -16 -4 -54 -1 -84 5 -132 27 -194 128 -142 228 22 42 31
41 186 -34z"/>
<path d="M10161 6352 c-14 -26 35 -111 79 -137 29 -17 52 -20 140 -20 89 0
114 4 165 25 111 46 182 30 381 -90 105 -64 170 -80 252 -61 106 25 126 25
179 -2 30 -16 83 -30 134 -37 97 -13 291 -54 332 -69 41 -16 77 -13 84 5 7 19
-12 37 -57 52 -52 17 -254 59 -345 72 -44 6 -98 20 -120 32 -70 36 -89 38
-177 17 -46 -11 -100 -18 -120 -16 -20 3 -75 28 -121 56 -154 93 -212 115
-306 119 -74 4 -92 1 -155 -24 -128 -52 -238 -31 -284 54 -25 45 -45 53 -61
24z"/>
<path d="M13070 3130 c-8 -5 -27 -10 -43 -10 -15 0 -70 -14 -122 -31 l-95 -31
0 -47 c0 -26 5 -74 12 -107 6 -32 12 -113 12 -179 l1 -120 27 -3 c15 -2 37 4
50 12 13 8 56 22 96 31 74 15 111 30 113 43 6 62 2 430 -4 440 -11 14 -27 15
-47 2z m-5 -235 l0 -176 -25 -5 c-14 -4 -50 -12 -81 -20 -31 -8 -59 -14 -62
-14 -2 0 -7 57 -11 128 -3 70 -7 144 -9 166 -2 37 -1 39 48 58 28 11 70 24 95
28 25 4 45 8 45 9 0 0 0 -78 0 -174z"/>
<path d="M4844 7381 c-112 -51 -142 -210 -56 -300 126 -133 343 -25 318 159
-17 124 -146 194 -262 141z m164 -75 c35 -33 37 -38 37 -96 0 -58 -2 -63 -37
-96 -31 -28 -46 -34 -80 -34 -54 0 -100 27 -121 73 -21 44 -21 70 0 114 21 46
67 73 121 73 34 0 49 -6 80 -34z"/>
<path d="M5286 7390 c-35 -11 -82 -54 -104 -95 -20 -39 -20 -131 1 -171 50
-97 180 -130 269 -70 99 66 113 196 31 286 -48 54 -121 72 -197 50z m135 -71
c79 -56 76 -171 -6 -225 -36 -23 -117 -15 -150 16 -57 54 -56 142 2 197 28 27
42 33 80 33 29 0 55 -7 74 -21z"/>
<path d="M5730 7384 c-19 -8 -42 -22 -52 -31 -17 -15 -18 -14 -18 10 0 22 -5
27 -25 27 l-25 0 0 -240 0 -240 25 0 c25 0 25 1 25 86 l0 85 26 -20 c88 -70
224 -39 273 61 37 77 21 179 -36 230 -50 46 -131 59 -193 32z m138 -66 c68
-53 74 -143 14 -201 -39 -38 -80 -48 -126 -32 -50 18 -74 41 -88 87 -35 119
104 221 200 146z"/>
<path d="M6069 7371 c-22 -22 -29 -39 -29 -68 0 -50 18 -74 84 -111 61 -35 73
-55 51 -88 -19 -29 -55 -31 -96 -7 -27 16 -30 16 -46 0 -16 -15 -16 -18 2 -37
28 -31 85 -45 129 -30 48 16 76 53 76 102 0 45 -26 75 -103 120 -54 31 -61 58
-22 84 23 15 27 15 59 -4 34 -20 34 -20 52 -1 16 17 16 22 4 30 -73 49 -119
52 -161 10z"/>
<path d="M6445 6625 c-19 -18 -25 -35 -25 -70 0 -38 -3 -45 -20 -45 -15 0 -20
-7 -20 -25 0 -18 5 -25 20 -25 19 0 20 -7 20 -155 l0 -155 30 0 30 0 0 155 0
155 35 0 c31 0 35 3 35 25 0 22 -4 25 -35 25 -34 0 -35 1 -35 40 0 39 1 40 35
40 30 0 35 3 35 24 0 43 -67 50 -105 11z"/>
<path d="M8130 6550 l0 -89 -37 25 c-33 23 -46 25 -104 22 -54 -3 -73 -9 -103
-31 -50 -38 -70 -81 -70 -147 0 -74 26 -125 83 -162 40 -26 53 -29 106 -26 43
3 70 10 93 27 32 22 32 22 32 2 0 -17 6 -21 30 -21 l30 0 0 245 0 245 -30 0
-30 0 0 -90z m-69 -105 c65 -34 89 -128 49 -193 -21 -34 -72 -62 -112 -62 -33
0 -85 35 -108 72 -66 109 58 241 171 183z"/>
<path d="M6040 6570 l0 -60 -30 0 c-25 0 -30 -4 -30 -25 0 -21 5 -25 30 -25
l30 0 0 -155 0 -155 25 0 25 0 0 155 0 155 35 0 c31 0 35 3 35 25 0 22 -4 25
-35 25 l-35 0 0 60 c0 57 -1 60 -25 60 -24 0 -25 -3 -25 -60z"/>
<path d="M3240 6265 l0 -245 25 0 c25 0 25 1 25 84 l0 85 43 -24 c89 -52 209
-17 252 71 24 50 25 138 2 181 -31 57 -81 87 -156 91 -58 3 -71 1 -103 -22
l-38 -25 0 24 c0 20 -5 25 -25 25 l-25 0 0 -245z m239 177 c40 -21 71 -73 71
-117 0 -60 -71 -135 -128 -135 -70 0 -132 62 -132 133 0 105 99 167 189 119z"/>
<path d="M3760 6491 c-19 -10 -48 -37 -64 -59 -62 -88 -27 -225 69 -272 59
-28 137 -24 183 9 32 22 32 22 32 2 0 -17 6 -21 30 -21 l30 0 0 180 0 180 -30
0 c-25 0 -30 -4 -30 -25 l0 -24 -36 24 c-46 32 -132 34 -184 6z m151 -46 c65
-34 89 -128 49 -193 -21 -34 -72 -62 -112 -62 -56 0 -128 75 -128 134 0 15 10
46 22 67 35 63 107 86 169 54z"/>
<path d="M4200 6490 c-119 -71 -119 -254 0 -317 59 -31 131 -31 187 1 l42 24
-5 -31 c-19 -103 -146 -139 -229 -65 -23 20 -43 28 -60 26 l-27 -3 24 -34 c37
-55 82 -76 163 -76 88 0 131 22 163 85 20 41 22 57 22 227 l0 183 -25 0 c-20
0 -25 -5 -25 -26 l0 -25 -32 23 c-47 33 -149 37 -198 8z m155 -46 c61 -29 88
-102 62 -167 -28 -66 -112 -95 -182 -61 -75 35 -93 146 -33 201 52 46 96 54
153 27z"/>
<path d="M4655 6501 c-32 -14 -84 -71 -96 -109 -6 -19 -9 -59 -7 -88 8 -95 84
-164 181 -164 63 0 105 19 146 65 31 36 32 39 15 52 -25 19 -32 17 -60 -16
-30 -36 -84 -55 -129 -47 -40 8 -95 66 -95 101 l0 25 155 0 c169 0 163 -3 145
62 -13 44 -52 93 -91 113 -30 16 -131 19 -164 6z m135 -56 c27 -14 60 -51 60
-67 0 -5 -52 -8 -115 -8 -127 0 -137 6 -87 52 44 41 92 49 142 23z"/>
<path d="M5170 6330 l0 -180 30 0 30 0 0 110 c0 80 4 119 15 140 26 50 99 75
145 50 29 -16 40 -66 40 -186 l0 -114 25 0 25 0 0 135 c0 151 -9 184 -60 210
-43 22 -122 20 -153 -5 -14 -11 -28 -20 -31 -20 -3 0 -6 9 -6 20 0 16 -7 20
-30 20 l-30 0 0 -180z"/>
<path d="M5655 6496 c-68 -30 -113 -121 -101 -201 20 -125 155 -191 273 -134
116 56 130 237 25 317 -28 21 -47 27 -101 29 -41 2 -78 -2 -96 -11z m162 -68
c33 -30 53 -70 53 -105 0 -59 -72 -133 -130 -133 -64 0 -130 68 -130 135 0
107 132 173 207 103z"/>
<path d="M6685 6491 c-66 -41 -95 -92 -95 -166 0 -55 14 -92 48 -129 66 -70
191 -77 261 -13 52 48 75 147 50 214 -13 34 -55 80 -91 99 -40 21 -136 18
-173 -5z m146 -46 c94 -49 89 -201 -8 -241 -70 -30 -153 11 -173 85 -29 110
82 207 181 156z"/>
<path d="M7030 6377 c0 -151 12 -187 71 -219 50 -28 148 -21 185 12 45 42 54
78 54 215 0 125 0 125 -24 125 -23 0 -23 -2 -28 -124 -3 -68 -11 -133 -17
-144 -30 -56 -116 -64 -162 -16 -22 24 -24 34 -28 155 -3 129 -3 129 -27 129
l-24 0 0 -133z"/>
<path d="M7430 6330 l0 -180 23 0 c23 0 24 3 30 110 4 66 12 122 21 139 33 63
113 81 157 35 22 -24 24 -34 28 -155 3 -129 3 -129 27 -129 l24 0 0 131 c0
147 -12 189 -61 214 -45 24 -118 19 -162 -10 l-37 -26 0 26 c0 20 -5 25 -25
25 l-25 0 0 -180z"/>
<path d="M7804 2866 c-70 -47 -85 -92 -41 -120 25 -16 134 -36 196 -36 46 0
86 32 98 78 16 65 -30 98 -147 109 -50 4 -59 1 -106 -31z"/>
<path d="M14010 2699 c-69 -13 -165 -65 -203 -109 -40 -47 -67 -134 -74 -240
-3 -54 -1 -80 9 -92 7 -9 58 -36 113 -59 85 -36 113 -43 186 -47 132 -7 256
28 288 80 28 45 40 148 27 221 -20 107 -69 164 -192 227 -60 31 -79 34 -154
19z m130 -104 c129 -66 171 -174 82 -212 -47 -20 -187 -22 -261 -4 -63 16
-121 62 -121 97 0 54 133 142 218 143 18 1 55 -10 82 -24z"/>
<path d="M14025 2563 c-31 -8 -73 -52 -80 -85 -9 -38 14 -64 69 -79 84 -23
155 25 142 96 -11 58 -62 84 -131 68z"/>
<path d="M7820 2459 c-117 -7 -152 -17 -174 -52 -18 -27 -39 -164 -34 -223 l3
-39 154 -3 c129 -2 162 0 198 15 32 13 45 25 48 43 3 14 14 52 25 86 28 88 34
136 18 156 -16 20 -92 25 -238 17z"/>
<path d="M14479 1965 c-58 -42 -169 -96 -213 -103 -29 -6 -44 -14 -53 -32 -14
-27 -16 -111 -5 -175 7 -37 10 -40 45 -46 21 -3 58 -20 82 -37 24 -17 69 -39
100 -48 l57 -18 42 24 c22 13 72 35 110 49 43 16 76 36 89 53 18 24 37 101 53
214 l6 41 -48 21 c-27 12 -73 36 -103 52 -67 37 -116 39 -162 5z m137 -89 l56
-34 -54 -35 c-95 -60 -88 -59 -159 -26 l-63 30 34 21 c19 11 53 33 75 49 22
15 43 28 47 29 4 0 32 -15 64 -34z"/>
<path d="M13521 1841 l-48 -52 -100 -2 c-92 -2 -103 -4 -136 -29 -19 -16 -39
-28 -43 -28 -5 0 -25 16 -45 36 -47 45 -99 54 -147 25 -36 -23 -90 -101 -99
-144 -6 -28 -7 -28 -57 -22 -41 5 -55 3 -65 -9 -19 -23 -6 -46 26 -46 50 0 73
-11 73 -34 0 -12 5 -27 12 -34 15 -15 7 -15 -67 3 -33 8 -73 15 -88 15 -25 0
-28 -3 -25 -27 3 -24 9 -27 88 -43 47 -10 101 -20 121 -24 31 -5 36 -10 32
-26 -3 -11 -9 -22 -13 -25 -4 -2 -45 5 -91 16 -46 11 -100 19 -119 17 -30 -3
-35 -7 -35 -28 0 -22 5 -26 50 -32 85 -12 94 -16 88 -38 -4 -16 -10 -18 -32
-13 -14 4 -39 7 -56 8 -25 0 -30 -4 -30 -25 0 -21 6 -26 45 -35 64 -14 70 -20
70 -74 0 -26 6 -55 13 -64 6 -9 41 -25 76 -36 78 -24 142 -19 187 14 30 23 30
23 55 4 13 -10 40 -21 59 -25 70 -12 70 -12 70 -63 0 -69 11 -75 125 -69 106
6 142 22 151 67 5 25 12 30 49 36 42 6 103 32 155 67 24 16 28 15 70 -4 l45
-21 35 20 c49 28 63 63 71 173 7 104 0 130 -35 130 -13 0 -38 3 -55 6 -31 6
-31 7 -31 66 0 66 -26 127 -65 152 -18 12 -23 28 -28 80 -3 36 -13 78 -21 94
-21 41 -88 84 -141 90 -45 5 -47 4 -94 -47z m135 -65 l28 -23 -22 -28 c-24
-31 -29 -73 -9 -97 6 -8 33 -30 59 -47 60 -40 78 -74 78 -150 0 -52 3 -62 26
-80 15 -12 35 -21 45 -21 23 0 36 -20 19 -30 -7 -4 -41 -5 -77 -2 -58 4 -66 3
-91 -20 -38 -36 -67 -50 -142 -68 -58 -15 -65 -19 -68 -43 -3 -26 -5 -27 -68
-27 l-64 0 0 29 c0 40 -36 67 -100 75 -35 5 -60 16 -84 36 -41 36 -53 37 -117
5 -46 -24 -51 -24 -72 -10 -16 11 -17 15 -6 15 23 0 53 36 45 56 -12 31 14
134 45 176 45 63 39 81 -31 108 -52 19 -55 25 -31 59 27 38 50 39 82 5 28 -30
70 -54 96 -54 10 0 43 16 73 35 53 34 56 35 148 32 l94 -2 42 47 c47 54 64 58
102 24z"/>
<path d="M13322 1625 c-69 -19 -137 -56 -163 -90 -12 -14 -24 -46 -26 -69 -5
-39 -2 -48 31 -83 41 -45 102 -75 203 -99 178 -42 313 24 313 154 0 149 -169
237 -358 187z m218 -161 c25 -10 47 -28 56 -45 13 -26 13 -30 -6 -49 -28 -28
-63 -40 -114 -40 -45 0 -134 21 -191 44 -44 19 -38 38 23 77 40 25 56 29 119
29 44 0 89 -6 113 -16z"/>
<path d="M8517 1824 c-13 -13 -7 -43 11 -53 9 -5 55 -12 102 -15 47 -4 121
-12 165 -17 70 -9 81 -9 91 6 29 40 8 47 -206 66 -58 5 -116 12 -130 15 -14 3
-29 2 -33 -2z"/>
<path d="M8364 1725 c-17 -44 15 -54 251 -81 207 -24 199 -24 203 7 4 32 4 31
-204 54 -77 8 -156 20 -175 25 -47 14 -69 12 -75 -5z"/>
<path d="M9344 1325 c-12 -31 4 -40 94 -53 49 -6 168 -34 264 -61 95 -27 200
-55 233 -61 33 -7 121 -27 195 -46 148 -38 213 -41 218 -10 5 22 -14 36 -48
36 -30 0 -337 74 -568 137 -252 69 -377 88 -388 58z"/>
</g>
</svg>
