<?xml version="1.0" standalone="no"?>
<!DOCTYPE svg PUBLIC "-//W3C//DTD SVG 20010904//EN"
 "http://www.w3.org/TR/2001/REC-SVG-20010904/DTD/svg10.dtd">
<svg version="1.0" xmlns="http://www.w3.org/2000/svg"
 width="2868.000000pt" height="1734.000000pt" viewBox="0 0 2868.000000 1734.000000"
 preserveAspectRatio="xMidYMid meet">

<g transform="translate(0.000000,1734.000000) scale(0.100000,-0.100000)"
fill="#000000" stroke="none">
<path d="M0 8670 l0 -8670 480 0 480 0 0 7685 0 7685 13860 0 13860 0 0 985 0
985 -2820 0 -2820 0 0 -240 c0 -153 4 -240 10 -240 6 0 10 -9 10 -20 0 -11 4
-20 9 -20 5 0 9 -12 9 -27 -1 -15 5 -29 11 -31 6 -2 11 -17 11 -34 0 -23 -3
-28 -12 -21 -7 6 -22 13 -32 17 -16 5 -17 4 -7 -8 7 -8 10 -19 7 -25 -3 -5 3
-7 14 -4 14 4 20 0 20 -11 0 -9 8 -16 21 -16 11 0 17 -4 14 -10 -4 -7 3 -8 21
-4 18 5 25 3 21 -3 -9 -14 15 -23 61 -24 29 0 33 -2 17 -8 -17 -7 -15 -9 15
-16 19 -4 41 -11 50 -15 12 -6 87 -37 195 -80 11 -4 36 -15 55 -23 19 -8 53
-21 75 -28 35 -12 -4 -14 -340 -17 -209 -1 -387 1 -395 5 -8 3 -17 7 -20 7 -3
1 -11 5 -18 10 -7 4 -25 5 -39 1 -19 -4 -24 -3 -20 8 9 25 -51 32 -240 29
-147 -3 -183 -6 -183 -17 0 -7 10 -16 23 -18 19 -4 -305 -13 -375 -10 -16 1
-28 -4 -28 -9 0 -7 -144 -8 -437 -3 -241 4 -510 6 -598 6 -88 -1 -2099 -3
-4470 -4 -3603 -2 -4350 0 -4552 12 -224 13 -243 16 -243 33 0 11 -7 18 -20
18 -11 0 -20 4 -20 8 0 11 -212 25 -219 14 -16 -22 -143 -32 -404 -32 -273 0
-277 0 -349 -26 l-73 -27 -225 7 c-124 4 -281 10 -350 14 -127 7 -182 4 -278
-17 -70 -14 -3815 -16 -3792 -1 8 5 22 10 31 10 9 0 19 9 22 21 4 13 10 18 18
13 8 -4 10 -3 5 5 -4 6 0 14 11 17 10 4 49 22 87 40 38 19 75 34 82 34 8 0 14
9 14 20 0 13 -7 20 -20 20 -13 0 -20 7 -20 20 0 13 -7 20 -20 20 -13 0 -20 7
-20 20 0 18 -7 20 -80 20 l-80 0 0 80 0 80 -40 0 c-22 0 -40 5 -40 10 0 6 -18
10 -40 10 l-40 0 0 230 0 230 -2920 0 -2920 0 0 -8670z m22473 7783 c-7 -2
-19 -2 -25 0 -7 3 -2 5 12 5 14 0 19 -2 13 -5z m-21205 -40 c-10 -2 -26 -2
-35 0 -10 3 -2 5 17 5 19 0 27 -2 18 -5z m155 0 c-13 -2 -33 -2 -45 0 -13 2
-3 4 22 4 25 0 35 -2 23 -4z m145 0 c-16 -2 -40 -2 -55 0 -16 2 -3 4 27 4 30
0 43 -2 28 -4z m904 0 c-160 -2 -424 -2 -585 0 -160 1 -29 2 293 2 322 0 453
-1 292 -2z m5640 0 c-981 -2 -2583 -2 -3560 0 -977 1 -175 2 1783 2 1958 0
2758 -1 1777 -2z m2356 0 c-103 -2 -274 -2 -380 0 -106 1 -22 2 187 2 209 0
296 -1 193 -2z m7144 0 c-1271 -2 -3353 -2 -4625 0 -1271 1 -231 2 2313 2
2544 0 3584 -1 2312 -2z m4535 0 c-401 -2 -1053 -2 -1450 0 -397 1 -69 2 728
2 798 0 1122 -1 722 -2z m1266 0 c-95 -2 -251 -2 -345 0 -95 1 -18 3 172 3
190 0 267 -2 173 -3z m335 0 c-10 -2 -28 -2 -40 0 -13 2 -5 4 17 4 22 1 32 -1
23 -4z m170 0 c-27 -2 -69 -2 -95 0 -27 2 -5 3 47 3 52 0 74 -1 48 -3z m3200
0 c-577 -2 -1519 -2 -2095 0 -577 1 -105 2 1047 2 1152 0 1624 -1 1048 -2z
m-456 -340 c15 -15 28 -33 28 -42 0 -10 -7 -8 -25 9 l-25 23 0 -102 c0 -78 -3
-102 -12 -99 -9 3 -14 35 -16 103 -3 93 -4 97 -19 76 -11 -16 -18 -20 -26 -12
-7 7 0 19 24 41 19 16 36 30 38 30 3 0 18 -12 33 -27z m1536 -5 c7 -7 12 -22
12 -35 0 -18 6 -23 24 -23 47 0 56 -22 56 -135 0 -135 0 -135 -135 -135 -113
0 -135 9 -135 56 0 20 -5 24 -28 24 -46 0 -52 15 -52 130 0 69 4 110 12 118
17 17 229 17 246 0z m-24908 -18 c12 -7 16 -36 18 -125 5 -171 13 -165 -193
-165 -135 0 -166 3 -179 16 -13 12 -16 40 -16 138 0 81 4 126 12 134 15 15
335 17 358 2z m1120 -13 c0 -7 -27 -37 -61 -66 l-61 -54 61 -61 c58 -59 74
-86 50 -86 -6 0 -43 31 -83 70 l-71 69 70 71 c67 67 95 84 95 57z m22960 -47
l0 -60 60 0 c47 0 60 -3 60 -15 0 -12 -13 -15 -60 -15 l-60 0 0 -61 c0 -80
-24 -77 -28 4 l-3 56 -55 3 c-71 4 -70 22 1 26 l55 3 0 53 c0 29 3 56 7 59 17
17 23 2 23 -53z m-17762 -18 c2 -31 -2 -60 -9 -68 -15 -18 -189 -20 -207 -2
-13 13 -17 110 -5 122 4 3 54 5 112 4 l106 -3 3 -53z m10156 42 c9 -8 16 -22
16 -30 0 -11 15 -14 64 -14 46 0 69 -5 81 -16 12 -12 15 -32 13 -78 -3 -52 -6
-62 -25 -71 -13 -5 -23 -14 -23 -20 0 -5 -4 -16 -9 -24 -8 -12 -15 -10 -40 11
-19 17 -38 24 -51 21 -26 -7 -70 22 -70 47 0 27 -22 25 -59 -6 -31 -26 -54
-25 -49 2 2 8 -8 20 -22 27 -22 11 -25 20 -28 76 -2 38 2 68 9 77 17 21 172
20 193 -2z m451 -14 l29 -30 -32 -32 c-33 -34 -58 -32 -27 2 18 20 17 20 -9
20 -17 0 -39 -11 -58 -30 -26 -27 -30 -36 -25 -67 4 -20 15 -45 25 -55 10 -10
35 -21 55 -25 31 -5 40 -1 67 25 16 17 30 40 30 51 0 12 5 21 10 21 23 0 9
-53 -24 -86 -38 -38 -77 -44 -126 -19 -35 18 -60 62 -60 106 0 44 56 99 101
99 30 0 31 1 16 18 -38 42 -12 43 28 2z m-18706 9 c25 -9 30 -14 19 -21 -9 -6
-6 -7 9 -3 19 5 25 1 34 -22 6 -15 15 -36 20 -46 17 -32 -22 -100 -69 -121
-41 -18 -42 -18 -87 3 -33 16 -45 26 -41 37 3 8 2 13 -3 10 -5 -3 -14 7 -19
24 -17 48 12 108 63 131 22 9 40 18 41 18 1 1 16 -4 33 -10z m458 -33 c26 -28
33 -44 33 -77 0 -35 -6 -48 -39 -80 -33 -33 -45 -39 -81 -39 -36 0 -48 6 -82
40 -38 38 -40 43 -35 86 12 110 131 150 204 70z m371 24 c18 -11 40 -36 49
-55 15 -32 16 -40 3 -77 -40 -112 -180 -113 -220 -1 -13 38 -12 46 3 78 19 39
69 75 107 75 14 0 40 -9 58 -20z m10582 -10 c11 -11 20 -33 20 -48 0 -15 5
-33 11 -39 5 -5 9 -38 7 -74 l-3 -64 -80 0 -80 0 -3 64 c-2 36 2 69 7 74 6 6
11 21 11 33 0 32 37 74 66 74 13 0 33 -9 44 -20z m500 -90 c0 -82 -3 -100 -15
-100 -12 0 -15 17 -15 93 0 52 3 97 7 100 18 19 23 -1 23 -93z m670 0 c0 -82
-3 -100 -15 -100 -12 0 -15 18 -15 100 0 82 3 100 15 100 12 0 15 -18 15 -100z
m2250 0 c0 -82 -3 -100 -15 -100 -12 0 -15 17 -15 93 0 52 3 97 7 100 18 19
23 -1 23 -93z m10240 81 c0 -6 -15 -11 -32 -13 l-33 -3 -3 -102 -3 -103 116 0
116 0 -3 103 -3 102 -32 3 c-18 2 -33 7 -33 13 0 13 74 11 88 -3 8 -8 12 -49
12 -120 0 -96 -2 -108 -19 -118 -11 -5 -69 -10 -130 -10 -142 0 -141 -1 -141
134 0 66 4 106 12 114 14 14 88 16 88 3z m-13080 -21 c0 -11 7 -20 15 -20 8 0
15 -4 15 -10 0 -5 -7 -10 -15 -10 -11 0 -15 -12 -15 -44 0 -30 5 -46 15 -50
24 -9 17 -26 -10 -26 -29 0 -45 30 -45 85 0 18 -6 35 -12 37 -9 3 -8 9 5 22 9
10 17 22 17 27 0 5 7 9 15 9 8 0 15 -9 15 -20z m670 0 c0 -11 7 -20 15 -20 8
0 15 -4 15 -10 0 -5 -7 -10 -15 -10 -11 0 -15 -12 -15 -44 0 -30 5 -46 15 -50
24 -9 17 -26 -9 -26 -31 0 -38 11 -41 67 -2 25 -9 50 -17 54 -9 6 -10 11 -2
17 6 4 13 15 17 25 9 24 37 22 37 -3z m-10481 -36 c45 43 52 12 7 -32 l-36
-37 -36 37 c-45 44 -38 75 7 32 l29 -28 29 28z m9495 16 c14 -5 26 -16 26 -25
0 -17 -25 -21 -35 -5 -9 15 -35 12 -35 -4 0 -8 14 -17 30 -21 17 -4 35 -15 40
-25 13 -24 13 -26 -6 -44 -27 -28 -104 -16 -104 16 0 11 38 10 45 -2 6 -10 35
-2 35 10 0 5 -15 14 -34 20 -63 20 -57 66 11 89 1 1 13 -3 27 -9z m164 -18
c17 -23 15 -82 -5 -104 -23 -26 -78 -24 -97 4 -29 41 -15 101 27 118 27 11 58
3 75 -18z m279 11 c2 -6 -8 -13 -22 -17 -23 -6 -25 -11 -25 -61 0 -42 -3 -55
-15 -55 -12 0 -15 14 -15 69 0 68 1 70 28 74 35 5 45 3 49 -10z m121 -11 c6
-9 12 -39 12 -68 l0 -51 -47 -1 c-53 -1 -73 10 -73 43 0 23 35 45 73 45 20 0
20 1 4 17 -13 13 -19 15 -29 5 -17 -17 -38 -15 -38 3 0 35 72 40 98 7z m267 3
c14 -13 25 -33 25 -45 0 -17 -6 -20 -50 -20 -41 0 -48 -3 -43 -16 5 -13 15
-15 49 -9 24 3 44 4 44 1 0 -16 -36 -36 -65 -36 -39 0 -65 29 -65 73 0 31 39
77 65 77 9 0 27 -11 40 -25z m313 -2 c17 -24 15 -83 -5 -105 -23 -26 -78 -24
-97 4 -38 53 5 137 62 123 15 -3 33 -13 40 -22z m272 14 c0 -8 -11 -19 -25
-25 -22 -10 -25 -18 -25 -62 0 -38 -4 -50 -15 -50 -12 0 -15 14 -15 69 l0 70
33 4 c17 2 35 5 40 5 4 1 7 -4 7 -11z m214 3 c24 -9 26 -14 26 -73 l0 -64 -50
-2 c-39 0 -52 3 -60 18 -18 35 12 71 59 71 12 0 21 4 21 9 0 15 -23 19 -48 8
-32 -15 -41 1 -13 24 27 22 31 22 65 9z m164 -1 c21 1 22 -3 22 -74 0 -62 -4
-79 -20 -95 -26 -26 -72 -26 -95 0 -24 26 -12 37 21 20 18 -10 30 -11 42 -4
29 19 23 30 -16 26 -47 -5 -64 13 -64 65 0 44 33 78 66 68 12 -4 31 -6 44 -6z
m140 -6 c12 -10 24 -30 28 -45 6 -28 6 -28 -45 -28 -42 0 -49 -3 -44 -16 5
-13 15 -15 49 -9 24 3 44 4 44 1 0 -16 -36 -36 -65 -36 -63 0 -88 78 -40 125
29 30 46 31 73 8z m157 3 c26 -19 36 -136 11 -136 -12 0 -16 10 -16 43 0 24
-6 52 -14 62 -23 32 -46 3 -46 -56 0 -37 -4 -49 -15 -49 -12 0 -15 14 -15 69
l0 70 33 4 c17 2 35 5 38 5 3 1 14 -4 24 -12z m163 -14 c19 -25 -2 -37 -31
-18 -23 16 -26 16 -41 0 -36 -35 3 -92 45 -66 25 16 37 7 23 -16 -6 -10 -27
-18 -47 -20 -27 -2 -39 2 -51 20 -38 53 4 137 62 123 15 -3 33 -13 40 -23z
m450 0 c6 -9 12 -26 12 -39 0 -21 -5 -23 -46 -23 -32 0 -44 -4 -41 -12 2 -8
20 -12 46 -11 42 2 50 -4 29 -25 -19 -19 -73 -14 -92 7 -27 30 -18 102 14 118
28 14 59 8 78 -15z m119 12 c2 -6 -8 -16 -22 -22 -22 -10 -25 -18 -25 -62 0
-38 -4 -50 -15 -50 -12 0 -15 14 -15 69 0 68 1 70 28 74 35 5 45 3 49 -9z
m121 -6 c12 -10 17 -38 7 -38 -3 0 -17 7 -30 16 -32 21 -55 5 -55 -38 0 -35
22 -46 56 -28 28 16 43 6 28 -18 -16 -26 -76 -27 -98 -3 -18 20 -24 79 -11
101 17 28 72 32 103 8z m137 -3 c14 -13 25 -33 25 -45 0 -17 -6 -20 -50 -20
-41 0 -48 -3 -43 -16 5 -13 15 -15 49 -9 24 3 44 4 44 1 0 -16 -36 -36 -65
-36 -39 0 -65 29 -65 73 0 31 39 77 65 77 9 0 27 -11 40 -25z m273 9 c18 -13
22 -25 22 -73 l0 -58 -50 -2 c-39 0 -52 3 -60 18 -18 35 12 71 59 71 12 0 21
4 21 9 0 15 -23 19 -48 8 -32 -15 -41 1 -13 24 28 23 40 24 69 3z m167 -9 c29
-28 32 -70 9 -104 -13 -18 -24 -22 -50 -19 -29 3 -33 1 -36 -21 -2 -13 -9 -26
-15 -29 -10 -3 -13 20 -13 92 l0 95 28 4 c15 2 33 5 40 6 7 0 24 -10 37 -24z
m155 5 c13 -13 20 -33 20 -58 0 -49 -27 -76 -70 -70 -27 4 -30 2 -30 -24 0
-18 -5 -28 -15 -28 -12 0 -15 17 -15 96 0 90 1 96 19 91 10 -2 25 -1 32 4 22
14 37 11 59 -11z m-3050 -17 c26 -71 26 -71 41 -24 11 39 32 61 45 49 2 -3 -7
-34 -20 -69 -32 -86 -50 -85 -82 1 -13 36 -24 66 -24 68 0 1 7 2 15 2 9 0 20
-12 25 -27z m592 -25 c3 -49 5 -53 28 -53 23 0 25 4 28 53 2 37 7 52 18 52 11
0 14 -15 14 -69 l0 -68 -47 -1 c-26 -1 -53 4 -60 10 -19 15 -18 128 1 128 11
0 16 -15 18 -52z m1098 25 c26 -71 26 -71 41 -24 11 39 32 61 44 49 7 -7 -46
-150 -63 -170 -16 -19 -52 -25 -52 -9 0 5 9 15 20 22 21 14 21 14 1 69 -10 30
-22 63 -26 73 -5 12 -2 17 9 17 9 0 21 -12 26 -27z m181 -13 c7 -22 16 -40 20
-40 5 0 14 18 20 40 8 26 18 40 29 40 15 0 15 -7 -8 -70 -32 -91 -50 -93 -80
-7 -26 73 -26 77 -7 77 8 0 19 -17 26 -40z m-981 -26 c0 -12 -10 -14 -47 -12
-66 4 -70 28 -4 28 39 0 51 -4 51 -16z m-5100 -39 c-5 -10 -198 -17 -213 -8
-4 2 -5 9 -1 14 8 13 221 7 214 -6z m6030 -15 c0 -21 -24 -28 -35 -10 -8 14 3
30 21 30 8 0 14 -9 14 -20z m785 -1 c0 -7 -8 -15 -17 -17 -18 -3 -25 18 -11
32 10 10 28 1 28 -15z m-6875 -49 c0 -6 -33 -10 -80 -10 -47 0 -80 4 -80 10 0
6 33 10 80 10 47 0 80 -4 80 -10z"/>
<path d="M27974 16047 c-2 -7 -3 -56 -2 -108 3 -89 4 -94 26 -97 21 -3 22 0
22 67 0 90 10 101 96 101 62 0 65 1 62 23 -3 21 -8 22 -101 25 -75 2 -99 0
-103 -11z"/>
<path d="M28057 15974 c-4 -4 -7 -52 -7 -106 l0 -98 105 0 106 0 -3 103 -3
102 -95 3 c-53 1 -99 0 -103 -4z"/>
<path d="M2983 16033 l-33 -4 0 -120 0 -119 50 0 51 0 -3 122 c-3 134 -1 129
-65 121z m37 -52 c0 -6 -10 -8 -21 -6 -33 6 -36 15 -6 15 15 0 27 -4 27 -9z
m0 -41 c0 -5 -11 -10 -25 -10 -14 0 -25 5 -25 10 0 6 11 10 25 10 14 0 25 -4
25 -10z m-7 -47 c-7 -2 -21 -2 -30 0 -10 3 -4 5 12 5 17 0 24 -2 18 -5z"/>
<path d="M3077 16033 c-4 -3 -7 -60 -7 -125 l0 -119 103 3 102 3 3 110 c2 95
0 111 -15 122 -18 14 -174 19 -186 6z"/>
<path d="M9404 15996 c-3 -8 -4 -29 -2 -48 l3 -33 90 0 90 0 0 45 0 45 -88 3
c-69 2 -88 0 -93 -12z"/>
<path d="M19584 15996 c-3 -7 -4 -35 -2 -62 3 -42 6 -49 25 -52 13 -2 23 -12
25 -24 l3 -20 27 21 c14 12 33 21 42 21 11 0 16 9 16 30 0 16 9 37 20 48 13
12 18 25 14 35 -5 14 -21 17 -85 17 -58 0 -81 -4 -85 -14z m110 -39 c20 -53
21 -80 2 -54 -7 9 -19 17 -26 17 -7 0 -19 -8 -27 -17 -13 -16 -14 -15 -9 12 7
43 24 85 34 85 5 0 17 -19 26 -43z"/>
<path d="M19660 15950 c0 -5 5 -10 10 -10 6 0 10 5 10 10 0 6 -4 10 -10 10 -5
0 -10 -4 -10 -10z"/>
<path d="M19820 15930 c0 -5 5 -10 11 -10 5 0 7 5 4 10 -3 6 -8 10 -11 10 -2
0 -4 -4 -4 -10z"/>
<path d="M19790 15904 c0 -3 7 -13 16 -22 15 -14 15 -17 0 -27 -23 -17 -20
-28 4 -15 14 7 26 8 39 0 25 -13 31 -13 31 0 0 6 -7 10 -15 10 -20 0 -19 19 2
42 15 17 14 18 -30 18 -26 0 -47 -3 -47 -6z"/>
<path d="M12853 15982 c-7 -4 -16 -22 -19 -40 l-6 -32 46 0 c42 0 46 2 46 24
0 41 -37 67 -67 48z"/>
<path d="M13275 15904 c-30 -31 0 -86 39 -71 28 11 15 87 -15 87 -4 0 -15 -7
-24 -16z"/>
<path d="M13677 15853 c-14 -13 -6 -23 17 -23 13 0 26 7 30 15 4 11 -1 15 -18
15 -12 0 -26 -3 -29 -7z"/>
<path d="M13963 15913 c-22 -8 -14 -23 12 -23 14 0 25 4 25 9 0 11 -21 19 -37
14z"/>
<path d="M14256 15904 c-31 -30 -14 -78 25 -72 19 2 25 10 27 35 4 40 -27 62
-52 37z"/>
<path d="M14760 15844 c0 -10 7 -14 22 -12 32 5 35 28 4 28 -17 0 -26 -5 -26
-16z"/>
<path d="M14910 15906 c-17 -21 -8 -60 14 -64 18 -4 46 21 46 39 0 10 -29 39
-39 39 -5 0 -14 -7 -21 -14z"/>
<path d="M15073 15913 c-22 -8 -14 -23 12 -23 14 0 25 4 25 9 0 11 -21 19 -37
14z"/>
<path d="M15820 15905 c-11 -13 -8 -15 20 -15 28 0 31 2 20 15 -7 8 -16 15
-20 15 -4 0 -13 -7 -20 -15z"/>
<path d="M16203 15905 c-17 -13 -16 -14 15 -15 33 0 43 13 18 23 -8 3 -22 -1
-33 -8z"/>
<path d="M16480 15844 c0 -10 7 -14 22 -12 32 5 35 28 4 28 -17 0 -26 -5 -26
-16z"/>
<path d="M16641 15906 c-20 -24 -10 -70 16 -74 38 -6 53 57 19 80 -16 11 -22
10 -35 -6z"/>
<path d="M16796 15904 c-19 -19 -20 -35 -3 -58 21 -28 51 -17 55 21 4 40 -27
62 -52 37z"/>
<path d="M22850 16770 c0 -5 5 -10 10 -10 6 0 10 5 10 10 0 6 -4 10 -10 10 -5
0 -10 -4 -10 -10z"/>
<path d="M23020 16750 c0 -5 5 -10 10 -10 6 0 10 5 10 10 0 6 -4 10 -10 10 -5
0 -10 -4 -10 -10z"/>
<path d="M22926 16740 c12 -5 25 -13 29 -19 3 -6 12 -11 18 -11 7 0 1 9 -13
20 -14 11 -32 19 -40 19 -9 0 -6 -4 6 -9z"/>
<path d="M15192 14558 c-7 -7 -12 -25 -12 -40 0 -17 -7 -31 -16 -35 -15 -5
-15 -7 0 -15 12 -7 16 -25 16 -83 0 -99 18 -97 22 3 3 71 5 77 26 80 12 2 22
7 22 11 0 4 -10 7 -22 7 -19 -1 -23 4 -23 29 0 25 4 30 28 33 15 2 27 8 27 13
0 13 -54 11 -68 -3z"/>
<path d="M20700 14447 c0 -135 1 -137 56 -137 39 0 62 17 72 53 21 76 -16 139
-71 118 -25 -10 -26 -9 -29 36 -2 26 -9 48 -15 51 -10 3 -13 -26 -13 -121z
m100 -6 c26 -49 0 -111 -47 -111 -21 0 -23 4 -23 49 0 27 3 56 6 65 9 22 51
20 64 -3z"/>
<path d="M23860 14447 c0 -119 1 -126 21 -132 12 -4 26 -2 32 4 8 8 6 11 -6
11 -14 0 -17 16 -19 117 -2 82 -7 118 -15 121 -10 3 -13 -26 -13 -121z"/>
<path d="M15005 14553 c-58 -14 -89 -96 -66 -174 30 -100 157 -90 176 15 18
95 -38 176 -110 159z m51 -31 c39 -25 46 -124 13 -166 -44 -55 -109 -13 -109
71 0 62 23 103 58 103 15 0 32 -4 38 -8z"/>
<path d="M16704 14545 c-36 -15 -49 -51 -30 -80 7 -11 35 -31 62 -45 56 -29
69 -61 33 -80 -17 -10 -31 -10 -61 0 -41 12 -59 7 -41 -11 14 -14 77 -23 108
-15 32 8 51 51 36 83 -6 12 -33 34 -61 48 -56 28 -69 47 -49 71 10 12 25 15
56 11 40 -4 70 8 41 17 -41 13 -66 13 -94 1z"/>
<path d="M18674 14551 c-2 -2 -4 -58 -4 -123 l0 -119 68 3 c78 3 84 23 7 23
l-50 0 -3 43 -3 42 45 0 c61 0 68 18 9 22 l-48 3 -3 43 -3 42 55 0 c31 0 56 4
56 9 0 9 -118 20 -126 12z"/>
<path d="M20360 14551 c-14 -4 -31 -19 -38 -35 -18 -37 -1 -63 64 -96 56 -29
69 -61 33 -80 -17 -10 -31 -10 -61 0 -45 13 -62 5 -34 -16 23 -16 89 -19 116
-4 23 12 34 55 20 80 -6 11 -33 31 -61 45 -55 28 -68 47 -48 71 10 12 25 15
56 11 47 -5 68 7 31 18 -42 12 -53 13 -78 6z"/>
<path d="M23970 14535 c-13 -14 -21 -28 -17 -31 8 -8 67 37 61 48 -9 13 -19 9
-44 -17z"/>
<path d="M13490 14430 c0 -73 4 -120 10 -120 6 0 10 47 10 120 0 73 -4 120
-10 120 -6 0 -10 -47 -10 -120z"/>
<path d="M13764 14539 c-10 -17 13 -36 27 -22 12 12 4 33 -11 33 -5 0 -12 -5
-16 -11z"/>
<path d="M14024 14539 c-10 -17 13 -36 27 -22 12 12 4 33 -11 33 -5 0 -12 -5
-16 -11z"/>
<path d="M17332 14534 c4 -21 22 -23 26 -1 2 10 -3 17 -13 17 -10 0 -15 -6
-13 -16z"/>
<path d="M17584 14539 c-10 -17 13 -36 27 -22 12 12 4 33 -11 33 -5 0 -12 -5
-16 -11z"/>
<path d="M19224 14539 c-10 -17 13 -36 27 -22 12 12 4 33 -11 33 -5 0 -12 -5
-16 -11z"/>
<path d="M23225 14538 c-9 -25 -75 -222 -75 -225 0 -2 6 -3 14 -3 8 0 17 14
21 30 7 31 9 32 60 32 50 1 52 -1 59 -32 3 -18 12 -30 21 -30 11 0 15 6 11 18
-49 155 -75 217 -89 220 -10 2 -19 -2 -22 -10z m49 -110 c6 -27 5 -28 -33 -28
l-39 0 13 38 c7 20 17 46 20 57 7 18 9 17 20 -10 7 -16 15 -42 19 -57z"/>
<path d="M15600 14515 c0 -13 -7 -28 -16 -33 -15 -8 -15 -10 0 -15 13 -5 16
-21 16 -76 0 -67 1 -71 25 -77 37 -9 54 2 22 15 -27 10 -28 13 -25 73 3 58 5
63 28 67 l25 4 -25 6 c-18 5 -26 15 -28 34 -4 34 -22 36 -22 2z"/>
<path d="M21970 14515 c0 -13 -8 -28 -17 -34 -17 -9 -17 -10 0 -16 14 -6 17
-20 17 -75 0 -69 6 -80 46 -80 21 0 17 17 -6 23 -19 5 -21 12 -18 69 3 58 5
63 28 67 l25 4 -25 6 c-18 5 -26 15 -28 34 -4 34 -22 36 -22 2z"/>
<path d="M1977 14479 c7 -7 15 -10 18 -7 3 3 -2 9 -12 12 -14 6 -15 5 -6 -5z"/>
<path d="M13587 14483 c-4 -3 -7 -44 -7 -90 0 -67 3 -83 15 -83 12 0 15 14 15
63 0 67 10 87 46 87 28 0 34 -17 34 -91 0 -48 3 -59 16 -59 11 0 14 5 10 16
-3 9 -6 44 -6 79 0 55 -3 66 -21 75 -15 8 -29 8 -52 1 -21 -8 -33 -8 -37 -1
-4 6 -9 7 -13 3z"/>
<path d="M13764 14468 c3 -13 6 -53 6 -90 0 -54 3 -68 15 -68 23 0 22 165 -1
174 -24 9 -27 8 -20 -16z"/>
<path d="M13873 14464 c-22 -22 -25 -32 -21 -76 7 -71 52 -98 109 -67 29 15
13 29 -20 16 -42 -15 -61 3 -61 59 0 40 18 74 40 74 5 0 17 -12 28 -27 19 -26
21 -27 28 -9 5 14 1 24 -15 38 -32 25 -57 23 -88 -8z"/>
<path d="M14024 14468 c3 -13 6 -53 6 -90 0 -54 3 -68 15 -68 23 0 22 165 -1
174 -24 9 -27 8 -20 -16z"/>
<path d="M14135 14465 c-53 -52 -22 -155 45 -155 46 0 70 31 70 88 0 82 -64
119 -115 67z m84 -29 c25 -53 -15 -126 -56 -100 -22 13 -29 84 -13 114 16 29
51 22 69 -14z"/>
<path d="M15290 14463 c-18 -23 -21 -37 -17 -77 3 -32 11 -54 23 -63 28 -21
104 -15 104 8 0 5 -18 6 -39 3 -33 -5 -41 -3 -50 14 -19 35 -13 41 42 44 51 3
52 3 49 33 -6 63 -74 85 -112 38z m74 -9 c28 -28 20 -44 -24 -44 -33 0 -40 3
-40 20 0 17 23 39 42 40 4 0 14 -7 22 -16z"/>
<path d="M15460 14486 c-3 -2 -4 -43 -2 -90 3 -66 7 -86 18 -86 10 0 14 14 14
56 0 64 13 94 40 94 12 0 20 7 20 16 0 11 -6 14 -22 9 -13 -4 -27 -11 -32 -16
-5 -5 -14 -2 -20 7 -7 8 -14 13 -16 10z"/>
<path d="M15723 14483 c-13 -2 -23 -11 -23 -18 0 -10 7 -12 31 -5 39 12 59 3
59 -25 0 -20 -5 -23 -35 -23 -20 0 -42 -6 -50 -12 -18 -15 -20 -61 -3 -78 15
-15 60 -16 76 0 8 8 15 8 25 0 21 -18 23 -9 16 69 -8 92 -23 106 -96 92z m67
-108 c0 -26 -32 -50 -56 -41 -20 8 -18 43 4 55 31 19 52 13 52 -14z"/>
<path d="M15892 14474 c-34 -23 -25 -54 23 -81 56 -31 55 -58 -3 -57 -55 1
-50 -20 6 -24 34 -3 43 1 57 21 21 32 11 54 -36 78 -58 29 -45 68 17 53 26 -7
34 10 8 20 -26 10 -48 7 -72 -10z"/>
<path d="M16883 14464 c-22 -22 -25 -32 -21 -76 4 -34 12 -56 24 -65 28 -21
104 -15 104 9 0 5 -15 6 -35 2 -40 -7 -65 7 -65 37 0 16 8 19 56 19 l56 0 -7
33 c-7 36 -38 67 -67 67 -10 0 -30 -12 -45 -26z m71 -10 c28 -28 20 -44 -24
-44 -41 0 -47 8 -30 41 13 23 33 24 54 3z"/>
<path d="M17048 14485 c-4 -4 -4 -13 -1 -21 3 -7 6 -44 7 -81 0 -43 5 -68 14
-70 9 -4 12 11 12 52 0 65 13 95 40 95 11 0 20 7 20 15 0 19 -20 19 -45 1 -17
-12 -21 -12 -30 1 -6 8 -13 11 -17 8z"/>
<path d="M17160 14478 c0 -7 12 -48 26 -90 34 -103 52 -104 83 -5 13 39 28 75
34 79 24 15 37 -15 37 -83 0 -39 4 -69 10 -69 6 0 10 35 10 85 l0 85 -43 0
-42 0 -19 -65 c-10 -36 -22 -65 -25 -65 -4 0 -17 32 -30 70 -12 39 -26 70 -32
70 -5 0 -9 -6 -9 -12z"/>
<path d="M17433 14464 c-22 -22 -25 -32 -21 -76 7 -71 52 -98 109 -67 29 15
13 29 -20 16 -42 -15 -61 3 -61 59 0 71 51 100 73 41 8 -20 27 -14 27 8 0 17
-38 45 -63 45 -10 0 -29 -12 -44 -26z"/>
<path d="M17584 14468 c3 -13 6 -53 6 -90 0 -54 3 -68 15 -68 23 0 22 165 -1
174 -24 9 -27 8 -20 -16z"/>
<path d="M17695 14465 c-37 -36 -31 -120 9 -147 21 -14 66 -8 86 12 30 30 28
109 -3 138 -30 29 -62 28 -92 -3z m83 -25 c22 -44 -1 -110 -39 -110 -23 0 -39
29 -39 74 0 63 51 87 78 36z"/>
<path d="M17872 14474 c-34 -23 -25 -54 23 -81 23 -13 40 -30 40 -40 0 -14 -9
-18 -40 -19 -55 -1 -63 -4 -40 -14 40 -17 84 -11 100 14 21 31 10 53 -36 77
-58 29 -45 68 17 53 26 -7 34 10 8 20 -26 10 -48 7 -72 -10z"/>
<path d="M18861 14465 c-26 -34 -28 -100 -5 -134 14 -20 22 -22 55 -17 l39 6
0 -40 c0 -22 4 -40 9 -40 7 0 21 208 16 237 0 0 -21 4 -46 8 -42 6 -48 5 -68
-20z m70 -5 c44 -24 10 -144 -36 -126 -37 14 -42 105 -7 126 21 12 20 12 43 0z"/>
<path d="M19040 14412 c0 -47 5 -83 12 -90 15 -15 60 -16 76 0 8 8 15 8 27 -2
8 -7 17 -11 18 -9 2 2 1 43 -1 92 -4 91 -22 122 -22 40 0 -68 -8 -89 -37 -102
-37 -17 -45 -4 -51 78 -2 39 -9 71 -13 71 -5 0 -9 -35 -9 -78z"/>
<path d="M19224 14468 c3 -13 6 -53 6 -90 0 -54 3 -68 15 -68 23 0 22 165 -1
174 -24 9 -27 8 -20 -16z"/>
<path d="M19320 14365 c0 -97 3 -126 13 -123 6 3 13 21 15 41 3 34 4 35 35 30
47 -7 71 23 71 88 0 66 -29 99 -73 83 -18 -7 -35 -8 -45 -2 -14 8 -16 -3 -16
-117z m98 83 c7 -7 12 -28 12 -48 0 -44 -28 -75 -59 -65 -18 5 -21 15 -21 59
0 29 3 56 7 59 11 11 48 8 61 -5z"/>
<path d="M19515 14465 c-37 -36 -31 -120 9 -147 21 -14 66 -8 86 12 29 29 28
112 -2 140 -29 27 -64 25 -93 -5z m83 -25 c22 -44 -1 -110 -39 -110 -23 0 -39
29 -39 74 0 63 51 87 78 36z"/>
<path d="M20535 14465 c-37 -36 -31 -120 9 -147 21 -14 66 -8 86 12 30 30 28
109 -3 138 -30 29 -62 28 -92 -3z m76 -11 c7 -9 14 -33 14 -54 0 -42 -18 -70
-46 -70 -23 0 -39 29 -39 70 0 62 40 92 71 54z"/>
<path d="M20888 14485 c-4 -4 -4 -13 -1 -21 3 -7 6 -44 7 -81 0 -43 5 -68 14
-70 9 -4 12 11 12 52 0 65 13 95 40 95 11 0 20 7 20 15 0 19 -20 19 -45 1 -17
-12 -21 -12 -30 1 -6 8 -13 11 -17 8z"/>
<path d="M21010 14463 c-18 -23 -21 -37 -17 -77 3 -32 11 -54 23 -63 28 -21
104 -15 104 8 0 5 -18 6 -39 3 -33 -5 -41 -3 -50 14 -19 36 -13 42 45 42 l56
0 -7 33 c-13 66 -77 88 -115 40z m74 -9 c28 -28 20 -44 -24 -44 -32 0 -40 4
-40 18 0 38 37 54 64 26z"/>
<path d="M21267 14483 c-4 -3 -7 -44 -7 -90 0 -67 3 -83 15 -83 12 0 15 14 15
63 0 67 10 87 46 87 28 0 34 -17 34 -91 0 -48 3 -59 16 -59 11 0 14 5 10 16
-3 9 -6 44 -6 79 0 55 -3 66 -21 75 -15 8 -29 8 -52 1 -21 -8 -33 -8 -37 -1
-4 6 -9 7 -13 3z"/>
<path d="M21466 14467 c-29 -29 -35 -82 -15 -120 16 -29 28 -37 62 -37 43 0
67 32 67 88 0 58 -14 80 -57 88 -26 5 -37 1 -57 -19z m75 -13 c7 -9 14 -33 14
-54 0 -42 -18 -70 -46 -70 -23 0 -39 29 -39 70 0 62 40 92 71 54z"/>
<path d="M21642 14474 c-34 -23 -25 -54 23 -81 56 -31 55 -58 -3 -57 -55 1
-50 -20 6 -24 34 -3 43 1 57 21 21 32 11 54 -36 78 -58 29 -45 68 17 53 13 -3
24 -2 24 4 0 9 -31 22 -55 22 -6 0 -21 -7 -33 -16z"/>
<path d="M21795 14465 c-37 -36 -31 -120 9 -147 21 -14 66 -8 86 12 29 29 28
112 -2 140 -29 27 -64 25 -93 -5z m76 -11 c7 -9 14 -33 14 -54 0 -42 -18 -70
-46 -70 -23 0 -39 29 -39 70 0 62 40 92 71 54z"/>
<path d="M22080 14486 c-11 -10 5 -170 18 -174 9 -3 12 12 12 53 0 65 13 95
40 95 12 0 20 7 20 16 0 11 -6 14 -22 9 -13 -4 -27 -11 -32 -16 -5 -5 -14 -2
-20 7 -7 8 -14 13 -16 10z"/>
<path d="M22215 14465 c-28 -27 -33 -80 -14 -118 16 -29 28 -37 62 -37 43 0
67 32 67 88 0 84 -63 120 -115 67z m84 -29 c25 -53 -15 -126 -56 -100 -25 16
-30 96 -7 118 23 23 46 16 63 -18z"/>
<path d="M22392 14474 c-34 -23 -25 -54 23 -81 56 -31 55 -59 -2 -56 -43 2
-57 -9 -27 -21 35 -13 74 -6 89 18 21 31 10 53 -36 77 -58 29 -45 68 17 53 26
-7 34 10 8 20 -26 10 -48 7 -72 -10z"/>
<path d="M23393 14464 c-22 -22 -25 -32 -21 -74 3 -27 11 -56 18 -65 19 -23
110 -18 110 6 0 5 -18 6 -39 3 -33 -5 -41 -3 -50 14 -19 36 -13 42 45 42 l56
0 -7 33 c-7 36 -38 67 -67 67 -10 0 -30 -12 -45 -26z m71 -10 c28 -28 20 -44
-24 -44 -41 0 -47 8 -30 41 13 23 33 24 54 3z"/>
<path d="M23558 14485 c-4 -4 -4 -13 -1 -21 3 -7 6 -44 7 -81 0 -43 5 -68 14
-70 9 -4 12 11 12 52 0 65 13 95 40 95 12 0 20 7 20 16 0 11 -6 14 -22 9 -13
-4 -27 -11 -32 -16 -5 -5 -14 -2 -20 7 -7 8 -14 12 -18 9z"/>
<path d="M23685 14465 c-37 -36 -31 -120 9 -147 21 -14 66 -8 86 12 30 30 28
109 -3 138 -30 29 -62 28 -92 -3z m83 -25 c22 -44 -1 -110 -39 -110 -23 0 -39
29 -39 74 0 63 51 87 78 36z"/>
<path d="M23958 14483 c-2 -4 -2 -45 0 -90 3 -64 7 -83 18 -83 20 0 20 152 0
169 -8 7 -16 8 -18 4z"/>
<path d="M24050 14400 c0 -73 3 -90 15 -90 12 0 15 14 15 64 0 70 12 90 52 84
21 -3 23 -8 26 -75 2 -49 7 -73 15 -73 9 0 11 22 9 80 -3 68 -7 82 -23 91 -14
7 -29 7 -49 0 -18 -6 -32 -6 -35 0 -17 26 -25 0 -25 -81z"/>
<path d="M24250 14463 c-18 -23 -21 -37 -17 -77 3 -32 11 -54 23 -63 28 -21
104 -15 104 8 0 5 -18 6 -39 3 -33 -5 -41 -3 -50 14 -19 36 -13 42 45 42 l56
0 -7 33 c-13 66 -77 88 -115 40z m74 -9 c28 -28 20 -44 -24 -44 -32 0 -40 4
-40 18 0 38 37 54 64 26z"/>
<path d="M24443 14483 c-13 -2 -23 -11 -23 -18 0 -10 7 -12 31 -5 39 12 59 3
59 -25 0 -20 -5 -23 -35 -23 -20 0 -42 -6 -50 -12 -18 -15 -20 -61 -3 -78 15
-15 60 -16 76 0 8 8 15 8 25 0 21 -18 23 -9 16 69 -8 92 -23 106 -96 92z m65
-110 c4 -24 -30 -48 -54 -39 -20 8 -18 43 4 55 25 16 47 9 50 -16z"/>
<path d="M24602 14474 c-34 -23 -25 -54 23 -81 56 -31 55 -58 -3 -57 -55 1
-50 -20 6 -24 34 -3 43 1 57 21 21 32 11 54 -36 78 -58 29 -45 68 17 53 26 -7
34 10 8 20 -26 10 -48 7 -72 -10z"/>
<path d="M1915 14249 c-11 -16 -1 -19 13 -3 7 8 8 14 3 14 -5 0 -13 -5 -16
-11z"/>
<path d="M18600 11430 c0 -5 -9 -10 -20 -10 -17 0 -20 -7 -20 -53 0 -29 7 -74
16 -100 13 -38 20 -47 39 -47 39 0 85 12 79 21 -3 5 -1 9 5 9 27 0 41 33 41
101 0 42 4 69 11 69 5 0 7 5 4 10 -3 6 -40 10 -81 10 -43 0 -74 -4 -74 -10z"/>
<path d="M19358 11429 c-27 -10 -29 -16 -40 -118 -3 -27 -53 -49 -62 -28 -2 7
-5 2 -5 -10 -1 -12 -8 -26 -17 -31 -29 -16 3 -24 119 -29 62 -2 171 -10 242
-17 72 -7 202 -14 290 -15 143 -1 163 1 184 18 21 16 24 27 24 79 -1 78 -9
102 -35 102 -12 0 -35 4 -52 9 -58 18 -191 32 -319 33 -71 1 -130 5 -133 10
-7 11 -163 9 -196 -3z"/>
<path d="M18030 11383 c-37 -5 -160 -38 -242 -64 -136 -44 -228 -86 -228 -105
0 -11 34 -14 188 -13 196 1 356 10 367 20 3 4 3 43 -1 88 -8 89 -5 87 -84 74z"/>
<path d="M20452 11172 c-1 -37 -10 -121 -19 -187 -11 -89 -14 -149 -8 -230 8
-110 7 -804 -1 -817 -3 -4 -21 0 -42 9 -62 26 -134 43 -188 43 -58 0 -67 7
-83 65 -13 47 -44 84 -98 118 -22 14 -47 32 -55 41 -9 8 -34 24 -55 36 -22 11
-51 32 -64 46 -50 53 -85 67 -153 61 -35 -3 -89 -17 -121 -31 -32 -15 -62 -26
-67 -26 -5 0 -18 16 -29 35 -20 33 -24 35 -75 35 -39 0 -56 -4 -60 -15 -4 -8
-16 -15 -28 -15 -19 1 -19 2 -3 11 15 9 12 13 -28 35 -56 29 -59 30 -87 2 -34
-34 -115 -88 -132 -88 -8 0 -26 -14 -41 -31 -27 -33 -28 -69 -1 -111 8 -14 7
-25 -6 -50 -9 -18 -19 -45 -22 -60 -5 -20 -12 -28 -29 -28 -12 0 -37 -9 -55
-20 -18 -11 -41 -20 -51 -20 -10 0 -20 -3 -24 -6 -3 -4 -48 -6 -99 -6 -74 0
-94 3 -104 17 -11 15 -14 15 -33 -4 -25 -25 -37 -66 -22 -76 8 -4 8 -12 0 -26
-14 -27 -31 -114 -33 -169 -1 -29 -7 -50 -18 -60 -19 -16 -26 -98 -13 -159 5
-19 3 -36 -2 -40 -19 -11 -42 -68 -37 -88 4 -13 -3 -28 -20 -44 -35 -33 -32
-42 8 -21 23 12 43 35 65 78 33 64 81 119 81 93 0 -8 -9 -29 -20 -47 -11 -18
-20 -39 -20 -48 0 -8 -4 -12 -10 -9 -5 3 -10 -4 -10 -16 0 -18 2 -19 15 -9 8
7 15 19 15 26 0 8 14 28 30 46 17 17 30 35 30 39 0 5 6 9 14 9 7 0 19 7 26 15
10 12 10 18 -1 31 -12 14 -11 16 6 13 14 -3 21 -14 23 -34 8 -65 68 -88 99
-37 82 134 100 154 113 132 6 -9 24 3 62 41 30 30 69 67 87 82 17 15 29 32 26
36 -7 12 -45 2 -70 -17 -11 -9 -8 -3 7 14 15 16 40 44 54 62 24 30 31 33 62
27 32 -6 34 -5 29 14 -3 12 -2 21 1 21 4 0 14 13 23 28 13 23 39 38 121 70 58
22 146 52 196 67 86 26 95 27 194 18 95 -9 188 -37 188 -55 0 -4 27 -22 61
-39 50 -25 68 -29 100 -24 31 5 40 3 45 -9 3 -9 1 -22 -4 -29 -8 -9 2 -33 38
-92 27 -44 63 -108 79 -143 29 -61 30 -69 35 -248 5 -175 4 -185 -14 -197 -11
-6 -20 -17 -20 -24 0 -6 -5 -15 -12 -19 -8 -5 -9 -2 -5 9 4 11 -1 21 -15 28
-12 7 -33 23 -47 36 -54 50 -148 87 -255 99 -56 7 -110 14 -121 16 -13 2 -20
-3 -20 -14 0 -9 -14 -32 -31 -50 -22 -23 -37 -54 -50 -107 -14 -54 -24 -75
-39 -81 -25 -10 -51 -38 -59 -66 -6 -20 -60 -44 -101 -44 -11 0 -15 -5 -12
-14 4 -9 -3 -16 -19 -20 -45 -12 -25 -51 64 -122 17 -14 32 -34 32 -44 0 -10
5 -22 10 -25 12 -7 12 -16 1 -33 -6 -11 -20 -1 -56 37 -26 27 -68 60 -93 72
-96 43 -117 54 -132 65 -8 6 -44 16 -80 21 -55 9 -74 8 -125 -8 -34 -10 -70
-27 -80 -37 -11 -10 -28 -21 -38 -25 -16 -6 -16 -4 -2 31 9 20 20 39 25 40 6
2 10 10 10 17 0 22 95 100 172 140 154 81 174 122 28 58 -124 -55 -226 -162
-304 -319 -62 -123 -71 -169 -17 -85 19 28 35 50 37 48 2 -2 -4 -56 -13 -120
-14 -97 -14 -125 -4 -172 7 -30 16 -55 20 -55 5 0 22 -22 39 -50 26 -42 29
-51 16 -58 -13 -7 -11 -13 13 -39 48 -51 63 -55 160 -43 86 11 160 37 183 66
7 7 18 14 25 14 23 0 47 37 40 62 -4 13 -12 26 -17 29 -6 4 -4 16 6 31 14 22
27 27 84 32 108 11 163 61 182 165 6 35 9 66 6 69 -4 3 0 15 7 26 11 18 30 87
52 192 4 19 8 17 48 -20 44 -41 69 -77 121 -169 27 -49 27 -67 1 -67 -21 0
-90 -38 -110 -60 -10 -11 -27 -20 -37 -20 -10 0 -22 -10 -27 -23 -5 -13 -23
-35 -39 -49 -16 -13 -33 -36 -37 -49 -4 -13 -10 -26 -14 -29 -3 -3 -16 -19
-28 -37 -16 -23 -19 -33 -10 -37 7 -3 5 -4 -4 -3 -16 2 -64 -34 -140 -106 -53
-50 -135 -107 -153 -107 -8 0 -16 -5 -18 -11 -7 -21 -48 0 -48 24 0 13 -9 29
-19 37 -11 7 -17 18 -14 24 3 6 0 5 -8 -1 -7 -7 -27 -13 -44 -13 l-30 0 3 -78
3 -78 -48 -31 c-44 -28 -70 -38 -157 -57 -21 -5 -27 -11 -23 -26 3 -13 -1 -21
-13 -25 -20 -6 -36 -41 -46 -100 -4 -22 -13 -48 -21 -57 -9 -10 -13 -24 -10
-32 7 -18 -37 -78 -64 -88 -28 -11 -96 1 -110 18 -6 8 -25 14 -41 14 -35 0
-63 14 -100 48 l-28 26 0 -23 c0 -21 80 -107 206 -222 54 -50 119 -72 188 -66
34 3 72 9 86 13 22 6 23 5 10 -9 -8 -9 -40 -22 -70 -29 -44 -11 -56 -19 -58
-36 -2 -12 -12 -27 -23 -32 -10 -6 -19 -18 -19 -26 0 -14 27 -71 40 -84 13
-13 29 -51 35 -81 4 -21 26 -56 56 -89 65 -72 69 -77 69 -89 0 -6 9 -16 20
-23 11 -7 20 -18 20 -25 0 -7 11 -13 25 -13 16 0 25 -6 25 -16 0 -9 9 -32 20
-50 12 -18 20 -43 18 -56 -4 -42 21 -106 45 -114 28 -8 67 -43 67 -61 0 -7 15
-30 33 -50 51 -58 107 -135 107 -147 0 -6 -10 -16 -22 -21 -12 -6 -30 -22 -41
-37 -18 -24 -21 -44 -22 -159 l-1 -131 -42 -24 c-60 -34 -65 -32 -58 20 6 37
4 48 -13 65 -12 12 -21 25 -21 31 0 5 -6 13 -12 17 -17 11 -49 69 -42 76 3 3
-11 10 -31 17 -28 9 -41 22 -59 60 -13 26 -44 75 -70 109 -33 43 -45 67 -41
80 16 52 -84 42 -120 -12 -15 -23 -15 -28 0 -64 9 -21 23 -60 31 -86 9 -26 22
-51 30 -54 7 -3 14 -14 14 -24 0 -11 11 -24 25 -31 31 -14 27 -32 -7 -36 -15
-2 -28 -11 -31 -22 -4 -15 4 -20 39 -29 23 -6 52 -11 64 -11 43 0 154 -91 186
-151 7 -15 16 -46 19 -70 4 -24 8 -54 11 -67 l4 -22 267 2 266 3 18 65 c14 48
17 82 13 131 l-7 66 48 26 c33 19 62 27 95 27 26 0 66 6 88 14 23 8 54 14 69
14 16 -1 40 5 53 13 19 10 81 14 235 16 116 1 251 3 300 4 109 1 231 -13 264
-31 15 -7 73 -15 140 -17 107 -5 174 -18 223 -44 16 -9 25 -6 49 17 16 15 29
23 29 16 0 -13 70 56 116 114 42 54 139 226 160 285 10 27 22 49 26 49 4 0 8
13 8 29 0 16 6 34 14 40 8 7 22 38 32 69 10 31 21 59 24 62 4 3 11 28 15 55 4
28 3 47 -1 42 -9 -8 -44 21 -44 37 0 16 -113 130 -129 131 -8 0 -16 11 -18 24
-3 23 -64 83 -126 125 -17 12 -42 39 -54 61 -23 40 -31 101 -14 107 5 2 13 20
16 41 7 33 5 39 -13 44 -13 3 -23 16 -27 33 -3 16 -13 34 -20 40 -19 16 -25
-14 -22 -104 2 -66 1 -69 -32 -96 -37 -32 -58 -30 -67 6 -8 32 -17 30 -67 -15
-23 -21 -52 -41 -63 -45 -24 -7 -35 -43 -27 -92 4 -25 -1 -38 -26 -66 -35 -41
-40 -77 -12 -102 25 -23 52 -14 75 25 20 33 41 34 40 0 -1 -24 1 -25 26 -11
18 10 19 9 4 -31 -8 -23 -30 -62 -49 -85 -28 -34 -34 -49 -29 -69 4 -14 2 -25
-4 -25 -24 0 -42 14 -42 32 0 15 -6 19 -27 17 -33 -3 -73 9 -73 22 0 5 5 9 10
9 6 0 10 11 10 24 0 19 -6 25 -27 28 -19 2 -29 10 -34 28 -11 39 -10 108 1
115 15 9 12 53 -6 91 -13 27 -19 32 -30 23 -7 -6 -16 -21 -20 -32 -12 -38 -45
-77 -65 -77 -25 0 -24 9 6 66 14 26 25 56 25 66 0 10 7 32 15 48 15 28 14 30
-4 30 -29 0 -68 -38 -99 -94 -33 -61 -78 -98 -92 -76 -5 8 -6 35 -3 60 9 67 9
72 -3 77 -6 2 -22 -14 -36 -35 -21 -31 -32 -39 -57 -39 -17 0 -33 7 -36 14 -2
8 8 53 25 101 16 48 37 107 45 132 30 89 48 121 63 115 7 -3 17 -5 22 -5 4 0
10 -13 14 -30 4 -24 11 -30 30 -30 15 0 30 -8 36 -20 6 -12 21 -20 35 -20 13
0 33 -9 44 -21 28 -31 65 -22 69 16 2 25 -8 41 -64 98 -47 47 -74 67 -92 67
-15 0 -37 13 -58 36 -25 26 -39 34 -54 29 -18 -6 -20 -2 -20 37 0 52 -2 55
-64 102 -44 33 -50 35 -61 20 -9 -13 -20 -15 -46 -10 -19 3 -39 7 -46 8 -18 2
-24 27 -13 48 6 10 10 23 10 29 0 18 -42 23 -82 10 -35 -11 -41 -11 -59 8 -20
19 -20 21 -3 64 9 24 25 53 36 65 10 11 18 25 18 31 0 6 7 16 15 23 9 7 13 21
10 31 -4 11 1 21 14 28 10 6 33 24 49 41 29 29 30 31 11 40 -10 6 -19 16 -19
23 0 7 -20 32 -45 55 -25 23 -45 46 -45 50 0 4 9 22 20 40 24 39 49 41 94 7
46 -35 73 -33 90 9 8 18 19 36 24 40 6 4 14 27 18 51 3 25 10 48 15 51 12 7
48 -35 49 -55 0 -8 10 -25 21 -37 13 -13 23 -41 26 -67 5 -38 2 -47 -15 -56
-11 -6 -22 -24 -24 -43 -4 -27 2 -39 41 -81 44 -48 158 -129 206 -147 16 -6
29 -4 45 7 26 18 24 42 -16 261 -4 21 -9 22 -95 22 l-91 0 7 37 c4 21 9 41 11
45 2 3 33 10 68 13 58 7 65 9 69 32 7 39 -26 255 -47 303 -9 22 29 78 59 86
35 9 72 -18 80 -58 4 -18 13 -55 20 -83 7 -27 24 -88 36 -135 32 -119 77 -183
95 -135 4 9 19 15 39 15 34 0 45 -13 45 -52 0 -18 4 -20 31 -14 17 3 54 6 81
6 30 0 47 4 43 10 -9 15 4 12 22 -5 18 -19 36 -10 28 15 -3 10 -1 21 4 25 7 4
6 18 -3 43 -7 20 -18 53 -25 72 -7 19 -15 92 -18 161 -6 131 -5 138 44 273 8
21 10 43 6 47 -15 15 -167 18 -186 4 -10 -7 -26 -11 -36 -8 -10 3 -35 0 -55
-6 -26 -7 -77 -6 -164 1 -70 6 -128 11 -129 12 0 0 -4 18 -8 38 l-7 37 42 3
c34 2 45 8 51 25 7 20 3 24 -40 40 -42 14 -47 20 -45 42 2 14 6 69 9 121 3 52
8 116 11 143 4 38 2 47 -11 47 -12 0 -15 13 -15 63 -1 34 -2 226 -3 426 l-2
365 -36 16 c-59 25 -69 38 -69 86 0 70 21 124 50 130 14 3 33 10 43 15 10 5
70 13 133 16 63 3 110 9 104 13 -19 12 16 20 88 20 45 0 71 -5 82 -15 22 -20
72 -24 78 -6 11 32 -339 331 -387 331 -6 0 -11 4 -11 8 0 5 -12 15 -27 23 -26
13 -107 58 -178 99 -16 9 -41 19 -55 23 -25 6 -25 5 -28 -61z m-727 -852 c-3
-5 -15 -10 -25 -10 -10 0 -22 5 -25 10 -4 6 7 10 25 10 18 0 29 -4 25 -10z
m-240 -80 c12 -19 -38 -32 -70 -19 l-30 13 40 6 c22 4 43 8 47 9 4 0 10 -3 13
-9z m-322 -47 c-7 -2 -19 -2 -25 0 -7 3 -2 5 12 5 14 0 19 -2 13 -5z m60 0
c-7 -2 -19 -2 -25 0 -7 3 -2 5 12 5 14 0 19 -2 13 -5z m90 0 c-7 -2 -19 -2
-25 0 -7 3 -2 5 12 5 14 0 19 -2 13 -5z m477 -923 c-9 -14 -20 -32 -24 -40 -3
-8 -4 4 -1 27 3 23 1 45 -5 48 -5 3 -10 13 -10 21 0 12 7 10 29 -8 28 -22 28
-24 11 -48z m63 43 c-7 -2 -19 -2 -25 0 -7 3 -2 5 12 5 14 0 19 -2 13 -5z
m-100 -155 c-3 -16 -9 -28 -14 -28 -10 0 -12 41 -3 65 10 26 23 -4 17 -37z m1
-116 c2 -23 0 -42 -5 -42 -5 0 -9 21 -9 47 0 56 8 53 14 -5z m13 -74 c-3 -8
-6 -5 -6 6 -1 11 2 17 5 13 3 -3 4 -12 1 -19z m20 -40 c-3 -8 -6 -5 -6 6 -1
11 2 17 5 13 3 -3 4 -12 1 -19z m479 -3 c10 -26 0 -37 -20 -22 -11 8 -16 19
-12 25 10 16 26 15 32 -3z m-1064 -36 c61 -31 149 -108 161 -142 4 -10 11 -15
17 -12 5 3 14 -5 19 -18 5 -13 18 -27 29 -30 17 -4 20 -11 17 -48 -2 -24 -4
-50 -4 -56 -1 -15 -41 -18 -41 -3 0 6 -6 10 -14 10 -8 0 -17 13 -21 28 -3 17
-18 35 -38 47 -18 10 -59 40 -92 65 -77 59 -130 91 -138 84 -9 -9 -74 23 -80
39 -7 17 27 47 53 47 10 0 22 5 25 10 11 17 44 11 107 -21z m1018 1 c0 -5 -5
-10 -11 -10 -5 0 -7 5 -4 10 3 6 8 10 11 10 2 0 4 -4 4 -10z m-323 -66 c-3 -3
-12 -4 -19 -1 -8 3 -5 6 6 6 11 1 17 -2 13 -5z m133 -129 c0 -3 -13 -31 -30
-62 -16 -31 -30 -63 -30 -71 0 -20 -52 -100 -69 -107 -34 -13 -31 16 9 101 22
49 44 96 49 104 12 22 71 51 71 35z m-1056 -237 c18 -35 21 -68 7 -68 -15 0
-71 51 -71 64 0 16 21 36 36 36 7 0 20 -14 28 -32z m673 -10 c6 -7 12 -23 15
-35 5 -20 4 -20 -26 -8 -17 7 -31 18 -30 24 2 27 5 31 18 31 7 0 18 -6 23 -12z
m-565 -62 c21 -15 13 -26 -18 -26 -33 0 -54 10 -54 26 0 18 49 18 72 0z m948
-305 c0 -14 -18 -23 -30 -16 -6 4 -8 11 -5 16 8 12 35 12 35 0z m-153 -33 c-3
-8 -6 -5 -6 6 -1 11 2 17 5 13 3 -3 4 -12 1 -19z m34 -68 c5 0 9 -13 9 -28 0
-15 4 -32 9 -37 16 -19 33 -187 23 -230 -9 -37 -10 -35 -11 35 -1 73 -21 192
-41 245 -5 14 -9 36 -9 48 2 17 3 15 6 -5 2 -16 9 -28 14 -28z m-257 -215 c6
-23 5 -26 -3 -13 -6 9 -13 38 -16 65 -5 51 -5 52 19 -52z m267 -224 c-13 -23
-40 -45 -47 -38 -8 8 38 67 48 61 4 -3 4 -13 -1 -23z m-1231 -11 c0 -5 -8 -10
-17 -10 -15 0 -16 2 -3 10 19 12 20 12 20 0z m434 -14 c-3 -8 -12 -12 -20 -9
-17 6 -9 23 11 23 8 0 12 -6 9 -14z m848 -275 c-48 -134 -85 -313 -81 -388 2
-23 -2 -47 -8 -55 -6 -7 -16 -31 -23 -53 -6 -22 -21 -58 -31 -81 -10 -22 -19
-49 -19 -59 0 -29 -49 -164 -74 -204 -26 -40 -93 -101 -112 -101 -20 0 -25 30
-8 55 18 28 11 100 -11 108 -12 5 -64 -17 -75 -31 -33 -44 -134 -71 -151 -40
-8 14 -3 19 29 27 25 7 50 25 75 55 43 52 45 63 15 68 -32 4 -37 72 -9 127 12
22 21 48 21 58 0 10 7 27 15 37 8 11 15 39 15 61 0 29 6 47 20 60 11 10 20 30
20 45 0 15 14 44 31 66 35 44 62 102 53 115 -10 17 -12 69 -3 69 15 0 79 68
79 84 0 8 10 16 23 18 31 5 77 -13 77 -30 0 -8 6 -12 14 -9 7 3 18 1 23 -4 16
-16 103 86 105 124 1 19 3 13 5 -17 3 -33 -3 -69 -15 -105z m-520 11 c21 -66
22 -75 8 -67 -16 10 -40 74 -40 108 0 41 10 28 32 -41z m768 -28 c0 -2 -7 -4
-15 -4 -8 0 -15 4 -15 10 0 5 7 7 15 4 8 -4 15 -8 15 -10z m417 -191 c7 -20
-35 -37 -54 -22 -13 12 -13 14 3 26 21 15 45 14 51 -4z m505 -75 c-2 -18 -11
-39 -20 -45 -14 -12 -13 -13 6 -13 19 0 20 -3 10 -25 -15 -34 -44 -32 -51 3
-3 15 -1 31 4 37 5 5 9 15 9 23 0 10 31 45 46 52 0 0 -1 -15 -4 -32z m-502
-108 c0 -23 -25 -27 -46 -6 -21 21 -18 26 16 26 23 0 30 -4 30 -20z m415 -70
c3 -6 -2 -13 -12 -17 -10 -4 -24 -13 -31 -20 -16 -16 -29 -17 -37 -3 -3 6 0
10 8 10 8 0 22 9 32 20 20 22 31 25 40 10z m-1111 -80 c-13 -25 -34 -41 -34
-26 0 2 -3 11 -6 20 -4 11 0 16 14 16 12 0 24 5 27 10 14 22 13 8 -1 -20z
m1000 23 c9 -9 -92 -52 -124 -53 -15 0 -31 -5 -37 -11 -13 -13 -106 -14 -130
-1 -16 10 -15 11 7 16 14 2 60 7 103 10 49 3 85 10 95 19 10 9 28 17 42 20 14
2 28 5 31 6 3 0 9 -2 13 -6z m-1479 -543 c-9 -14 -76 -41 -89 -36 -6 2 -4 5 5
5 9 1 24 10 34 21 18 20 62 29 50 10z"/>
<path d="M18146 11033 c-4 -4 -152 -11 -329 -15 -311 -6 -377 -11 -377 -28 0
-21 80 -33 195 -30 218 6 345 0 429 -21 82 -21 106 -20 106 5 0 8 5 16 12 18
9 3 7 14 -5 41 -19 40 -20 41 -31 30z"/>
<path d="M17220 11006 c-14 -8 -29 -12 -34 -9 -5 4 -6 1 -2 -5 3 -5 0 -13 -6
-15 -7 -3 13 -6 45 -6 32 -1 57 3 57 9 0 6 -5 10 -11 10 -6 0 -9 7 -5 15 7 19
-11 19 -44 1z"/>
<path d="M19920 11010 c-8 -5 -53 -10 -100 -10 -83 -1 -165 -12 -177 -23 -9
-10 6 -54 24 -72 11 -11 25 -15 45 -11 16 3 48 -1 71 -8 23 -8 74 -18 112 -21
39 -4 85 -14 104 -23 40 -19 58 -10 85 39 22 40 18 71 -15 112 -18 24 -28 27
-77 27 -31 0 -64 -5 -72 -10z"/>
<path d="M17320 10995 c0 -8 5 -15 10 -15 6 0 10 7 10 15 0 8 -4 15 -10 15 -5
0 -10 -7 -10 -15z"/>
<path d="M16696 10485 c-9 -26 -7 -32 5 -12 6 10 9 21 6 23 -2 3 -7 -2 -11
-11z"/>
<path d="M16633 10427 c-22 -12 -52 -30 -64 -40 -13 -10 -30 -22 -38 -26 -7
-5 -12 -14 -10 -20 3 -7 18 1 36 18 54 49 97 14 62 -51 -8 -15 -8 -22 1 -28
15 -9 18 -129 3 -138 -6 -4 -13 -17 -17 -29 -7 -23 -26 -32 -26 -13 0 6 -12
10 -26 10 -20 0 -25 4 -20 16 3 9 2 12 -5 8 -12 -7 -3 -174 10 -187 4 -4 41
-7 82 -5 l74 3 2 205 c1 113 4 218 8 233 6 22 3 34 -11 48 -19 19 -20 19 -61
-4z"/>
<path d="M18079 10308 c-23 -29 -57 -64 -75 -77 -29 -21 -46 -51 -28 -51 3 0
43 38 90 84 46 47 84 87 84 90 0 3 -7 6 -15 6 -8 0 -33 -24 -56 -52z"/>
<path d="M16475 10320 c-3 -5 1 -10 9 -10 8 0 18 5 21 10 3 6 -1 10 -9 10 -8
0 -18 -4 -21 -10z"/>
<path d="M16388 10272 c-32 -15 -58 -30 -58 -34 0 -6 61 13 70 22 3 3 21 13
40 22 19 9 28 17 20 17 -8 -1 -41 -13 -72 -27z"/>
<path d="M15770 10255 c-16 -19 -1 -19 24 0 16 12 17 15 4 15 -8 0 -21 -7 -28
-15z"/>
<path d="M16298 10233 c7 -3 16 -2 19 1 4 3 -2 6 -13 5 -11 0 -14 -3 -6 -6z"/>
<path d="M15701 10199 c-17 -18 -31 -40 -31 -48 0 -7 10 -1 22 15 13 16 29 34
38 41 8 6 12 15 8 18 -4 4 -21 -8 -37 -26z"/>
<path d="M15637 10101 c-24 -42 -21 -52 4 -13 12 18 20 35 17 37 -2 2 -12 -9
-21 -24z"/>
<path d="M17803 10022 c-10 -10 -32 -28 -49 -40 -17 -11 -42 -42 -55 -69 -13
-26 -30 -54 -36 -61 -7 -7 -13 -18 -13 -23 0 -19 18 -8 51 32 19 23 60 72 92
110 37 44 53 69 43 69 -8 0 -23 -8 -33 -18z"/>
<path d="M15601 10004 c0 -11 3 -14 6 -6 3 7 2 16 -1 19 -3 4 -6 -2 -5 -13z"/>
<path d="M17305 9995 c-5 -2 -55 -6 -110 -8 -95 -4 -165 -20 -151 -34 5 -5
293 -8 384 -4 6 1 12 10 12 21 0 11 -6 20 -12 21 -82 6 -115 7 -123 4z"/>
<path d="M15577 9950 c-4 -19 -8 -66 -8 -104 -1 -38 -7 -87 -15 -109 -19 -53
-18 -71 8 -153 30 -98 46 -122 119 -177 52 -39 51 -34 -3 25 -26 29 -48 60
-48 70 0 10 -4 18 -10 18 -5 0 -10 11 -10 25 0 14 -4 25 -10 25 -6 0 -11 81
-12 208 -2 125 -6 193 -11 172z"/>
<path d="M19195 9795 c-39 -20 -75 -64 -75 -91 0 -24 35 -39 67 -28 15 6 16 4
6 -7 -8 -7 -13 -41 -14 -78 0 -37 -4 -75 -8 -85 -7 -18 -10 -17 -31 12 -33 44
-50 42 -43 -5 3 -21 10 -39 15 -41 4 -2 8 -10 8 -17 0 -13 74 -93 116 -126 12
-9 23 -22 25 -28 5 -15 70 -30 126 -31 75 0 141 20 186 56 23 20 50 42 60 50
27 22 10 38 -20 19 -14 -9 -27 -15 -29 -12 -9 8 31 67 42 63 19 -7 5 84 -22
142 -55 120 -184 211 -311 219 -50 3 -76 0 -98 -12z m110 -485 c-3 -5 -10 -10
-16 -10 -5 0 -9 5 -9 10 0 6 7 10 16 10 8 0 12 -4 9 -10z"/>
<path d="M16375 9706 c-27 -12 -55 -51 -55 -76 0 -6 16 -10 35 -10 24 0 35 5
35 15 0 8 9 15 20 15 38 0 21 -34 -56 -114 -6 -6 -17 -22 -23 -35 -11 -19 -11
-25 0 -32 26 -17 60 -21 115 -14 52 6 55 8 52 33 -2 22 -9 28 -35 30 l-33 3
35 46 c53 69 45 118 -24 141 -19 7 -34 12 -35 12 -1 -1 -15 -7 -31 -14z"/>
<path d="M16591 9684 c-11 -15 -21 -32 -21 -40 0 -7 -4 -14 -8 -16 -14 -6 -52
-75 -52 -96 0 -16 9 -21 45 -26 28 -5 45 -12 45 -21 0 -20 31 -35 51 -24 9 4
20 20 23 34 10 38 26 30 23 -12 -2 -32 1 -38 17 -38 14 0 24 13 36 45 9 25 20
54 24 65 4 11 12 28 17 37 5 10 9 28 9 41 0 22 4 23 60 23 50 -1 60 -4 60 -18
0 -10 -4 -18 -10 -18 -5 0 -10 -9 -10 -20 0 -11 -4 -20 -10 -20 -5 0 -10 -6
-10 -14 0 -8 -10 -31 -22 -52 -20 -34 -20 -37 -4 -49 24 -18 51 -8 66 23 7 15
16 35 21 44 5 10 9 25 9 33 0 8 4 15 9 15 5 0 11 10 14 23 3 12 11 37 18 55
19 46 6 52 -115 52 -106 0 -125 -8 -126 -57 0 -12 -4 -25 -10 -28 -5 -3 -10
-15 -10 -26 0 -10 -5 -28 -12 -38 -11 -17 -13 -18 -29 -2 -13 12 -19 35 -21
81 -3 62 -4 65 -29 68 -19 2 -33 -4 -48 -24z"/>
<path d="M18190 9530 l-35 -7 43 -2 c27 0 41 3 37 9 -3 6 -7 9 -8 9 -1 -1 -18
-5 -37 -9z"/>
<path d="M16142 9284 c-33 -23 -31 -86 3 -113 23 -18 29 -18 58 -6 27 11 35
11 51 -1 10 -7 22 -11 27 -9 17 11 100 22 105 14 3 -6 135 -6 164 0 3 0 6 19
7 41 2 33 -3 43 -23 57 -23 15 -26 15 -49 -7 l-25 -23 0 31 c0 22 -5 32 -15
32 -8 0 -15 -7 -15 -15 0 -8 -6 -15 -14 -15 -8 0 -22 -7 -30 -16 -9 -8 -17
-12 -17 -7 -1 4 -2 13 -4 18 -1 6 -3 16 -3 23 -3 19 -20 14 -27 -8 -3 -11 -15
-20 -25 -20 -10 0 -20 -6 -22 -12 -3 -9 -10 -8 -23 5 -9 10 -24 16 -31 13 -8
-3 -14 1 -14 8 0 28 -45 33 -78 10z m68 -33 c24 -7 24 -7 -9 -14 -24 -5 -32
-11 -27 -22 3 -8 1 -15 -3 -15 -13 0 -21 27 -15 45 7 16 15 17 54 6z m220 -37
c0 -8 -4 -14 -10 -14 -5 0 -10 9 -10 21 0 11 5 17 10 14 6 -3 10 -13 10 -21z
m37 -26 c-3 -8 -6 -5 -6 6 -1 11 2 17 5 13 3 -3 4 -12 1 -19z"/>
<path d="M16617 9285 c-24 -24 -21 -37 13 -60 33 -22 38 -35 15 -35 -8 0 -15
7 -15 16 0 20 -24 13 -28 -9 -2 -9 8 -22 25 -30 25 -13 32 -13 56 0 26 13 31
13 46 -2 14 -12 24 -13 45 -5 36 13 36 13 36 -10 0 -26 4 -25 46 6 28 22 34
33 34 64 0 25 -5 40 -16 44 -24 9 -64 7 -64 -3 0 -5 -9 -7 -20 -4 -16 4 -21
-1 -26 -26 -8 -38 -24 -41 -24 -3 -1 49 -90 91 -123 57z m74 -42 c13 -15 12
-15 -11 -3 -34 17 -36 20 -18 20 9 0 22 -7 29 -17z m169 -22 c0 -11 -4 -22 -9
-25 -11 -7 -23 22 -15 35 9 16 24 10 24 -10z"/>
<path d="M17165 9280 c-3 -5 -20 -10 -36 -10 -22 0 -32 -6 -38 -22 l-8 -23 -7
22 c-4 11 -16 23 -27 26 -20 5 -49 -16 -49 -36 0 -6 -7 -1 -16 11 -12 17 -24
22 -47 20 l-32 -3 0 -64 c0 -43 4 -66 13 -68 6 -3 12 2 12 10 0 8 13 17 30 21
18 3 30 12 30 21 0 12 7 8 23 -11 20 -23 26 -25 45 -15 12 6 22 17 22 23 0 7
6 4 13 -6 11 -15 15 -15 24 -4 6 7 13 24 15 37 5 37 26 37 30 0 2 -20 12 -37
27 -47 23 -16 23 -16 16 8 -5 14 -9 43 -10 65 -1 22 -3 43 -4 48 -2 10 -19 9
-26 -3z m-205 -60 c0 -11 -7 -20 -15 -20 -8 0 -15 9 -15 20 0 11 7 20 15 20 8
0 15 -9 15 -20z m85 -18 c-3 -4 -10 0 -15 8 -6 9 -5 17 3 22 13 8 24 -19 12
-30z"/>
<path d="M18470 9192 c0 -13 7 -39 15 -59 16 -39 13 -49 -20 -55 -11 -2 -20
-9 -19 -16 1 -6 2 -28 3 -48 1 -28 12 -47 53 -90 39 -42 49 -57 40 -66 -7 -7
-12 -20 -12 -30 0 -10 -4 -18 -10 -18 -5 0 -10 -11 -10 -25 0 -14 3 -25 6 -25
14 0 33 36 34 61 0 14 4 29 9 35 5 5 11 32 14 60 5 43 2 55 -13 69 -10 9 -22
31 -26 49 -3 17 -10 36 -14 41 -4 6 -13 35 -21 65 -14 60 -29 87 -29 52z"/>
<path d="M19320 9087 c0 -18 28 -42 37 -33 9 8 -9 38 -25 44 -7 2 -12 -3 -12
-11z"/>
<path d="M17649 9063 c-48 -25 -55 -32 -61 -68 -22 -123 -33 -165 -41 -165 -5
0 -7 23 -5 51 l5 51 -45 -6 c-25 -3 -46 -7 -47 -9 -1 -1 -24 -31 -52 -67 -61
-79 -73 -101 -73 -135 0 -15 -9 -40 -21 -57 -12 -16 -19 -31 -17 -34 8 -8 144
130 156 159 6 15 16 27 21 27 23 0 60 -24 64 -41 5 -19 12 -23 59 -33 15 -3
33 -13 42 -21 8 -8 24 -15 34 -15 11 0 22 -6 25 -12 7 -21 42 5 45 33 2 13 7
33 12 44 17 39 18 66 3 80 -8 8 -10 15 -4 15 6 0 11 8 11 18 0 14 -2 15 -10 2
-5 -8 -10 -10 -10 -5 0 6 -12 12 -27 13 -38 3 -40 10 -11 37 31 28 47 110 28
144 -14 27 -16 26 -81 -6z"/>
<path d="M17896 9008 c-9 -17 -13 -34 -10 -39 2 -5 -2 -21 -9 -36 -28 -54 -40
-146 -38 -288 2 -123 5 -143 22 -161 10 -11 17 -23 14 -25 -2 -3 -12 -57 -21
-120 -31 -218 2 -913 46 -962 4 -4 7 14 8 40 0 53 19 220 26 239 3 7 -2 36
-10 66 -21 76 -30 286 -14 329 7 19 16 54 19 79 l6 45 71 -3 72 -3 11 32 c6
18 11 41 11 51 0 11 21 72 47 136 25 65 48 139 51 165 3 28 10 51 18 54 8 3
14 14 14 24 0 32 71 98 138 130 69 32 76 50 21 60 -42 7 -139 55 -144 72 -2 7
-6 28 -9 48 -4 25 -13 38 -26 42 -27 7 -33 -3 -13 -26 28 -31 20 -85 -27 -181
-24 -48 -45 -85 -47 -82 -3 2 0 13 5 23 5 10 13 41 17 70 6 45 4 53 -13 62
-11 6 -22 7 -26 4 -4 -4 1 13 9 37 15 41 14 45 -4 63 -23 23 -48 13 -81 -33
-14 -19 -30 -30 -46 -30 -27 0 -30 11 -12 40 10 16 9 24 -10 49 -12 17 -22 34
-22 40 0 5 -7 11 -15 14 -9 4 -19 -5 -29 -25z"/>
<path d="M16200 8923 c0 -7 12 -25 26 -40 14 -15 34 -39 44 -53 16 -21 18 -22
14 -5 -6 25 -83 115 -84 98z"/>
<path d="M16560 8905 c0 -2 18 -33 41 -67 40 -62 43 -52 8 30 -10 23 -25 42
-34 42 -8 0 -15 -2 -15 -5z"/>
<path d="M17233 8903 c9 -2 25 -2 35 0 9 3 1 5 -18 5 -19 0 -27 -2 -17 -5z"/>
<path d="M16530 8637 c0 -78 3 -97 18 -110 10 -10 25 -17 33 -17 23 0 9 157
-16 193 -11 14 -23 27 -27 27 -5 0 -8 -42 -8 -93z"/>
<path d="M21061 8442 l-143 -3 7 -97 c11 -155 43 -200 94 -131 28 37 124 83
158 75 26 -7 62 -53 78 -98 8 -26 19 -34 63 -48 29 -10 61 -25 72 -35 27 -25
80 -200 80 -268 0 -60 -12 -75 -56 -72 -37 3 -43 13 -38 63 4 36 1 54 -15 77
-14 21 -21 25 -25 15 -3 -8 -12 -36 -20 -62 -9 -26 -21 -57 -28 -67 -16 -26
-4 -37 26 -23 22 10 24 8 30 -21 4 -18 9 -59 12 -92 11 -137 19 -145 254 -251
74 -34 119 -49 125 -43 10 10 29 814 20 854 -3 17 -18 23 -72 33 -37 7 -84 18
-103 25 -68 24 -169 88 -252 161 -11 10 -35 14 -70 13 -29 -1 -118 -3 -197 -5z"/>
<path d="M4052 8347 c-22 -23 -29 -47 -14 -47 4 1 20 11 35 24 23 19 26 25 14
34 -11 9 -18 7 -35 -11z"/>
<path d="M5560 8326 l0 -45 -34 6 c-26 4 -38 0 -55 -18 -28 -30 -30 -118 -3
-142 21 -19 67 -23 78 -6 4 8 9 8 17 0 6 -6 15 -11 19 -11 14 0 5 253 -9 258
-9 2 -13 -10 -13 -42z m-12 -78 c16 -16 15 -70 -1 -92 -8 -11 -23 -17 -38 -14
-21 3 -24 9 -27 46 -5 62 32 94 66 60z"/>
<path d="M7179 8339 c-27 -39 -19 -47 20 -19 34 24 38 35 16 43 -9 4 -23 -6
-36 -24z"/>
<path d="M8512 8243 l3 -128 46 -3 c61 -4 84 21 83 89 -1 64 -25 93 -71 86
l-33 -6 0 45 c0 33 -4 44 -15 44 -13 0 -15 -19 -13 -127z m99 -4 c24 -47 -15
-121 -57 -105 -18 7 -19 97 -2 114 19 19 46 14 59 -9z"/>
<path d="M9782 8243 l3 -128 28 -3 c29 -4 37 12 12 22 -12 4 -15 27 -15 121 0
97 -2 115 -15 115 -13 0 -15 -19 -13 -127z"/>
<path d="M10720 8351 c-5 -11 -10 -27 -10 -37 0 -9 -8 -23 -17 -30 -17 -13
-17 -14 5 -20 20 -6 22 -12 22 -80 0 -59 3 -74 15 -74 12 0 15 15 15 74 0 70
1 75 23 78 29 4 24 22 -8 26 -43 6 -29 62 16 62 16 0 29 5 29 10 0 6 -18 10
-40 10 -29 0 -42 -5 -50 -19z"/>
<path d="M3335 8335 c-44 -43 -30 -80 44 -114 53 -25 68 -45 51 -66 -17 -20
-44 -23 -83 -10 -51 17 -69 -2 -22 -23 67 -31 145 -2 145 52 0 31 -19 50 -81
82 -54 27 -54 27 -38 56 10 18 17 20 60 14 54 -7 68 7 23 24 -42 16 -73 11
-99 -15z"/>
<path d="M6095 8340 c-8 -14 3 -30 21 -30 8 0 14 9 14 20 0 21 -24 28 -35 10z"/>
<path d="M7415 8340 c-8 -14 3 -30 21 -30 8 0 14 9 14 20 0 21 -24 28 -35 10z"/>
<path d="M11325 8340 c-8 -14 3 -30 21 -30 8 0 14 9 14 20 0 21 -24 28 -35 10z"/>
<path d="M4659 8328 c-1 -7 -1 -19 0 -25 1 -7 -5 -13 -14 -13 -8 0 -15 -7 -15
-15 0 -8 7 -15 15 -15 11 0 15 -17 17 -72 l3 -73 33 -3 c18 -2 32 1 32 7 0 6
-7 11 -15 11 -21 0 -35 33 -35 84 0 42 2 46 25 46 16 0 25 6 25 15 0 9 -9 15
-25 15 -20 0 -25 5 -25 25 0 25 -19 36 -21 13z"/>
<path d="M5989 8328 c-1 -7 -1 -19 0 -25 1 -7 -5 -13 -14 -13 -16 0 -21 -26
-5 -32 5 -1 11 -31 14 -65 6 -76 9 -83 47 -83 35 0 38 15 4 24 -23 6 -25 11
-25 66 0 57 1 60 25 60 16 0 25 6 25 15 0 9 -9 15 -25 15 -20 0 -25 5 -25 25
0 25 -19 36 -21 13z"/>
<path d="M7309 8328 c-1 -7 -1 -19 0 -25 1 -7 -5 -13 -14 -13 -8 0 -15 -7 -15
-15 0 -8 7 -15 15 -15 11 0 15 -17 17 -72 l3 -73 33 -3 c37 -4 42 9 10 23 -19
8 -23 19 -26 68 -3 55 -2 57 23 57 31 0 34 27 3 32 -15 2 -24 11 -26 26 -4 23
-21 31 -23 10z"/>
<path d="M9879 8328 c-1 -7 -1 -19 0 -25 1 -7 -5 -13 -14 -13 -8 0 -15 -7 -15
-15 0 -8 7 -15 15 -15 12 0 15 -13 14 -64 -2 -76 3 -86 42 -86 35 0 38 11 7
25 -19 8 -23 19 -26 68 -3 55 -2 57 23 57 16 0 25 6 25 15 0 9 -9 15 -25 15
-20 0 -25 5 -25 25 0 25 -19 36 -21 13z"/>
<path d="M11989 8328 c-1 -7 -1 -19 0 -25 1 -7 -5 -13 -14 -13 -8 0 -15 -7
-15 -15 0 -8 7 -15 15 -15 11 0 15 -17 17 -72 l3 -73 33 -3 c37 -4 42 9 10 23
-19 8 -23 19 -26 68 -3 55 -2 57 23 57 31 0 34 27 3 32 -15 2 -24 11 -26 26
-4 23 -21 31 -23 10z"/>
<path d="M17776 8275 c-9 -13 -16 -31 -16 -38 0 -8 -12 -41 -26 -73 -30 -68
-42 -160 -25 -192 19 -36 24 -32 66 58 16 33 36 270 23 270 -3 0 -13 -11 -22
-25z"/>
<path d="M3519 8283 c-4 -43 5 -150 13 -160 12 -15 56 -17 78 -3 9 5 19 5 27
-2 8 -6 15 -9 16 -7 2 2 1 43 -1 92 -3 66 -7 87 -18 87 -11 0 -14 -17 -14 -69
0 -72 -6 -81 -50 -81 -17 0 -20 9 -22 72 -2 46 -7 73 -15 76 -7 2 -13 0 -14
-5z"/>
<path d="M3710 8200 c0 -73 3 -90 15 -90 12 0 15 14 15 63 0 65 11 87 42 87
21 0 32 -49 25 -109 -4 -35 -2 -41 14 -41 17 0 19 8 19 69 0 61 3 70 20 76 33
10 40 -3 40 -76 0 -55 3 -69 15 -69 12 0 15 16 15 80 0 76 -1 81 -25 92 -19 8
-31 8 -52 -1 -18 -8 -29 -9 -37 -1 -13 13 -49 13 -63 -1 -8 -8 -13 -8 -17 0
-18 28 -26 3 -26 -79z"/>
<path d="M4000 8270 c-25 -25 -27 -105 -4 -138 23 -33 114 -29 114 5 0 14 -11
13 -56 -4 -14 -5 -44 24 -44 43 0 10 14 14 56 14 l57 0 -7 32 c-13 65 -74 90
-116 48z m80 -30 c12 -23 4 -30 -37 -30 -36 0 -44 18 -18 44 18 17 41 12 55
-14z"/>
<path d="M4158 8283 c-2 -4 -2 -45 0 -90 3 -64 7 -83 18 -83 10 0 14 15 14 59
0 61 15 91 46 91 8 0 14 7 14 15 0 18 -14 19 -41 4 -15 -7 -24 -7 -34 1 -7 6
-15 7 -17 3z"/>
<path d="M4290 8270 c-15 -15 -20 -34 -20 -73 0 -68 22 -93 75 -84 19 3 35 4
35 2 0 -2 -5 -16 -10 -31 -10 -24 -14 -26 -50 -21 -29 4 -40 2 -40 -8 0 -20
55 -28 87 -13 34 16 41 40 42 153 l1 90 -50 2 c-39 2 -55 -2 -70 -17z m78 -22
c16 -16 15 -70 -1 -92 -8 -11 -23 -17 -38 -14 -21 3 -24 9 -27 46 -5 62 32 94
66 60z"/>
<path d="M4480 8270 c-25 -25 -27 -105 -4 -138 23 -33 114 -29 114 5 0 14 -11
13 -56 -4 -14 -5 -44 24 -44 43 0 10 14 14 56 14 l57 0 -7 32 c-13 65 -74 90
-116 48z m80 -31 c15 -27 13 -29 -30 -29 -43 0 -52 16 -25 44 18 18 41 11 55
-15z"/>
<path d="M4770 8270 c-25 -25 -27 -105 -4 -138 23 -33 114 -29 114 5 0 14 -11
13 -56 -4 -14 -5 -44 24 -44 43 0 10 14 14 56 14 l57 0 -7 32 c-13 65 -74 90
-116 48z m80 -31 c15 -27 13 -29 -30 -29 -43 0 -52 16 -25 44 18 18 41 11 55
-15z"/>
<path d="M5020 8270 c-25 -25 -27 -105 -4 -138 23 -33 114 -29 114 5 0 14 -11
13 -56 -4 -14 -5 -44 24 -44 43 0 10 14 14 56 14 l57 0 -7 32 c-13 65 -74 90
-116 48z m80 -31 c15 -27 13 -29 -30 -29 -43 0 -52 16 -25 44 18 18 41 11 55
-15z"/>
<path d="M5190 8200 c0 -73 3 -90 15 -90 12 0 15 14 15 65 0 53 3 66 19 75 42
22 51 14 51 -49 0 -67 6 -91 25 -91 15 0 8 148 -7 168 -12 15 -42 16 -68 2
-13 -7 -21 -7 -25 0 -17 27 -25 2 -25 -80z"/>
<path d="M5660 8270 c-25 -25 -27 -105 -4 -138 23 -33 114 -29 114 5 0 14 -11
13 -56 -4 -14 -5 -44 24 -44 43 0 10 14 14 56 14 l57 0 -7 32 c-13 65 -74 90
-116 48z m80 -31 c15 -27 13 -29 -30 -29 -43 0 -50 12 -24 41 18 20 40 15 54
-12z"/>
<path d="M5826 8277 c-29 -21 -16 -58 32 -90 40 -27 42 -31 28 -45 -13 -14
-21 -14 -46 -5 -20 8 -32 8 -36 1 -18 -28 83 -39 110 -12 32 31 14 66 -46 92
-43 18 -36 42 12 42 40 0 53 13 24 24 -26 10 -59 7 -78 -7z"/>
<path d="M6086 8281 c-4 -5 -2 -12 4 -16 5 -3 10 -40 10 -81 0 -60 3 -74 15
-74 24 0 17 173 -7 178 -9 2 -19 -1 -22 -7z"/>
<path d="M6190 8200 c0 -73 3 -90 15 -90 12 0 15 14 15 65 0 53 3 66 19 75 42
22 51 14 51 -49 0 -67 6 -91 25 -91 15 0 8 148 -7 168 -12 15 -42 16 -68 2
-13 -7 -21 -7 -25 0 -17 27 -25 2 -25 -80z"/>
<path d="M6392 8267 c-27 -28 -30 -101 -6 -135 19 -28 83 -31 106 -4 23 26 30
70 18 108 -19 57 -79 73 -118 31z m72 -13 c18 -18 21 -76 6 -105 -6 -10 -19
-19 -30 -19 -39 0 -55 86 -23 122 20 22 27 22 47 2z"/>
<path d="M6568 8279 c-21 -12 -24 -53 -5 -69 6 -6 27 -20 46 -31 31 -19 33
-22 17 -37 -13 -14 -21 -14 -46 -5 -20 8 -32 8 -36 1 -18 -28 83 -39 110 -12
32 31 14 66 -46 92 -44 18 -36 42 13 42 28 0 39 4 37 13 -6 15 -67 20 -90 6z"/>
<path d="M6800 8270 c-25 -25 -27 -105 -4 -138 23 -33 114 -29 114 5 0 14 -11
13 -56 -4 -14 -5 -44 24 -44 43 0 10 14 14 56 14 l57 0 -7 32 c-13 65 -74 90
-116 48z m80 -31 c15 -27 13 -29 -30 -29 -43 0 -52 16 -25 44 18 18 41 11 55
-15z"/>
<path d="M6950 8285 c0 -3 12 -23 26 -44 l26 -40 -26 -38 c-29 -42 -32 -53
-13 -53 7 0 21 14 31 32 l19 31 26 -32 c14 -17 32 -31 39 -31 17 0 16 5 -15
51 -20 31 -24 45 -16 57 5 10 16 27 24 39 21 35 0 41 -27 8 l-25 -30 -20 28
c-18 23 -49 37 -49 22z"/>
<path d="M7130 8268 c-14 -15 -20 -35 -20 -68 0 -63 21 -90 69 -90 62 0 94 56
71 125 -19 57 -81 75 -120 33z m74 -14 c18 -18 21 -76 6 -105 -6 -10 -19 -19
-30 -19 -39 0 -55 86 -23 122 20 22 27 22 47 2z"/>
<path d="M7406 8281 c-4 -5 -2 -12 4 -16 5 -3 10 -40 10 -81 0 -60 3 -74 15
-74 24 0 17 173 -7 178 -9 2 -19 -1 -22 -7z"/>
<path d="M7522 8267 c-27 -28 -30 -101 -6 -135 18 -26 84 -31 103 -8 16 19 -3
30 -28 16 -25 -13 -27 -13 -45 6 -19 18 -21 85 -4 102 19 19 49 14 55 -8 7
-26 33 -26 33 -1 0 50 -70 68 -108 28z"/>
<path d="M7680 8268 c-14 -15 -20 -35 -20 -68 0 -63 21 -90 69 -90 62 0 94 56
71 125 -19 57 -81 75 -120 33z m74 -14 c18 -18 21 -76 6 -105 -6 -10 -19 -19
-30 -19 -39 0 -55 86 -23 122 20 22 27 22 47 2z"/>
<path d="M7866 8277 c-29 -21 -16 -58 32 -90 40 -27 42 -31 28 -45 -13 -14
-21 -14 -46 -5 -20 8 -32 8 -36 1 -18 -28 83 -39 110 -12 32 31 14 66 -46 92
-43 18 -36 42 12 42 40 0 53 13 24 24 -26 10 -59 7 -78 -7z"/>
<path d="M8186 8277 c-29 -21 -16 -58 32 -90 40 -27 42 -31 28 -45 -13 -14
-21 -14 -46 -5 -20 8 -32 8 -36 1 -18 -28 83 -39 110 -12 32 31 14 66 -46 92
-43 18 -36 42 12 42 40 0 53 13 24 24 -26 10 -59 7 -78 -7z"/>
<path d="M8347 8281 c-31 -12 -17 -26 27 -26 29 0 41 -4 44 -16 2 -12 -7 -18
-33 -22 -48 -8 -65 -23 -65 -57 0 -39 17 -49 80 -47 l55 1 -3 71 c-3 44 -10
76 -20 88 -15 17 -53 21 -85 8z m73 -109 c0 -20 -45 -46 -61 -37 -10 7 -12 39
-2 48 3 4 19 7 35 7 21 0 28 -5 28 -18z"/>
<path d="M8700 8268 c-25 -27 -27 -103 -4 -136 19 -28 83 -31 106 -4 36 40 28
130 -12 152 -31 16 -68 11 -90 -12z m74 -14 c29 -29 15 -124 -19 -124 -44 0
-61 84 -25 120 24 24 24 24 44 4z"/>
<path d="M8868 8283 c-2 -4 -2 -45 0 -90 3 -64 7 -83 18 -83 10 0 14 15 14 59
0 61 15 91 46 91 8 0 14 7 14 15 0 18 -31 20 -48 3 -8 -8 -15 -8 -26 1 -8 7
-16 8 -18 4z"/>
<path d="M9000 8268 c-25 -27 -27 -103 -4 -136 23 -33 114 -29 114 5 0 14 -11
13 -56 -4 -14 -5 -44 24 -44 43 0 10 14 14 56 14 l57 0 -7 32 c-13 66 -74 91
-116 46z m80 -29 c15 -27 13 -29 -30 -29 -43 0 -52 16 -25 44 18 18 41 11 55
-15z"/>
<path d="M9187 8281 c-31 -12 -17 -26 27 -26 29 0 41 -4 44 -16 2 -12 -7 -18
-33 -22 -20 -3 -43 -11 -51 -18 -17 -14 -18 -61 -2 -77 15 -15 53 -16 79 -2
13 7 19 7 19 0 0 -5 6 -10 13 -10 19 0 10 139 -11 163 -15 17 -53 21 -85 8z
m73 -109 c0 -21 -42 -48 -59 -38 -12 8 -15 39 -4 49 3 4 19 7 35 7 20 0 28 -5
28 -18z"/>
<path d="M9431 8264 c-25 -32 -28 -100 -5 -132 18 -26 84 -31 103 -8 16 19 -3
30 -28 16 -25 -13 -27 -13 -45 6 -19 18 -21 85 -4 102 19 19 49 14 55 -8 7
-26 33 -26 33 -1 0 53 -74 69 -109 25z"/>
<path d="M9589 8283 c-4 -43 5 -150 13 -160 12 -15 56 -17 78 -3 9 5 19 5 27
-2 8 -6 15 -9 16 -7 2 2 1 44 -1 92 -5 105 -25 116 -30 16 -3 -66 -11 -79 -49
-79 -21 0 -22 5 -25 72 -2 46 -7 73 -15 76 -7 2 -13 0 -14 -5z"/>
<path d="M9989 8283 c-4 -43 5 -150 13 -160 13 -16 52 -17 79 -3 13 7 19 7 19
0 0 -5 6 -10 13 -10 10 0 12 19 9 88 -5 94 -5 97 -21 87 -6 -3 -11 -35 -11
-70 0 -65 -6 -75 -50 -75 -17 0 -20 9 -22 72 -2 46 -7 73 -15 76 -7 2 -13 0
-14 -5z"/>
<path d="M10178 8283 c-2 -4 -2 -45 0 -90 3 -64 7 -83 18 -83 10 0 14 15 14
59 0 61 15 91 46 91 8 0 14 7 14 15 0 18 -14 19 -41 4 -15 -7 -24 -7 -34 1 -7
6 -15 7 -17 3z"/>
<path d="M10314 8275 c-21 -16 -18 -17 41 -19 54 -1 62 -31 10 -39 -20 -3 -43
-11 -51 -18 -17 -14 -18 -61 -2 -77 15 -15 53 -16 79 -2 13 7 19 7 19 0 0 -5
6 -10 13 -10 19 0 10 139 -11 163 -18 21 -71 22 -98 2z m86 -103 c0 -20 -45
-46 -61 -37 -10 7 -12 39 -2 48 3 4 19 7 35 7 21 0 28 -5 28 -18z"/>
<path d="M10488 8279 c-10 -5 -18 -22 -18 -37 0 -22 10 -33 46 -55 44 -26 46
-29 30 -45 -13 -14 -21 -14 -46 -5 -20 8 -32 8 -36 1 -18 -28 83 -39 111 -12
26 26 14 56 -32 82 -56 31 -57 52 -2 52 28 0 39 4 37 13 -6 15 -67 20 -90 6z"/>
<path d="M10847 8281 c-31 -12 -17 -26 27 -26 29 0 41 -4 44 -16 2 -12 -7 -18
-33 -22 -20 -3 -43 -11 -51 -18 -17 -14 -18 -61 -2 -77 15 -15 53 -16 79 -2
13 7 19 7 19 0 0 -5 6 -10 13 -10 19 0 10 139 -11 163 -15 17 -53 21 -85 8z
m73 -109 c0 -21 -42 -48 -59 -38 -12 8 -15 39 -4 49 3 4 19 7 35 7 20 0 28 -5
28 -18z"/>
<path d="M11008 8279 c-11 -6 -18 -22 -18 -38 0 -23 7 -32 34 -45 48 -22 60
-40 40 -57 -12 -10 -22 -10 -45 -2 -19 8 -31 8 -35 1 -18 -28 83 -39 111 -12
26 26 14 56 -32 82 -56 31 -57 52 -2 52 28 0 39 4 37 13 -6 15 -67 20 -90 6z"/>
<path d="M11172 8267 c-27 -28 -30 -101 -6 -135 18 -26 84 -31 103 -8 16 19
-3 30 -28 16 -25 -13 -27 -13 -45 6 -19 18 -21 85 -4 102 19 19 49 14 55 -8 7
-26 33 -26 33 -1 0 50 -70 68 -108 28z"/>
<path d="M11316 8281 c-4 -5 -2 -12 4 -16 5 -3 10 -40 10 -81 0 -60 3 -74 15
-74 24 0 17 173 -7 178 -9 2 -19 -1 -22 -7z"/>
<path d="M11420 8200 c0 -73 3 -90 15 -90 12 0 15 14 15 65 0 53 3 66 19 75
44 23 51 14 51 -60 0 -54 4 -72 15 -77 9 -3 17 -4 19 -2 2 2 0 40 -3 83 -7 92
-20 108 -71 89 -17 -6 -32 -7 -36 -2 -16 26 -24 0 -24 -81z"/>
<path d="M11627 8281 c-31 -12 -17 -26 27 -26 29 0 41 -4 44 -16 2 -12 -7 -18
-33 -22 -48 -8 -65 -23 -65 -57 0 -39 17 -49 80 -47 l55 1 -3 71 c-3 44 -10
76 -20 88 -15 17 -53 21 -85 8z m73 -109 c0 -20 -45 -46 -61 -37 -10 7 -12 39
-2 48 3 4 19 7 35 7 21 0 28 -5 28 -18z"/>
<path d="M11780 8200 c0 -73 3 -90 15 -90 12 0 15 14 15 65 0 53 3 66 19 75
44 23 51 14 51 -60 0 -54 4 -72 15 -77 9 -3 17 -4 19 -2 2 2 0 40 -3 83 -7 92
-20 108 -71 89 -17 -6 -32 -7 -36 -2 -16 26 -24 0 -24 -81z"/>
<path d="M12100 8268 c-25 -27 -27 -103 -4 -136 22 -32 114 -30 114 3 0 11 -8
11 -32 4 -18 -5 -34 -9 -35 -9 -8 0 -33 34 -33 46 0 10 14 14 56 14 l57 0 -7
32 c-13 66 -74 91 -116 46z m85 -39 c0 -9 -14 -15 -37 -17 -42 -4 -51 14 -22
43 14 14 19 14 38 2 11 -8 21 -21 21 -28z"/>
<path d="M12277 8277 c-30 -21 -18 -58 31 -90 40 -27 42 -31 28 -45 -13 -14
-21 -14 -46 -5 -20 8 -32 8 -36 1 -18 -28 83 -39 111 -12 26 26 14 56 -32 82
-56 31 -57 52 -2 52 28 0 39 4 37 13 -6 17 -69 21 -91 4z"/>
<path d="M12570 8277 c0 -9 14 -54 31 -102 33 -94 30 -115 -18 -115 -28 0 -27
-23 1 -28 39 -8 64 25 96 127 33 107 37 135 18 129 -7 -3 -22 -38 -34 -78
l-20 -73 -25 73 c-22 67 -49 104 -49 67z"/>
<path d="M12842 8267 c-27 -28 -30 -101 -6 -135 18 -26 84 -31 103 -8 16 19
-3 30 -28 16 -25 -13 -27 -13 -45 6 -19 18 -21 85 -4 102 19 19 49 14 55 -8 7
-25 33 -26 33 -2 0 26 -31 52 -62 52 -13 0 -34 -10 -46 -23z"/>
<path d="M12988 8283 c-2 -4 -2 -45 0 -90 3 -64 7 -83 18 -83 10 0 14 15 14
59 0 61 15 91 46 91 8 0 14 7 14 15 0 18 -31 20 -48 3 -8 -8 -15 -8 -26 1 -8
7 -16 8 -18 4z"/>
<path d="M13120 8268 c-25 -27 -27 -103 -4 -136 23 -33 114 -29 114 5 0 14
-11 13 -56 -4 -14 -5 -44 24 -44 43 0 10 14 14 56 14 l57 0 -7 32 c-13 66 -74
91 -116 46z m80 -29 c15 -27 13 -29 -30 -29 -43 0 -52 16 -25 44 18 18 41 11
55 -15z"/>
<path d="M13297 8281 c-31 -12 -17 -26 27 -26 29 0 41 -4 44 -16 2 -12 -7 -18
-33 -22 -48 -8 -65 -23 -65 -57 0 -39 17 -49 80 -47 l55 1 -3 71 c-3 44 -10
76 -20 88 -15 17 -53 21 -85 8z m73 -109 c0 -21 -42 -48 -59 -38 -12 8 -15 39
-4 49 3 4 19 7 35 7 20 0 28 -5 28 -18z"/>
<path d="M16719 8283 c-111 -3 -117 -5 -141 -31 -26 -27 -26 -31 -38 -272 -7
-135 -17 -378 -24 -540 -11 -299 -14 -317 -54 -353 -27 -24 -91 -34 -103 -16
-7 11 -9 9 -9 -8 0 -12 4 -24 9 -27 4 -3 11 -29 14 -59 6 -48 35 -152 56 -202
5 -11 16 -36 24 -55 8 -19 25 -57 38 -85 12 -27 22 -59 21 -69 -1 -17 42 -110
58 -126 3 -3 14 -23 25 -45 11 -21 37 -60 58 -85 20 -25 42 -51 48 -58 6 -8
23 -10 49 -6 52 8 97 -10 136 -54 l31 -35 55 31 c90 52 113 42 149 -69 18 -57
20 -78 14 -192 l-7 -129 28 -29 c15 -16 34 -29 41 -29 7 0 21 -8 31 -17 9 -10
51 -38 92 -62 41 -24 77 -47 80 -51 3 -4 30 -19 60 -34 30 -16 62 -32 70 -37
34 -19 83 -39 100 -39 10 0 23 -7 30 -15 7 -9 15 -14 17 -11 2 2 16 -2 30 -9
57 -30 68 1 59 158 -7 126 2 179 35 208 18 16 38 19 118 20 53 1 110 3 126 5
17 2 120 3 230 4 145 0 201 4 207 13 4 7 8 31 8 53 0 31 9 56 36 95 44 66 44
54 8 202 -5 21 -1 34 16 52 l22 24 -35 48 c-19 26 -38 63 -42 81 -4 21 -29 57
-66 95 -41 44 -75 93 -111 167 -51 102 -74 133 -90 124 -17 -11 -6 -58 27
-127 19 -39 35 -77 35 -84 0 -19 -46 -45 -71 -41 -15 2 -38 25 -66 68 -24 36
-51 74 -61 85 -9 11 -22 29 -29 40 -28 46 -8 -38 29 -122 10 -24 18 -47 18
-52 0 -5 17 -47 37 -93 40 -90 94 -172 124 -189 10 -5 19 -14 19 -19 0 -15
-37 -12 -43 3 -3 6 -6 0 -6 -15 -1 -33 40 -162 74 -234 13 -28 42 -67 65 -87
22 -21 40 -39 40 -42 0 -14 -23 -1 -65 35 -25 22 -50 40 -55 40 -14 0 -56 95
-180 400 -10 25 -30 79 -45 120 -40 111 -53 140 -90 196 -42 63 -53 72 -85 70
-36 -3 -96 22 -162 67 -72 49 -89 70 -127 162 -30 71 -32 85 -40 268 -8 167
-12 199 -32 245 -22 49 -40 64 -54 43 -3 -6 -30 -24 -60 -41 -30 -17 -55 -38
-55 -47 0 -8 25 -74 57 -146 31 -73 80 -190 110 -262 29 -71 67 -154 84 -185
33 -58 106 -143 148 -172 15 -10 27 -29 29 -48 3 -29 2 -30 -37 -30 -28 0 -41
-4 -41 -14 0 -12 -61 -33 -84 -27 -4 1 -37 2 -71 2 -66 1 -89 -7 -91 -28 -1
-7 -2 -24 -2 -39 -2 -18 -11 -29 -36 -39 -58 -24 -55 -52 11 -113 61 -57 114
-89 155 -94 24 -4 61 -28 114 -75 14 -13 31 -23 39 -23 8 0 29 -13 47 -29 18
-15 47 -31 63 -35 17 -4 47 -11 68 -16 20 -6 54 -14 75 -19 20 -5 62 -18 92
-29 48 -18 57 -19 71 -6 21 19 36 18 49 -5 9 -18 6 -20 -43 -20 -28 0 -63 -4
-77 -9 -19 -7 -34 -5 -60 9 -56 30 -98 21 -48 -10 22 -14 22 -14 -13 -30 -22
-11 -33 -23 -31 -34 7 -40 -146 -4 -216 51 -20 16 -71 47 -113 70 -41 23 -91
56 -110 75 -19 18 -60 47 -92 65 -87 48 -152 100 -273 219 -161 158 -173 188
-210 513 -9 80 -20 150 -25 157 -7 8 -45 9 -130 6 l-120 -6 -40 39 c-21 21
-39 42 -39 46 0 19 61 29 218 36 215 9 204 -3 204 223 -1 90 -5 184 -11 209
-5 25 -11 124 -12 220 -3 187 -16 252 -71 353 -22 40 -57 78 -68 75 -3 -1 -57
-4 -121 -5z m1155 -1667 c59 -39 104 -84 73 -73 -10 4 -32 7 -48 7 -22 0 -29
5 -29 19 0 19 -23 45 -32 36 -3 -3 -10 6 -16 20 -15 33 -9 32 52 -9z m-196
-76 c7 -12 17 -18 21 -15 5 2 12 -7 15 -23 11 -46 28 -82 39 -82 5 0 24 -11
41 -24 31 -23 74 -42 89 -38 4 1 7 -5 7 -13 0 -8 8 -16 18 -16 9 -1 24 -3 32
-4 8 -1 23 -3 33 -4 11 -1 17 -9 17 -26 0 -14 5 -25 10 -25 6 0 10 -7 10 -15
0 -8 4 -15 8 -15 5 0 14 -12 21 -26 11 -25 10 -26 -11 -19 -61 18 -68 18 -68
-4 0 -11 -6 -21 -14 -21 -23 0 -86 30 -86 41 0 6 -9 8 -20 4 -16 -5 -20 -2
-20 19 0 19 -5 26 -20 26 -14 0 -20 7 -20 24 0 20 -6 25 -37 29 -43 6 -120 26
-143 37 -8 3 -19 21 -24 38 -6 17 -18 33 -29 36 -11 3 -16 9 -12 16 4 6 13 9
21 6 8 -3 14 -1 14 4 0 6 5 10 11 10 13 0 39 25 39 39 0 19 23 61 34 61 6 0
17 -9 24 -20z m372 -625 l25 -14 -32 -1 c-31 0 -49 11 -36 24 9 8 14 7 43 -9z
m115 -15 c4 -6 -6 -10 -24 -10 -16 0 -33 5 -36 10 -4 6 6 10 24 10 16 0 33 -4
36 -10z"/>
<path d="M8004 8135 c-3 -8 -3 -19 1 -25 4 -6 1 -18 -6 -26 -14 -17 -6 -29 16
-21 20 8 39 51 32 71 -8 20 -36 21 -43 1z"/>
<path d="M12414 8135 c-3 -8 -3 -19 1 -25 4 -6 1 -18 -6 -26 -14 -17 -6 -29
16 -21 20 8 39 51 32 71 -8 20 -36 21 -43 1z"/>
<path d="M20430 8101 c5 -11 15 -23 21 -26 5 -4 9 -28 8 -53 -1 -26 3 -56 9
-68 12 -22 96 -97 144 -128 l29 -19 -16 39 c-34 83 -84 161 -137 217 -57 59
-76 71 -58 38z"/>
<path d="M21040 8081 c0 -31 -18 -61 -36 -61 -10 0 -13 -6 -10 -18 4 -12 -1
-26 -14 -37 -11 -10 -18 -21 -15 -25 2 -4 -6 -17 -18 -28 -17 -16 -33 -21 -60
-19 -29 3 -37 0 -37 -14 0 -9 7 -20 15 -23 15 -5 86 2 93 9 2 2 23 -2 47 -9
l43 -13 56 57 c66 68 72 99 29 152 -15 18 -28 34 -28 35 -1 2 -16 6 -33 9 -28
6 -32 4 -32 -15z"/>
<path d="M17306 7839 c-3 -17 -6 -46 -6 -64 0 -19 -5 -35 -11 -37 -6 -2 -9
-15 -7 -28 4 -23 5 -24 12 -5 4 11 14 33 23 48 9 17 13 43 10 68 -6 51 -13 58
-21 18z"/>
<path d="M4370 7806 c0 -45 0 -45 -30 -39 -49 9 -80 -26 -80 -92 0 -38 5 -56
18 -68 21 -19 67 -23 78 -6 4 8 9 8 17 0 6 -6 14 -11 18 -11 14 0 5 253 -8
257 -9 3 -13 -9 -13 -41z m-12 -78 c15 -15 16 -63 2 -89 -13 -23 -55 -25 -64
-3 -10 26 -7 79 6 92 7 7 19 12 28 12 9 0 21 -5 28 -12z"/>
<path d="M5332 7723 l3 -128 28 -3 c29 -4 37 12 12 22 -12 4 -15 27 -15 121 0
97 -2 115 -15 115 -13 0 -15 -19 -13 -127z"/>
<path d="M5770 7806 c0 -45 0 -45 -30 -39 -49 9 -80 -26 -80 -92 0 -38 5 -56
18 -68 21 -19 67 -23 78 -6 4 8 9 8 17 0 6 -6 15 -11 19 -11 14 0 5 253 -9
258 -9 2 -13 -10 -13 -42z m-12 -78 c15 -15 16 -63 2 -89 -13 -23 -55 -25 -64
-3 -10 26 -7 79 6 92 7 7 19 12 28 12 9 0 21 -5 28 -12z"/>
<path d="M6032 7723 l3 -128 46 -3 c60 -4 84 21 84 88 0 63 -26 94 -72 87
l-33 -6 0 45 c0 33 -4 44 -15 44 -13 0 -15 -19 -13 -127z m99 -4 c24 -47 -15
-121 -57 -105 -18 7 -19 97 -2 114 19 19 46 14 59 -9z"/>
<path d="M6222 7723 l3 -128 28 -3 c29 -4 37 12 12 22 -12 4 -15 27 -15 121 0
97 -2 115 -15 115 -13 0 -15 -19 -13 -127z"/>
<path d="M8770 7806 c0 -45 0 -45 -30 -39 -49 9 -80 -26 -80 -92 0 -38 5 -56
18 -68 21 -19 67 -23 78 -6 4 8 9 8 17 0 6 -6 15 -11 19 -11 14 0 5 253 -9
258 -9 2 -13 -10 -13 -42z m-12 -78 c15 -15 16 -63 2 -89 -13 -23 -55 -25 -64
-3 -10 26 -7 79 6 92 7 7 19 12 28 12 9 0 21 -5 28 -12z"/>
<path d="M11072 7723 l3 -128 28 -3 c29 -4 37 12 12 22 -12 4 -15 27 -15 121
0 97 -2 115 -15 115 -13 0 -15 -19 -13 -127z"/>
<path d="M11690 7806 c0 -45 0 -45 -30 -39 -49 9 -80 -26 -80 -92 0 -38 5 -56
18 -68 21 -19 67 -23 78 -6 4 8 9 8 17 0 6 -6 15 -11 19 -11 14 0 5 253 -9
258 -9 2 -13 -10 -13 -42z m-12 -78 c15 -15 16 -63 2 -89 -13 -23 -55 -25 -64
-3 -10 26 -7 79 6 92 7 7 19 12 28 12 9 0 21 -5 28 -12z"/>
<path d="M4865 7820 c-8 -14 3 -30 21 -30 8 0 14 9 14 20 0 21 -24 28 -35 10z"/>
<path d="M5575 7820 c-8 -14 3 -30 21 -30 8 0 14 9 14 20 0 21 -24 28 -35 10z"/>
<path d="M6865 7820 c-8 -14 3 -30 21 -30 8 0 14 9 14 20 0 21 -24 28 -35 10z"/>
<path d="M9255 7820 c-8 -14 3 -30 21 -30 8 0 14 9 14 20 0 21 -24 28 -35 10z"/>
<path d="M9525 7820 c-8 -14 3 -30 21 -30 8 0 14 9 14 20 0 21 -24 28 -35 10z"/>
<path d="M11155 7820 c-8 -14 3 -30 21 -30 8 0 14 9 14 20 0 21 -24 28 -35 10z"/>
<path d="M8159 7808 c-1 -7 -1 -19 0 -25 1 -7 -5 -13 -14 -13 -8 0 -15 -7 -15
-15 0 -8 6 -15 14 -15 11 0 14 -16 15 -65 0 -36 3 -70 6 -75 8 -13 65 -13 65
0 0 6 -7 10 -15 10 -21 0 -35 33 -35 84 0 42 2 46 25 46 16 0 25 6 25 15 0 9
-9 15 -25 15 -20 0 -25 5 -25 25 0 25 -19 36 -21 13z"/>
<path d="M3318 7763 c-2 -4 -2 -45 0 -90 3 -64 7 -83 18 -83 10 0 14 15 14 59
0 61 15 91 46 91 8 0 14 7 14 15 0 18 -14 19 -41 4 -15 -7 -24 -7 -34 1 -7 6
-15 7 -17 3z"/>
<path d="M3450 7748 c-25 -27 -27 -103 -4 -136 22 -32 114 -30 114 3 0 11 -8
11 -32 4 -18 -5 -34 -9 -35 -9 -8 0 -33 34 -33 46 0 10 14 14 55 14 51 0 55 2
55 24 0 64 -78 99 -120 54z m80 -29 c15 -27 13 -29 -30 -29 -43 0 -52 16 -25
44 18 18 41 11 55 -15z"/>
<path d="M3622 7747 c-27 -28 -30 -101 -6 -135 18 -26 84 -31 103 -8 16 19 -3
30 -28 16 -25 -13 -27 -13 -45 6 -19 18 -21 85 -4 102 19 19 49 14 55 -8 7
-25 33 -26 33 -2 0 26 -31 52 -62 52 -13 0 -34 -10 -46 -23z"/>
<path d="M3779 7763 c-4 -43 5 -150 13 -160 13 -16 52 -17 79 -3 13 7 19 7 19
0 0 -5 6 -10 13 -10 10 0 12 19 9 88 -5 94 -5 97 -21 87 -6 -3 -11 -32 -11
-64 0 -61 -11 -81 -47 -81 -21 0 -22 5 -25 72 -2 46 -7 73 -15 76 -7 2 -13 0
-14 -5z"/>
<path d="M3980 7750 c-25 -25 -27 -105 -4 -138 23 -33 114 -29 114 5 0 14 -11
13 -56 -4 -14 -5 -44 24 -44 43 0 10 14 14 56 14 l57 0 -7 32 c-13 65 -74 90
-116 48z m80 -31 c15 -27 13 -29 -30 -29 -43 0 -50 12 -24 41 18 20 40 15 54
-12z"/>
<path d="M4148 7763 c-2 -4 -2 -45 0 -90 3 -64 7 -83 18 -83 10 0 14 15 14 59
0 61 15 91 46 91 8 0 14 7 14 15 0 18 -31 20 -48 3 -8 -8 -15 -8 -26 1 -8 7
-16 8 -18 4z"/>
<path d="M4460 7748 c-25 -27 -27 -103 -4 -136 19 -28 83 -31 106 -4 36 40 28
130 -12 152 -31 16 -68 11 -90 -12z m74 -14 c18 -18 21 -76 6 -105 -6 -10 -19
-19 -30 -19 -39 0 -55 86 -23 122 20 22 27 22 47 2z"/>
<path d="M4648 7759 c-10 -5 -18 -22 -18 -37 0 -22 10 -33 46 -55 44 -26 46
-29 30 -45 -13 -14 -21 -14 -46 -5 -20 8 -32 8 -36 1 -18 -28 83 -39 111 -12
26 26 14 56 -32 82 -56 31 -57 52 -2 52 28 0 39 4 37 13 -6 15 -67 20 -90 6z"/>
<path d="M4856 7761 c-4 -5 -2 -12 4 -16 5 -3 10 -40 10 -81 0 -60 3 -74 15
-74 24 0 17 173 -7 178 -9 2 -19 -1 -22 -7z"/>
<path d="M4960 7680 c0 -73 3 -90 15 -90 12 0 15 14 15 65 0 53 3 66 19 75 44
23 51 14 51 -60 0 -54 4 -72 15 -77 9 -3 17 -4 18 -2 2 2 0 40 -3 83 -6 92
-19 108 -70 89 -17 -6 -32 -7 -36 -2 -16 26 -24 0 -24 -81z"/>
<path d="M5162 7750 c-17 -16 -22 -32 -22 -68 0 -65 20 -92 69 -92 62 0 94 56
71 125 -19 57 -76 74 -118 35z m72 -16 c29 -29 15 -124 -19 -124 -46 0 -64 96
-23 124 27 19 23 19 42 0z"/>
<path d="M5405 7750 c41 -130 53 -155 72 -158 18 -3 25 8 45 70 16 47 31 74
41 76 15 3 17 -7 17 -72 0 -62 3 -76 15 -76 13 0 15 14 13 88 l-3 87 -39 0
-40 0 -20 -62 c-11 -35 -23 -63 -26 -63 -3 0 -15 28 -26 62 -14 43 -26 64 -38
66 -14 3 -17 -1 -11 -18z"/>
<path d="M5867 7761 c-31 -12 -17 -26 27 -26 29 0 41 -4 44 -16 2 -12 -7 -18
-33 -22 -48 -8 -65 -23 -65 -57 0 -39 17 -49 80 -47 l55 1 -3 71 c-3 44 -10
76 -20 88 -15 17 -53 21 -85 8z m73 -109 c0 -20 -45 -46 -61 -37 -10 7 -12 39
-2 48 3 4 19 7 35 7 21 0 28 -5 28 -18z"/>
<path d="M6320 7750 c-25 -25 -27 -105 -4 -138 23 -33 114 -29 114 5 0 14 -11
13 -56 -4 -14 -5 -44 24 -44 43 0 10 14 14 56 14 l57 0 -7 32 c-13 65 -74 90
-116 48z m80 -31 c15 -27 13 -29 -30 -29 -43 0 -50 12 -24 41 18 20 40 15 54
-12z"/>
<path d="M6497 7757 c-30 -21 -18 -58 31 -90 40 -27 42 -31 28 -45 -13 -14
-21 -14 -46 -5 -20 8 -32 8 -36 1 -18 -28 83 -39 110 -12 32 31 14 66 -46 92
-44 18 -36 42 13 42 28 0 39 4 37 13 -6 17 -69 21 -91 4z"/>
<path d="M6728 7759 c-10 -5 -18 -22 -18 -37 0 -22 10 -33 46 -55 44 -26 46
-29 30 -45 -13 -14 -21 -14 -46 -5 -20 8 -32 8 -36 1 -18 -28 83 -39 111 -12
26 26 14 56 -32 82 -56 31 -57 52 -2 52 28 0 39 4 37 13 -6 15 -67 20 -90 6z"/>
<path d="M6856 7761 c-4 -5 -2 -12 4 -16 5 -3 10 -40 10 -81 0 -60 3 -74 15
-74 24 0 17 173 -7 178 -9 2 -19 -1 -22 -7z"/>
<path d="M6960 7680 c0 -73 3 -90 15 -90 12 0 15 14 15 65 0 53 3 66 19 75 41
22 51 13 51 -42 0 -65 9 -98 25 -98 15 0 8 148 -7 168 -12 15 -42 16 -68 2
-13 -7 -21 -7 -25 0 -17 27 -25 2 -25 -80z"/>
<path d="M7230 7638 c0 -109 2 -127 15 -122 10 4 15 19 15 43 0 36 1 37 34 33
60 -7 92 60 65 137 -12 33 -28 40 -91 38 l-38 -1 0 -128z m104 70 c16 -45 -3
-83 -39 -83 -28 0 -30 3 -33 43 -2 24 2 50 9 58 19 23 52 13 63 -18z"/>
<path d="M7437 7761 c-31 -12 -17 -26 27 -26 29 0 41 -4 44 -16 2 -12 -7 -18
-33 -22 -48 -8 -65 -23 -65 -57 0 -39 17 -49 80 -47 l55 1 -3 71 c-3 44 -10
76 -20 88 -15 17 -53 21 -85 8z m73 -109 c0 -21 -42 -48 -59 -38 -12 8 -15 39
-4 49 3 4 19 7 35 7 20 0 28 -5 28 -18z"/>
<path d="M7600 7750 c-15 -15 -20 -34 -20 -73 0 -68 22 -93 74 -84 35 6 35 5
38 -36 2 -23 8 -42 13 -42 6 0 11 50 13 125 l3 125 -51 2 c-39 2 -55 -2 -70
-17z m84 -26 c9 -24 7 -63 -4 -85 -13 -23 -55 -25 -64 -3 -10 26 -7 79 6 92
17 17 55 15 62 -4z"/>
<path d="M7779 7763 c-4 -43 5 -150 13 -160 12 -15 56 -17 78 -3 9 5 19 5 27
-2 8 -6 15 -9 16 -7 2 2 1 44 -1 92 -5 102 -25 117 -30 22 -4 -67 -14 -85 -48
-85 -22 0 -23 4 -26 72 -2 46 -7 73 -15 76 -7 2 -13 0 -14 -5z"/>
<path d="M7980 7750 c-25 -25 -27 -105 -4 -138 22 -32 114 -30 114 3 0 11 -8
11 -32 4 -18 -5 -34 -9 -35 -9 -8 0 -33 34 -33 46 0 10 14 14 55 14 51 0 55 2
55 24 0 63 -77 99 -120 56z m80 -30 c12 -23 4 -30 -37 -30 -36 0 -42 14 -17
41 18 20 40 15 54 -11z"/>
<path d="M8270 7748 c-25 -27 -27 -103 -4 -136 23 -33 114 -29 114 5 0 14 -11
13 -56 -4 -14 -5 -44 24 -44 43 0 10 14 14 55 14 51 0 55 2 55 24 0 64 -78 99
-120 54z m88 -42 c3 -13 -5 -16 -37 -16 -45 0 -51 12 -24 42 14 16 19 17 37 4
12 -7 22 -21 24 -30z"/>
<path d="M8448 7759 c-10 -5 -18 -22 -18 -37 0 -22 10 -33 46 -55 44 -26 46
-29 30 -45 -13 -14 -21 -14 -46 -5 -20 8 -32 8 -36 1 -18 -28 83 -39 111 -12
26 26 14 56 -32 82 -56 31 -57 52 -2 52 28 0 39 4 37 13 -6 15 -67 20 -90 6z"/>
<path d="M8860 7750 c-25 -25 -27 -105 -4 -138 23 -33 114 -29 114 5 0 14 -11
13 -56 -4 -14 -5 -44 24 -44 43 0 10 14 14 56 14 l57 0 -7 32 c-13 65 -74 90
-116 48z m80 -31 c15 -27 13 -29 -30 -29 -43 0 -50 12 -24 41 18 20 40 15 54
-12z"/>
<path d="M9085 7750 c41 -130 53 -155 72 -158 18 -3 25 8 45 70 16 47 31 74
41 76 15 3 17 -7 17 -72 0 -62 3 -76 15 -76 13 0 15 14 13 88 l-3 87 -39 0
-40 0 -20 -62 c-11 -35 -23 -63 -26 -63 -3 0 -15 28 -26 62 -14 43 -26 64 -38
66 -14 3 -17 -1 -11 -18z"/>
<path d="M9354 7755 c-21 -16 -18 -17 41 -19 54 -1 62 -31 10 -39 -48 -8 -65
-23 -65 -57 0 -39 17 -49 80 -47 l55 1 -3 71 c-3 44 -10 76 -20 88 -18 21 -71
22 -98 2z m86 -103 c0 -21 -42 -48 -59 -38 -12 8 -15 39 -4 49 3 4 19 7 35 7
20 0 28 -5 28 -18z"/>
<path d="M9514 7759 c-4 -7 -2 -15 4 -17 17 -5 17 -199 0 -205 -10 -3 -10 -8
-2 -16 9 -10 15 -8 28 4 24 25 20 238 -6 243 -9 2 -20 -3 -24 -9z"/>
<path d="M9630 7748 c-25 -27 -27 -103 -4 -136 23 -33 114 -29 114 5 0 14 -11
13 -56 -4 -14 -5 -44 24 -44 43 0 10 14 14 55 14 51 0 55 2 55 24 0 64 -78 99
-120 54z m88 -42 c3 -13 -5 -16 -37 -16 -45 0 -51 12 -24 42 14 16 19 17 37 4
12 -7 22 -21 24 -30z"/>
<path d="M9870 7638 c0 -109 2 -127 15 -122 10 4 15 19 15 43 0 36 1 37 34 33
60 -7 92 60 65 137 -12 33 -28 40 -91 38 l-38 -1 0 -128z m104 70 c16 -45 -3
-83 -39 -83 -28 0 -30 3 -33 43 -2 24 2 50 9 58 19 23 52 13 63 -18z"/>
<path d="M10070 7748 c-25 -27 -27 -103 -4 -136 23 -33 114 -29 114 5 0 14
-11 13 -56 -4 -14 -5 -44 24 -44 43 0 10 14 14 55 14 51 0 55 2 55 24 0 64
-78 99 -120 54z m88 -42 c3 -13 -5 -16 -37 -16 -45 0 -51 12 -24 42 14 16 19
17 37 4 12 -7 22 -21 24 -30z"/>
<path d="M10238 7763 c-2 -4 -2 -45 0 -90 3 -64 7 -83 18 -83 10 0 14 15 14
59 0 61 15 91 46 91 8 0 14 7 14 15 0 18 -14 19 -41 4 -15 -7 -24 -7 -34 1 -7
6 -15 7 -17 3z"/>
<path d="M10367 7757 c-30 -21 -18 -58 31 -90 40 -27 42 -31 28 -45 -13 -14
-21 -14 -46 -5 -20 8 -32 8 -36 1 -18 -28 83 -39 110 -12 32 31 14 66 -46 92
-44 18 -36 42 13 42 28 0 39 4 37 13 -6 17 -69 21 -91 4z"/>
<path d="M10520 7748 c-14 -15 -20 -35 -20 -68 0 -63 21 -90 69 -90 62 0 94
56 71 125 -19 57 -81 75 -120 33z m74 -14 c18 -18 21 -76 6 -105 -6 -10 -19
-19 -30 -19 -39 0 -55 86 -23 122 20 22 27 22 47 2z"/>
<path d="M10700 7680 c0 -73 3 -90 15 -90 12 0 15 14 15 65 0 53 3 66 19 75
44 23 51 14 51 -60 0 -54 4 -72 15 -77 9 -3 17 -4 19 -2 2 2 0 40 -3 83 -7 92
-20 108 -71 89 -17 -6 -32 -7 -36 -2 -16 26 -24 0 -24 -81z"/>
<path d="M10907 7761 c-31 -12 -17 -26 27 -26 29 0 41 -4 44 -16 2 -12 -7 -18
-33 -22 -48 -8 -65 -23 -65 -57 0 -39 17 -49 80 -47 l55 1 -3 71 c-3 44 -10
76 -20 88 -15 17 -53 21 -85 8z m73 -109 c0 -20 -45 -46 -61 -37 -10 7 -12 39
-2 48 3 4 19 7 35 7 21 0 28 -5 28 -18z"/>
<path d="M11146 7761 c-4 -5 -2 -12 4 -16 5 -3 10 -40 10 -81 0 -60 3 -74 15
-74 24 0 17 173 -7 178 -9 2 -19 -1 -22 -7z"/>
<path d="M11240 7756 c0 -10 13 -16 41 -18 l40 -3 -46 -62 c-26 -34 -44 -67
-40 -73 3 -5 33 -10 66 -10 46 0 59 3 59 15 0 11 -11 15 -40 15 -22 0 -40 2
-40 5 0 3 18 30 40 59 57 75 54 86 -20 86 -46 0 -60 -3 -60 -14z"/>
<path d="M11427 7761 c-31 -12 -17 -26 27 -26 29 0 41 -4 44 -16 2 -12 -7 -18
-33 -22 -20 -3 -43 -11 -51 -18 -17 -14 -18 -61 -2 -77 15 -15 53 -16 79 -2
13 7 19 7 19 0 0 -5 6 -10 13 -10 19 0 10 139 -11 163 -15 17 -53 21 -85 8z
m73 -109 c0 -20 -45 -46 -61 -37 -10 7 -12 39 -2 48 3 4 19 7 35 7 21 0 28 -5
28 -18z"/>
<path d="M11780 7748 c-25 -27 -27 -103 -4 -136 13 -19 24 -22 57 -20 38 3 44
7 61 41 16 33 17 45 7 78 -18 61 -81 80 -121 37z m74 -14 c18 -18 21 -76 6
-105 -6 -10 -19 -19 -30 -19 -39 0 -55 86 -23 122 20 22 27 22 47 2z"/>
<path d="M11958 7759 c-10 -5 -18 -20 -18 -33 0 -23 28 -56 47 -56 5 0 17 -8
27 -19 15 -17 15 -19 0 -31 -12 -11 -22 -11 -45 -3 -19 8 -31 8 -35 1 -18 -28
83 -39 110 -12 9 8 16 24 16 34 0 18 -37 50 -72 63 -10 4 -18 13 -18 22 0 11
11 15 41 15 28 0 39 4 37 13 -6 15 -67 20 -90 6z"/>
<path d="M12107 7624 c-16 -16 -6 -35 16 -32 12 2 22 10 22 18 0 16 -26 25
-38 14z"/>
<path d="M21040 7473 c-30 -15 -57 -28 -60 -30 -8 -7 24 -23 47 -23 21 0 83
53 83 71 0 13 -9 11 -70 -18z"/>
<path d="M20600 7426 c-20 -23 -30 -51 -47 -141 -3 -16 -10 -36 -16 -43 -5 -7
-7 -15 -4 -18 7 -7 37 49 37 69 0 8 7 21 16 28 9 8 25 33 35 57 31 72 22 93
-21 48z"/>
<path d="M20790 7353 c0 -10 9 -42 20 -71 24 -62 25 -85 6 -115 -14 -21 -11
-77 3 -77 15 0 70 67 85 104 27 66 27 65 -60 141 -47 40 -54 42 -54 18z"/>
<path d="M4092 7203 l3 -128 28 -3 c29 -4 37 12 12 22 -12 4 -15 27 -15 121 0
97 -2 115 -15 115 -13 0 -15 -19 -13 -127z"/>
<path d="M7320 7200 c0 -109 2 -130 15 -130 12 0 15 14 15 65 0 53 3 66 19 75
41 22 51 13 51 -42 0 -65 9 -98 25 -98 15 0 8 148 -7 168 -13 15 -43 16 -69 2
-18 -10 -19 -7 -19 40 0 38 -4 50 -15 50 -13 0 -15 -21 -15 -130z"/>
<path d="M3454 7305 c-32 -22 -47 -68 -42 -130 5 -58 35 -105 67 -105 9 0 31
-9 49 -20 35 -21 62 -26 62 -10 0 5 -9 14 -20 20 -21 11 -21 11 -1 36 30 38
37 106 17 158 -23 61 -85 85 -132 51z m90 -37 c19 -27 21 -126 3 -149 -21 -27
-52 -31 -78 -10 -20 16 -24 28 -24 79 0 45 5 65 19 81 25 27 61 27 80 -1z"/>
<path d="M8914 7306 c-8 -21 -1 -162 9 -172 12 -13 15 -1 18 90 3 65 1 90 -8
93 -7 3 -16 -2 -19 -11z"/>
<path d="M6445 7300 c-8 -14 3 -30 21 -30 8 0 14 9 14 20 0 21 -24 28 -35 10z"/>
<path d="M8205 7300 c-8 -14 3 -30 21 -30 8 0 14 9 14 20 0 21 -24 28 -35 10z"/>
<path d="M5139 7288 c-1 -7 -1 -19 0 -25 1 -7 -5 -13 -14 -13 -8 0 -15 -7 -15
-15 0 -8 7 -15 15 -15 11 0 15 -17 17 -72 l3 -73 33 -3 c18 -2 32 1 32 7 0 6
-7 11 -15 11 -21 0 -35 33 -35 84 0 42 2 46 25 46 32 0 34 27 3 32 -15 2 -24
11 -26 26 -4 23 -21 31 -23 10z"/>
<path d="M17103 7195 c10 -197 40 -285 98 -285 14 0 11 46 -5 85 -8 19 -18 56
-22 82 -3 26 -12 59 -19 73 -7 14 -16 43 -19 64 -4 22 -14 49 -23 60 -13 19
-14 11 -10 -79z"/>
<path d="M3320 7230 c0 -13 7 -20 20 -20 13 0 20 7 20 20 0 13 -7 20 -20 20
-13 0 -20 -7 -20 -20z"/>
<path d="M3639 7243 c-4 -43 5 -150 13 -160 13 -16 52 -17 79 -3 13 7 19 7 19
0 0 -5 7 -10 16 -10 12 0 15 6 10 23 -3 12 -6 52 -6 90 0 53 -3 67 -15 67 -12
0 -15 -14 -15 -69 0 -72 -6 -81 -50 -81 -17 0 -20 9 -22 72 -2 46 -7 73 -15
76 -7 2 -13 0 -14 -5z"/>
<path d="M3840 7228 c-25 -27 -27 -103 -4 -136 23 -33 114 -29 114 5 0 14 -11
13 -56 -4 -14 -5 -44 24 -44 43 0 10 14 14 56 14 l57 0 -7 32 c-13 66 -74 91
-116 46z m80 -29 c15 -27 13 -29 -30 -29 -43 0 -52 16 -25 44 18 18 41 11 55
-15z"/>
<path d="M4207 7241 c-31 -12 -17 -26 27 -26 29 0 41 -4 44 -16 2 -12 -7 -18
-33 -22 -48 -8 -65 -23 -65 -57 0 -39 17 -49 80 -47 l55 1 -3 71 c-3 44 -10
76 -20 88 -15 17 -53 21 -85 8z m73 -109 c0 -21 -42 -48 -59 -38 -12 8 -15 39
-4 49 3 4 19 7 35 7 20 0 28 -5 28 -18z"/>
<path d="M4457 7241 c-31 -12 -17 -26 27 -26 29 0 41 -4 44 -16 2 -12 -7 -18
-33 -22 -20 -3 -43 -11 -51 -18 -17 -14 -18 -61 -2 -77 15 -15 53 -16 79 -2
13 7 19 7 19 0 0 -5 6 -10 13 -10 19 0 10 139 -11 163 -15 17 -53 21 -85 8z
m73 -109 c0 -21 -42 -48 -59 -38 -12 8 -15 39 -4 49 3 4 19 7 35 7 20 0 28 -5
28 -18z"/>
<path d="M4595 7230 c41 -131 53 -155 73 -158 18 -3 24 8 48 82 26 80 28 106
6 92 -5 -3 -17 -32 -27 -66 -10 -33 -21 -60 -25 -60 -3 0 -15 28 -26 62 -14
43 -26 64 -38 66 -14 3 -17 -1 -11 -18z"/>
<path d="M4780 7228 c-25 -27 -27 -103 -4 -136 22 -32 114 -30 114 3 0 11 -8
11 -32 4 -18 -5 -34 -9 -35 -9 -8 0 -33 34 -33 46 0 10 14 14 56 14 l57 0 -7
32 c-13 66 -74 91 -116 46z m80 -29 c15 -27 13 -29 -30 -29 -43 0 -50 12 -24
41 18 20 40 15 54 -12z"/>
<path d="M4940 7160 c0 -73 3 -90 15 -90 12 0 15 14 15 65 0 53 3 66 19 75 44
23 51 14 51 -60 0 -54 4 -72 15 -77 9 -3 17 -4 19 -2 2 2 0 40 -3 83 -7 92
-20 108 -71 89 -17 -6 -32 -7 -36 -2 -16 26 -24 0 -24 -81z"/>
<path d="M5249 7243 c-4 -43 5 -150 13 -160 12 -15 56 -17 78 -3 9 5 19 5 27
-2 8 -6 15 -9 16 -7 2 2 1 43 -1 92 -3 66 -7 87 -18 87 -11 0 -14 -17 -14 -69
0 -72 -6 -81 -50 -81 -17 0 -20 9 -22 72 -2 46 -7 73 -15 76 -7 2 -13 0 -14
-5z"/>
<path d="M5448 7243 c-2 -4 -2 -45 0 -90 3 -64 7 -83 18 -83 10 0 14 15 14 59
0 61 15 91 46 91 8 0 14 7 14 15 0 18 -14 19 -41 4 -15 -7 -24 -7 -34 1 -7 6
-15 7 -17 3z"/>
<path d="M5587 7241 c-31 -12 -17 -26 27 -26 29 0 41 -4 44 -16 2 -12 -7 -18
-33 -22 -48 -8 -65 -23 -65 -57 0 -39 17 -49 80 -47 l55 1 -3 71 c-3 44 -10
76 -20 88 -15 17 -53 21 -85 8z m73 -109 c0 -21 -42 -48 -59 -38 -12 8 -15 39
-4 49 3 4 19 7 35 7 20 0 28 -5 28 -18z"/>
<path d="M5832 7227 c-27 -28 -30 -101 -6 -135 18 -26 84 -31 103 -8 16 19 -3
30 -28 16 -25 -13 -27 -13 -45 6 -19 18 -21 85 -4 102 19 19 49 14 55 -8 7
-26 33 -26 33 -1 0 50 -70 68 -108 28z"/>
<path d="M6000 7228 c-14 -15 -20 -35 -20 -68 0 -63 21 -90 69 -90 62 0 94 56
71 125 -19 57 -81 75 -120 33z m74 -14 c18 -18 21 -76 6 -105 -6 -10 -19 -19
-30 -19 -39 0 -55 86 -23 122 20 22 27 22 47 2z"/>
<path d="M6170 7160 c0 -73 3 -90 15 -90 12 0 15 14 15 63 0 65 11 87 42 87
14 0 18 -11 20 -72 2 -57 6 -73 18 -73 11 0 16 15 18 62 3 64 19 90 47 79 11
-4 15 -22 15 -76 0 -56 3 -70 15 -70 12 0 15 15 15 74 0 96 -25 126 -80 96
-14 -7 -25 -7 -39 2 -15 9 -25 9 -45 0 -16 -7 -28 -8 -31 -2 -17 27 -25 1 -25
-80z"/>
<path d="M6436 7241 c-4 -5 -2 -12 4 -16 5 -3 10 -40 10 -81 0 -60 3 -74 15
-74 24 0 17 173 -7 178 -9 2 -19 -1 -22 -7z"/>
<path d="M6550 7228 c-25 -27 -27 -103 -4 -136 23 -33 114 -29 114 5 0 14 -11
13 -56 -4 -14 -5 -44 24 -44 43 0 10 14 14 55 14 51 0 55 2 55 24 0 64 -78 99
-120 54z m78 -20 c24 -24 13 -38 -28 -38 -26 0 -40 5 -40 13 0 18 21 37 40 37
9 0 21 -5 28 -12z"/>
<path d="M6710 7160 c0 -73 3 -90 15 -90 12 0 15 14 15 65 0 53 3 66 19 75 42
22 51 14 51 -49 0 -67 6 -91 24 -91 16 0 11 147 -5 167 -14 15 -43 17 -69 3
-13 -7 -21 -7 -25 0 -17 27 -25 2 -25 -80z"/>
<path d="M6922 7227 c-27 -28 -30 -101 -6 -135 18 -26 84 -31 103 -8 16 19 -3
30 -28 16 -25 -13 -27 -13 -45 6 -19 18 -21 85 -4 102 19 19 49 14 55 -8 7
-25 33 -26 33 -2 0 26 -31 52 -62 52 -13 0 -34 -10 -46 -23z"/>
<path d="M7080 7228 c-25 -27 -27 -103 -4 -136 23 -33 114 -29 114 5 0 14 -11
13 -56 -4 -14 -5 -44 24 -44 43 0 10 14 14 56 14 l57 0 -7 32 c-13 66 -74 91
-116 46z m80 -29 c15 -27 13 -29 -30 -29 -43 0 -50 12 -24 41 18 20 40 15 54
-12z"/>
<path d="M7520 7228 c-25 -27 -27 -103 -4 -136 19 -28 83 -31 106 -4 36 40 28
130 -12 152 -31 16 -68 11 -90 -12z m74 -14 c18 -18 21 -76 6 -105 -6 -10 -19
-19 -30 -19 -39 0 -55 86 -23 122 20 22 27 22 47 2z"/>
<path d="M7670 7237 c0 -9 14 -54 31 -102 33 -94 30 -115 -18 -115 -28 0 -27
-23 1 -28 39 -8 64 25 96 127 33 107 37 135 18 129 -7 -3 -22 -38 -34 -78
l-20 -73 -25 73 c-22 67 -49 104 -49 67z"/>
<path d="M7930 7160 c0 -73 3 -90 15 -90 12 0 15 14 15 63 0 65 11 87 42 87
14 0 18 -11 20 -72 2 -60 6 -73 21 -76 15 -3 17 5 17 61 0 68 15 95 45 83 11
-4 15 -22 15 -76 0 -56 3 -70 15 -70 12 0 15 15 15 74 0 97 -25 126 -82 95
-14 -8 -23 -8 -31 0 -14 14 -50 14 -64 0 -8 -8 -13 -8 -17 0 -18 28 -26 3 -26
-79z"/>
<path d="M8196 7241 c-4 -5 -2 -12 4 -16 5 -3 10 -40 10 -81 0 -60 3 -74 15
-74 24 0 17 173 -7 178 -9 2 -19 -1 -22 -7z"/>
<path d="M8307 7237 c-30 -21 -18 -58 31 -90 40 -27 42 -31 28 -45 -13 -14
-21 -14 -46 -5 -20 8 -32 8 -36 1 -18 -28 83 -39 110 -12 32 31 14 66 -46 92
-44 18 -36 42 13 42 28 0 39 4 37 13 -6 17 -69 21 -91 4z"/>
<path d="M8450 7160 c0 -73 3 -90 15 -90 12 0 15 14 15 63 0 65 11 87 42 87
18 0 18 0 22 -110 1 -24 6 -36 19 -38 15 -3 17 5 17 61 0 68 15 95 45 83 11
-4 15 -22 15 -76 0 -56 3 -70 15 -70 12 0 15 15 15 74 0 97 -25 126 -82 95
-14 -8 -23 -8 -31 0 -14 14 -50 14 -64 0 -8 -8 -13 -8 -17 0 -18 28 -26 3 -26
-79z"/>
<path d="M8740 7228 c-25 -27 -27 -103 -4 -136 13 -19 24 -22 57 -20 38 3 44
7 61 41 16 33 17 45 7 78 -18 61 -81 80 -121 37z m74 -14 c18 -18 21 -76 6
-105 -6 -10 -19 -19 -30 -19 -41 0 -55 85 -20 120 24 24 24 24 44 4z"/>
<path d="M20515 7200 c-3 -5 -1 -10 4 -10 6 0 11 5 11 10 0 6 -2 10 -4 10 -3
0 -8 -4 -11 -10z"/>
<path d="M18001 7183 c7 -12 15 -20 18 -17 3 2 -3 12 -13 22 -17 16 -18 16 -5
-5z"/>
<path d="M3326 7164 c-3 -9 -6 -49 -6 -90 0 -58 3 -74 14 -74 24 0 27 15 20
99 -7 78 -15 98 -28 65z"/>
<path d="M17304 7158 c3 -13 8 -45 11 -73 8 -62 34 -145 46 -145 20 0 1 125
-32 208 -15 37 -32 43 -25 10z"/>
<path d="M8910 7091 c0 -15 6 -21 21 -21 25 0 22 33 -4 38 -12 2 -17 -3 -17
-17z"/>
<path d="M17475 6225 c28 -25 58 -47 68 -51 26 -8 36 6 13 20 -11 6 -36 26
-56 44 -21 17 -46 32 -56 32 -14 -1 -6 -12 31 -45z"/>
<path d="M17617 6149 c7 -7 15 -10 18 -7 3 3 -2 9 -12 12 -14 6 -15 5 -6 -5z"/>
<path d="M17680 6122 c0 -4 21 -19 48 -32 26 -14 49 -28 50 -32 5 -11 22 -10
22 1 0 5 -27 23 -60 39 -33 17 -60 28 -60 24z"/>
<path d="M18805 6091 c-3 -5 -19 -12 -35 -16 -24 -5 -36 -18 -56 -57 -22 -44
-25 -59 -21 -122 3 -39 8 -87 12 -106 7 -40 8 -39 -92 -81 -29 -12 -53 -25
-53 -29 0 -5 19 -25 42 -44 41 -35 91 -56 135 -56 12 0 25 -4 28 -10 10 -16
91 -12 105 5 7 8 16 12 21 9 13 -8 88 38 122 74 32 33 28 39 -43 65 -64 24
-85 21 -120 -13 -34 -34 -83 -40 -116 -15 -16 12 -17 16 -5 24 8 5 24 7 35 4
12 -3 31 -7 43 -10 34 -8 82 34 82 73 1 16 7 36 14 43 10 11 9 13 -5 8 -10 -4
-18 -2 -18 3 0 6 -9 10 -19 10 -34 0 -51 12 -51 35 0 13 5 27 10 30 6 3 10 1
10 -4 0 -6 18 -11 40 -11 35 0 40 -3 41 -22 2 -46 17 24 18 83 1 54 -1 58 -44
98 -44 40 -68 50 -80 32z m83 -94 c15 -7 22 -18 20 -31 -6 -43 -128 -36 -160
9 -26 35 79 52 140 22z m-98 -116 c0 -22 -40 -36 -52 -18 -12 18 -10 25 10 30
34 9 42 7 42 -12z m60 -84 c0 -8 -11 -19 -25 -25 -21 -10 -26 -9 -35 8 -9 16
-6 19 22 23 18 2 34 5 36 5 1 1 2 -4 2 -11z"/>
<path d="M18326 5424 c-11 -8 -16 -14 -10 -14 5 0 4 -4 -1 -8 -6 -4 -8 -20 -4
-37 4 -16 7 -24 8 -17 1 14 41 17 41 2 0 -5 5 -10 10 -10 17 0 11 60 -7 80
-16 16 -20 17 -37 4z"/>
<path d="M18552 5428 c-6 -7 -8 -25 -5 -40 4 -21 11 -28 29 -28 14 0 24 6 24
14 0 8 6 17 13 19 8 4 4 12 -13 26 -29 24 -34 25 -48 9z"/>
<path d="M18768 5423 c-22 -21 -5 -59 29 -66 18 -3 27 2 38 23 14 26 13 29
-10 44 -29 19 -35 19 -57 -1z"/>
<path d="M19006 5423 c-18 -9 -26 -20 -22 -30 3 -8 6 -22 6 -30 0 -11 7 -14
25 -11 13 3 26 0 29 -6 2 -6 5 -2 5 10 1 11 6 25 12 31 8 8 6 16 -9 31 -17 17
-22 18 -46 5z"/>
<path d="M18160 5146 c0 -30 5 -58 10 -61 6 -3 10 3 10 14 0 30 17 34 34 9 17
-24 17 -23 19 20 1 24 -2 27 -26 24 -21 -3 -27 1 -27 17 0 12 8 21 23 24 16 3
13 5 -10 6 l-33 1 0 -54z"/>
<path d="M18696 5184 c-10 -27 -7 -79 7 -98 12 -17 17 -17 43 -5 24 12 29 21
30 54 1 22 -3 46 -8 53 -15 17 -65 15 -72 -4z m64 -8 c0 -8 -5 -18 -10 -21
-17 -11 -40 3 -34 20 8 19 44 20 44 1z m0 -66 c0 -22 -25 -27 -50 -10 -13 9
-13 11 0 20 25 17 50 12 50 -10z"/>
<path d="M18942 5188 c-24 -30 -14 -103 15 -110 21 -6 43 0 43 11 0 5 -11 6
-25 4 -19 -4 -25 0 -31 21 -9 39 3 76 25 76 11 0 21 -6 24 -12 2 -7 8 -10 12
-6 12 11 -5 28 -29 28 -13 0 -28 -6 -34 -12z"/>
<path d="M19040 5145 c0 -30 5 -55 10 -55 6 0 10 25 10 55 0 30 -4 55 -10 55
-5 0 -10 -25 -10 -55z"/>
<path d="M18366 5181 c-8 -13 5 -101 15 -101 12 0 11 97 0 105 -5 3 -12 1 -15
-4z"/>
<path d="M19305 5148 c11 -55 16 -68 26 -68 5 0 9 5 9 10 0 6 -5 10 -11 10 -7
0 -8 14 -4 40 6 33 4 40 -10 40 -13 0 -15 -6 -10 -32z"/>
<path d="M18280 5161 c0 -6 7 -11 15 -11 8 0 15 -4 15 -10 0 -5 -6 -10 -14
-10 -7 0 -19 -7 -26 -15 -8 -9 -9 -15 -2 -15 6 0 14 5 17 10 9 15 25 12 25 -4
0 -8 -10 -17 -22 -19 -17 -3 -14 -5 10 -6 31 -1 32 0 32 39 0 22 -4 40 -9 40
-5 0 -16 3 -25 6 -9 3 -16 1 -16 -5z"/>
<path d="M18460 5130 c0 -22 5 -40 10 -40 6 0 10 14 10 30 0 23 4 30 20 30 16
0 20 -7 21 -37 l1 -38 10 34 c11 39 5 46 -39 54 -33 6 -33 6 -33 -33z"/>
<path d="M18557 5150 c-8 -33 7 -75 28 -79 19 -3 19 -2 2 16 -24 27 -23 63 3
63 17 0 20 -7 20 -45 0 -25 5 -45 11 -45 6 0 9 20 7 52 -3 50 -4 52 -35 54
-23 2 -32 -2 -36 -16z"/>
<path d="M19080 5126 c0 -25 5 -46 10 -46 6 0 10 18 10 39 0 22 -4 43 -10 46
-6 4 -10 -12 -10 -39z"/>
<path d="M19138 5163 c-13 -3 -18 -15 -18 -39 0 -21 4 -33 10 -29 6 3 10 17
10 31 0 15 6 24 16 24 10 0 14 -6 10 -15 -3 -9 0 -15 9 -15 8 0 15 6 15 13 0
14 -20 38 -29 36 -4 -1 -14 -3 -23 -6z"/>
<path d="M19210 5125 c0 -25 5 -45 10 -45 6 0 10 16 10 36 0 28 3 35 18 32 11
-2 19 -16 23 -38 l5 -35 5 42 c4 36 1 43 -16 47 -48 13 -55 8 -55 -39z"/>
<path d="M19378 5163 c-19 -5 -25 -33 -8 -33 6 0 10 5 10 10 0 6 9 10 21 10
11 0 17 5 14 10 -6 10 -9 11 -37 3z"/>
<path d="M18800 5146 c0 -8 5 -27 12 -41 9 -21 9 -31 -1 -47 -9 -15 -10 -19 0
-16 16 5 51 96 39 103 -5 3 -13 -3 -19 -12 -9 -16 -10 -16 -11 -1 0 21 -20 35
-20 14z"/>
<path d="M18422 5120 c0 -14 2 -19 5 -12 2 6 2 18 0 25 -3 6 -5 1 -5 -13z"/>
<path d="M19390 5121 c0 -6 5 -11 10 -11 20 0 10 -19 -12 -23 -16 -4 -13 -5 7
-4 23 2 30 7 30 22 0 11 -8 21 -17 23 -10 2 -18 -1 -18 -7z"/>
<path d="M19148 5083 c6 -2 18 -2 25 0 6 3 1 5 -13 5 -14 0 -19 -2 -12 -5z"/>
<path d="M18580 5050 c-13 -8 -12 -10 3 -10 9 0 17 5 17 10 0 12 -1 12 -20 0z"/>
<path d="M12750 1136 c0 -118 -3 -221 -6 -230 -9 -23 35 -36 117 -37 119 -1
173 55 172 177 -1 109 -46 160 -133 152 l-50 -5 0 58 c0 69 -21 99 -70 99
l-30 0 0 -214z m171 -53 c22 -59 -9 -143 -53 -143 -16 0 -18 9 -18 78 0 43 3
82 7 85 3 4 17 7 30 7 16 0 27 -8 34 -27z"/>
<path d="M16740 1340 c-39 -17 -60 -50 -60 -97 0 -39 -2 -43 -24 -43 -27 0
-41 -27 -31 -60 4 -13 15 -20 31 -20 l24 0 0 -125 0 -125 55 0 55 0 0 125 0
125 35 0 c40 0 51 15 41 55 -5 21 -12 25 -46 25 -35 0 -40 3 -40 24 0 32 21
47 61 44 28 -3 34 1 43 25 7 18 7 30 -1 38 -15 15 -113 21 -143 9z"/>
<path d="M11093 1313 c-10 -3 -13 -58 -13 -224 l0 -219 109 0 c120 0 152 8
193 47 38 36 52 84 51 180 -1 134 -42 194 -144 213 -53 10 -174 12 -196 3z
m187 -93 c25 -13 40 -62 40 -130 0 -104 -30 -145 -101 -138 l-34 3 -3 138 -3
137 41 0 c23 0 50 -4 60 -10z"/>
<path d="M15122 1278 c-7 -7 -12 -27 -12 -45 0 -28 -4 -33 -24 -33 -15 0 -26
-7 -29 -20 -9 -35 3 -60 29 -60 24 0 24 -1 24 -103 0 -133 10 -147 105 -147
l65 0 0 40 c0 37 -2 40 -29 40 -36 0 -41 13 -41 101 l0 69 40 0 40 0 0 40 0
40 -40 0 -40 0 0 45 0 45 -38 0 c-21 0 -43 -5 -50 -12z"/>
<path d="M17512 1278 c-7 -7 -12 -27 -12 -45 0 -28 -4 -33 -24 -33 -15 0 -26
-7 -29 -20 -9 -35 3 -60 29 -60 24 0 24 -1 24 -103 0 -133 10 -147 105 -147
l65 0 0 40 c0 37 -2 40 -29 40 -36 0 -41 13 -41 101 l0 69 40 0 40 0 0 40 0
40 -40 0 -40 0 0 45 0 45 -38 0 c-21 0 -43 -5 -50 -12z"/>
<path d="M18135 1200 c-68 -14 -95 -44 -95 -102 0 -47 24 -77 87 -104 32 -14
53 -30 50 -37 -4 -13 -53 -14 -99 -2 -24 6 -29 4 -38 -21 -16 -40 -8 -50 50
-64 113 -27 200 17 200 100 0 50 -34 88 -99 110 -37 12 -53 32 -33 43 4 3 28
-1 55 -8 52 -13 60 -9 71 36 4 20 1 29 -12 34 -33 13 -107 21 -137 15z"/>
<path d="M11525 1178 c-38 -30 -55 -76 -55 -150 0 -118 54 -174 160 -165 30 3
68 11 83 18 23 11 27 17 22 38 -10 39 -18 43 -69 31 -54 -12 -86 -1 -86 30 0
18 7 20 79 20 86 0 91 4 91 61 0 43 -23 92 -55 117 -39 31 -131 31 -170 0z
m109 -64 c27 -27 20 -44 -19 -44 -27 0 -35 4 -35 18 0 18 18 42 31 42 4 0 15
-7 23 -16z"/>
<path d="M11837 1184 c-46 -25 -62 -98 -31 -143 9 -13 41 -34 71 -47 32 -14
53 -30 50 -37 -4 -13 -53 -14 -99 -2 -24 6 -29 4 -38 -21 -6 -15 -9 -33 -6
-40 7 -19 101 -37 153 -29 136 20 139 173 4 213 -23 7 -41 19 -41 27 0 22 11
24 63 10 52 -13 60 -9 71 37 5 23 2 27 -26 37 -44 16 -138 13 -171 -5z"/>
<path d="M12132 1180 c-18 -11 -40 -36 -48 -55 -20 -49 -18 -152 4 -194 34
-64 114 -87 189 -56 59 25 65 33 47 66 -15 29 -37 38 -49 19 -9 -15 -71 -12
-84 4 -7 9 -11 41 -9 83 3 65 4 68 28 68 21 0 26 -5 28 -32 2 -18 9 -33 15
-34 7 0 20 -2 29 -4 28 -5 58 23 58 57 0 21 -10 40 -34 64 -30 30 -40 34 -87
34 -37 0 -65 -7 -87 -20z"/>
<path d="M12401 1191 c-12 -8 -14 -32 -12 -113 3 -119 13 -168 41 -193 25 -22
90 -22 125 1 22 14 26 14 47 0 30 -21 65 -20 76 2 4 9 5 82 2 162 l-5 145 -52
3 -53 3 0 -110 c0 -101 -2 -111 -21 -121 -42 -23 -49 -8 -49 99 0 77 -4 103
-16 115 -17 18 -61 21 -83 7z"/>
<path d="M13079 1176 c-9 -20 -9 -32 -1 -51 7 -15 12 -75 12 -140 l0 -115 55
0 55 0 0 103 c0 114 6 127 56 127 29 0 33 4 42 42 6 23 9 45 6 50 -10 16 -72
8 -98 -13 -24 -19 -29 -20 -44 -6 -9 9 -29 19 -44 22 -23 6 -29 3 -39 -19z"/>
<path d="M13375 1178 c-15 -12 -34 -36 -41 -54 -20 -47 -18 -151 4 -194 30
-60 107 -84 192 -60 60 17 65 24 50 60 -14 33 -12 33 -96 13 -23 -5 -54 20
-54 43 0 11 17 14 79 14 86 0 91 4 91 61 0 43 -23 92 -55 117 -39 31 -131 31
-170 0z m109 -64 c27 -27 20 -44 -19 -44 -27 0 -35 4 -35 18 0 18 18 42 31 42
4 0 15 -7 23 -16z"/>
<path d="M13790 1045 c0 -85 -1 -158 -2 -162 -2 -5 21 -9 50 -11 l52 -3 0 104
c0 110 8 133 47 125 16 -3 19 -17 23 -105 3 -56 10 -107 16 -113 13 -13 40
-16 75 -7 25 6 25 7 22 99 -5 143 -12 178 -38 204 -28 28 -75 31 -119 9 -26
-14 -31 -14 -46 0 -9 8 -31 15 -48 15 l-32 0 0 -155z"/>
<path d="M14141 1191 c-12 -8 -14 -32 -12 -113 3 -118 13 -168 40 -192 25 -22
91 -23 124 -1 24 15 28 15 49 1 50 -35 94 -8 82 52 -3 16 -7 80 -7 143 l-2
114 -52 3 -53 3 0 -110 c0 -101 -2 -111 -21 -121 -42 -23 -49 -8 -49 99 0 77
-4 103 -16 115 -17 18 -61 21 -83 7z"/>
<path d="M14525 1178 c-15 -12 -34 -36 -41 -54 -20 -47 -18 -151 4 -194 30
-60 107 -84 192 -60 59 17 65 24 50 59 -7 17 -15 31 -19 31 -3 0 -25 -5 -49
-10 -50 -12 -82 0 -82 30 0 18 7 20 79 20 86 0 91 4 91 61 0 43 -23 92 -55
117 -39 31 -131 31 -170 0z m109 -64 c27 -27 20 -44 -19 -44 -27 0 -35 4 -35
18 0 18 18 42 31 42 4 0 15 -7 23 -16z"/>
<path d="M14837 1184 c-46 -25 -62 -98 -31 -142 9 -13 41 -34 71 -47 84 -37
55 -64 -44 -40 -29 7 -34 5 -43 -21 -16 -40 -8 -50 50 -64 111 -27 200 17 200
98 0 53 -28 87 -90 107 -56 19 -68 45 -21 45 16 0 41 -4 55 -9 28 -11 40 -2
50 41 5 23 2 27 -26 37 -44 16 -138 13 -171 -5z"/>
<path d="M15329 1176 c-9 -20 -9 -32 -1 -51 7 -15 12 -75 12 -140 l0 -115 55
0 55 0 0 103 c0 114 6 127 56 127 29 0 33 4 42 42 6 23 9 45 6 50 -10 16 -72
8 -98 -13 -24 -19 -29 -20 -44 -6 -9 9 -29 19 -44 22 -23 6 -29 3 -39 -19z"/>
<path d="M15608 1188 c-41 -11 -50 -37 -25 -71 11 -16 18 -16 65 -6 46 11 55
10 69 -3 22 -23 8 -38 -38 -38 -46 0 -94 -22 -109 -49 -5 -11 -10 -38 -10 -61
0 -33 6 -48 29 -71 34 -33 74 -38 126 -13 25 12 38 13 54 5 53 -29 91 5 72 61
-6 17 -11 69 -11 115 0 80 -2 86 -29 114 -27 26 -35 29 -93 28 -35 -1 -80 -6
-100 -11z m122 -208 c0 -22 -34 -44 -56 -36 -14 6 -19 37 -7 49 3 4 19 7 35 7
21 0 28 -5 28 -20z"/>
<path d="M15937 1184 c-46 -25 -62 -98 -31 -143 9 -13 41 -34 70 -47 81 -36
65 -68 -22 -44 -49 14 -59 10 -69 -31 -5 -21 -2 -27 21 -37 73 -34 177 -22
213 25 13 16 21 40 21 65 0 48 -36 87 -99 108 -23 7 -41 19 -41 27 0 16 47 17
85 3 24 -9 27 -7 41 25 18 44 19 41 -17 54 -45 16 -139 13 -172 -5z"/>
<path d="M16384 1181 c-42 -25 -64 -77 -64 -148 0 -110 52 -168 149 -168 101
1 145 51 145 165 0 72 -18 116 -60 149 -36 28 -126 29 -170 2z m116 -87 c28
-72 -5 -174 -47 -148 -14 9 -19 26 -21 78 -2 41 2 73 9 82 19 22 48 17 59 -12z"/>
<path d="M16935 1178 c-15 -12 -34 -36 -41 -54 -20 -47 -18 -151 4 -194 30
-60 107 -84 192 -60 60 17 65 24 50 60 -14 33 -12 33 -96 13 -23 -5 -54 20
-54 43 0 11 17 14 79 14 86 0 91 4 91 61 0 43 -23 92 -55 117 -39 31 -131 31
-170 0z m109 -64 c27 -27 20 -44 -19 -44 -27 0 -35 4 -35 18 0 18 18 42 31 42
4 0 15 -7 23 -16z"/>
<path d="M17209 1176 c-9 -20 -9 -32 -1 -51 7 -15 12 -75 12 -140 l0 -115 55
0 55 0 0 103 c0 114 6 127 56 127 29 0 33 4 42 42 6 23 9 45 6 50 -10 16 -72
8 -98 -13 -24 -19 -29 -20 -44 -6 -9 9 -29 19 -44 22 -23 6 -29 3 -39 -19z"/>
<path d="M17756 1188 c-36 -10 -38 -12 -32 -41 9 -45 17 -49 75 -35 45 10 54
9 68 -4 22 -23 8 -38 -38 -38 -46 0 -94 -22 -109 -49 -5 -11 -10 -38 -10 -61
0 -33 6 -48 29 -71 34 -33 74 -38 126 -13 25 12 38 13 54 5 53 -29 91 5 72 61
-6 17 -11 69 -11 115 0 80 -2 86 -29 114 -27 26 -35 29 -93 28 -35 -1 -80 -6
-102 -11z m124 -208 c0 -18 -26 -40 -49 -40 -12 0 -24 37 -16 50 3 5 19 10 36
10 22 0 29 -5 29 -20z"/>
<path d="M11705 10 c-3 -5 1 -10 10 -10 9 0 13 5 10 10 -3 6 -8 10 -10 10 -2
0 -7 -4 -10 -10z"/>
<path d="M14750 10 c0 -5 7 -10 15 -10 8 0 15 5 15 10 0 6 -7 10 -15 10 -8 0
-15 -4 -15 -10z"/>
<path d="M15190 10 c0 -5 5 -10 10 -10 6 0 10 5 10 10 0 6 -4 10 -10 10 -5 0
-10 -4 -10 -10z"/>
<path d="M15460 10 c0 -5 7 -10 15 -10 8 0 15 5 15 10 0 6 -7 10 -15 10 -8 0
-15 -4 -15 -10z"/>
<path d="M15640 10 c0 -5 7 -10 15 -10 8 0 15 5 15 10 0 6 -7 10 -15 10 -8 0
-15 -4 -15 -10z"/>
<path d="M16480 10 c0 -5 7 -10 16 -10 8 0 12 5 9 10 -3 6 -10 10 -16 10 -5 0
-9 -4 -9 -10z"/>
<path d="M18640 10 c0 -5 7 -10 15 -10 8 0 15 5 15 10 0 6 -7 10 -15 10 -8 0
-15 -4 -15 -10z"/>
</g>
</svg>
